<?xml version="1.0" encoding="utf-8"?>
<svg xmlns="http://www.w3.org/2000/svg" xmlns:svg="http://www.w3.org/2000/svg" version="1.1" viewBox="0 0 2460 763">
	<title>A score for the first four bars of Beethoven’s second Sonata (Op. 2, No. 2). The work is scored for piano, and increases gradually in pitch and volume over the bars.</title>
	<path d="M31.68 97.97h2428M31.68 122.77h2428M31.68 147.57h2428M31.68 172.37h2428M31.68 197.17h2428M31.68 497.2h2428M31.68 522h2428M31.68 546.8h2428M31.68 571.6h2428M31.68 596.4h2428" fill="none" stroke="#000" stroke-linejoin="bevel" stroke-width="2.73"/>
	<path d="M2253.75 219.5c39.23 21.79 111.76 13.48 145.05-16.62-32.38 37.98-104.9 46.3-145.05 16.61M2011.98 281.5c40.23 31.48 124.85 37.68 169.24 12.4-44.97 33.2-129.59 27-169.24-12.4M1540.1 231.9c52.51 44.46 232.23 50.28 290.12 12.4-58.23 45.8-237.95 39.99-290.12-12.4M1091.78 85.57c69.64-51.13 279.8-52.83 350.25-2.83-70.4-42.06-280.55-40.36-350.25 2.83M782.57 269.1c57.81 4.63 144.76-40.88 173.91-91.02-25.47 57.17-112.42 102.68-173.9 91.01M1057.07 311.48c71.58 30 284.7 26.3 355.2-6.16-70.36 40.4-283.48 44.09-355.2 6.16M801.16 438.55c37.66-40.56 120.9-49.73 166.47-18.34-44.7-23.5-127.94-14.33-166.47 18.34M2103.11 459.77c7.35-14.4 31.9-15.86 40.91-2.43-8.77-9.47-33.32-8-40.9 2.43M1558.7 420.08c71.04-39.16 284.16-39.17 355.2 0-71.04-31.23-284.16-31.23-355.2 0M1091.78 460c66.1-55.96 276.24-72.42 350.25-27.42-73.39-37.09-283.54-20.63-350.25 27.43M1424.67 616.35c43.26 66.02 194.24 89.37 236.93 19.11-43.3 78.17-194.29 54.82-236.93-19.1M1057.07 673.43c73.74 25.02 286.86 6.54 355.2-30.79-67.65 45.24-280.77 63.71-355.2 30.8" fill-rule="evenodd" stroke="#000" stroke-linecap="round" stroke-linejoin="round" stroke-width="1.24"/>
	<path d="M1690.47 601.98c23.5 13.9 93.95 13.9 117.43 0-23.48 21.82-93.94 21.82-117.43 0M1835.53 601.98c34.5 22.25 137.97 22.25 172.46 0-34.49 30.2-137.97 30.2-172.46 0" fill-rule="evenodd" stroke="#000" stroke-linecap="round" stroke-linejoin="round" stroke-width="1.24"/>
	<path d="M1489.51 96.6v400.6M33.91 96.6v400.6M2457.45 96.6v400.6M1961.4 96.6v400.6M1017.64 96.6v400.6M33.91 495.84v101.93M1961.4 495.84v101.93M1489.51 495.84v101.93M2457.45 495.84v101.93M1017.64 495.84v101.93" stroke="#000" stroke-linejoin="bevel" stroke-width="4.46"/>
	<path d="M2375.4 161.96c.6-.1 1.1-.8 1.1-1.4v-5.85c0-.99-.7-1.38-1.59-1.38l-3.27.69v-14.78h-2.78v15.38l-8.83 1.78v-13.99h-2.78V157l-3.86.79c-.6.1-1.1.8-1.1 1.39v5.75c0 1.1.8 1.4 1.7 1.4l3.26-.7v16.36l-3.86.8c-.6.1-1.1.8-1.1 1.39v5.75c0 1.1.8 1.39 1.7 1.39l3.26-.7v14.79h2.78v-15.38l8.83-1.79v14h2.78v-14.6l3.77-.69c.6-.1 1.09-.79 1.09-1.38v-5.86c0-.99-.7-1.39-1.59-1.39l-3.27.7v-16.37l3.77-.7m-15.38 3.08 8.83-1.78v16.36l-8.83 1.89v-16.47"/>
	<path d="M532.2 246.77h48.6M532.2 221.97h48.6M2156.92 271.57h48.6M1406.57 221.97h48.6M2156.92 246.77h48.6M1043.92 221.97h48.6M1805.92 221.97h48.6M1987.68 221.97h78.35M305.46 221.97h48.6M1588.33 221.97h48.6M1987.68 246.77h78.35M305.46 246.77h48.6M2156.92 221.97h48.6M1116.45 221.97h48.6M758.27 246.77h48.6M758.27 221.97h48.6M660.91 621.2h48.6M883.17 621.2h48.6M1987.68 621.2h48.6M305.46 621.2h48.6M434.83 621.2h48.6" stroke="#000" stroke-linejoin="bevel" stroke-width="3.97"/>
	<path d="M1445.75 168.4V97.87M2026.86 255.2V110.37M1554.98 205.6v-88.93M797.44 242.8V79.32M2268.62 193.2v-89.08M344.64 242.8V97.97M2341.15 180.8v-79.73M1373.22 156V91.87M2413.68 168.4V98.02M1627.51 230.4V122.67M2196.1 267.6V122.97M1083.1 143.6V73.17M971.35 143.6V73.21M1845.1 218v-82.83M571.37 242.8V97.97M1700.04 205.6v-82.83M1416 226.14v64.05M1053.35 238.53v57.82M1343.46 188.93v102.5M1125.88 226.14v68.98M1270.93 201.34v91.31M1198.41 213.74v80.14M1700.04 518.04V435.2M971.35 505.64v-70.3M1772.57 493.24V435.2M1917.62 493.24V435.2M1445.75 505.64v-57.93M571.37 542.84V472.4M344.64 542.84V472.4M1845.1 505.64V435.2M1627.51 505.64V435.2M1083.1 505.64V447.6M1373.22 518.04V453.7M797.44 542.84v-89.17M2147.74 555.24v-82.77M2026.86 580.04v-101.5M2099.4 567.64V474.9M1554.98 518.04V435.2M2196.1 542.84V466.4M1997.11 637.77v57.83M1125.88 588.17v63.97M314.9 637.77v70.18M1198.41 575.77v70.21M444.26 625.37v76.5M1670.28 588.17V646M1597.76 600.57v57.73M1270.93 563.37v76.46M541.61 612.97v76.5M670.33 625.37v70.18M1525.23 526.17v126.14M767.7 612.97v82.75M1053.35 600.57v57.73M892.6 637.77v70.11M1416 538.57v88.94M1815.34 588.17V646M1343.46 550.97v82.7" stroke="#000" stroke-linejoin="bevel" stroke-width="2.48"/>
	<path d="M2025.62 250.94c0 4.26 3.08 9.03 11.12 9.03 10.31 0 21.12-8.44 21.12-17.17 0-5.85-4.96-9.12-11.1-9.12-9.63 0-21.14 8.13-21.14 17.26"/>
	<path d="M1995.87 263.34c0 4.26 3.08 9.03 11.12 9.03 10.31 0 21.12-8.44 21.12-17.17 0-5.85-4.96-9.12-11.1-9.12-9.63 0-21.14 8.13-21.14 17.26M313.65 250.94c0 4.26 3.08 9.03 11.11 9.03 10.32 0 21.13-8.44 21.13-17.17 0-5.85-4.96-9.12-11.1-9.12-9.63 0-21.14 8.13-21.14 17.26M1414.75 176.54c0 4.26 3.08 9.03 11.11 9.03 10.32 0 21.13-8.44 21.13-17.17 0-5.85-4.96-9.12-11.1-9.12-9.63 0-21.14 8.13-21.14 17.26M1073.24 134.48c-9.62 0-21.13 8.03-21.13 17.26 0 4.26 3.08 9.03 11.12 9.03 10.31 0 21.12-8.44 21.12-17.17 0-5.85-4.96-9.12-11.1-9.12m-13.7 21.62a3.7 3.7 0 0 1-3.96-3.57c0-4.86 16.66-13.39 21.32-13.39 2.39 0 3.97 1.39 3.97 3.57 0 4.96-16.76 13.4-21.33 13.4M1814.1 226.14c0 4.26 3.08 9.03 11.11 9.03 10.32 0 21.13-8.44 21.13-17.17 0-5.85-4.96-9.12-11.1-9.12-9.63 0-21.14 8.13-21.14 17.26M313.65 188.94c0 4.26 3.08 9.03 11.11 9.03 10.32 0 21.13-8.44 21.13-17.17 0-5.85-4.96-9.12-11.1-9.12-9.63 0-21.14 8.13-21.14 17.26M940.36 151.74c0 4.26 3.08 9.03 11.11 9.03 10.32 0 21.13-8.44 21.13-17.17 0-5.85-4.96-9.12-11.1-9.12-9.63 0-21.14 8.13-21.14 17.26M540.38 250.94c0 4.26 3.07 9.03 11.1 9.03 10.32 0 21.14-8.44 21.14-17.17 0-5.85-4.96-9.12-11.11-9.12-9.63 0-21.13 8.13-21.13 17.26M1669.04 213.74c0 4.26 3.08 9.03 11.11 9.03 10.32 0 21.13-8.44 21.13-17.17 0-5.85-4.96-9.12-11.1-9.12-9.63 0-21.14 8.13-21.14 17.26M540.38 188.94c0 4.26 3.07 9.03 11.1 9.03 10.32 0 21.14-8.44 21.14-17.17 0-5.85-4.96-9.12-11.11-9.12-9.63 0-21.13 8.13-21.13 17.26M2165.1 275.74c0 4.26 3.08 9.03 11.12 9.03 10.31 0 21.12-8.44 21.12-17.17 0-5.85-4.96-9.12-11.1-9.12-9.63 0-21.14 8.13-21.14 17.26"/>
	<path d="M2165.1 250.94c0 4.26 3.08 9.03 11.12 9.03 10.31 0 21.12-8.44 21.12-17.17 0-5.85-4.96-9.12-11.1-9.12-9.63 0-21.14 8.13-21.14 17.26M1995.87 201.34c0 4.26 3.08 9.03 11.12 9.03 10.31 0 21.12-8.44 21.12-17.17 0-5.85-4.96-9.12-11.1-9.12-9.63 0-21.14 8.13-21.14 17.26M2165.1 213.74c0 4.26 3.08 9.03 11.12 9.03 10.31 0 21.12-8.44 21.12-17.17 0-5.85-4.96-9.12-11.1-9.12-9.63 0-21.14 8.13-21.14 17.26M1596.52 201.34c0 4.26 3.08 9.03 11.11 9.03 10.32 0 21.13-8.44 21.13-17.17 0-5.85-4.96-9.12-11.1-9.12-9.63 0-21.14 8.13-21.14 17.26M1524 213.74c0 4.26 3.07 9.03 11.1 9.03 10.32 0 21.13-8.44 21.13-17.17 0-5.85-4.96-9.12-11.1-9.12-9.63 0-21.14 8.13-21.14 17.26"/>
	<path d="M1524 188.94c0 4.26 3.07 9.03 11.1 9.03 10.32 0 21.13-8.44 21.13-17.17 0-5.85-4.96-9.12-11.1-9.12-9.63 0-21.14 8.13-21.14 17.26M1596.52 238.54c0 4.26 3.08 9.03 11.11 9.03 10.32 0 21.13-8.44 21.13-17.17 0-5.85-4.96-9.12-11.1-9.12-9.63 0-21.14 8.13-21.14 17.26M2237.63 201.34c0 4.26 3.08 9.03 11.11 9.03 10.32 0 21.13-8.44 21.13-17.17 0-5.85-4.96-9.12-11.1-9.12-9.63 0-21.14 8.13-21.14 17.26M2382.7 176.54c0 4.26 3.07 9.03 11.1 9.03 10.32 0 21.13-8.44 21.13-17.17 0-5.85-4.96-9.12-11.1-9.12-9.63 0-21.14 8.13-21.14 17.26M2310.16 188.94c0 4.26 3.08 9.03 11.12 9.03 10.31 0 21.12-8.44 21.12-17.17 0-5.85-4.96-9.12-11.1-9.12-9.63 0-21.14 8.13-21.14 17.26M766.45 188.94c0 4.26 3.08 9.03 11.11 9.03 10.32 0 21.13-8.44 21.13-17.17 0-5.85-4.96-9.12-11.1-9.12-9.63 0-21.14 8.13-21.14 17.26M1342.22 164.14c0 4.26 3.08 9.03 11.11 9.03 10.32 0 21.13-8.44 21.13-17.17 0-5.85-4.96-9.12-11.1-9.12-9.63 0-21.14 8.13-21.14 17.26M766.45 250.94c0 4.26 3.08 9.03 11.11 9.03 10.32 0 21.13-8.44 21.13-17.17 0-5.85-4.96-9.12-11.1-9.12-9.63 0-21.14 8.13-21.14 17.26M1269.7 201.34c0 4.26 3.07 9.03 11.1 9.03 10.32 0 21.13-8.44 21.13-17.17 0-5.85-4.96-9.12-11.1-9.12-9.63 0-21.14 8.13-21.14 17.26"/>
	<path d="M1342.22 188.94c0 4.26 3.08 9.03 11.11 9.03 10.32 0 21.13-8.44 21.13-17.17 0-5.85-4.96-9.12-11.1-9.12-9.63 0-21.14 8.13-21.14 17.26M1124.64 226.14c0 4.26 3.08 9.03 11.11 9.03 10.32 0 21.13-8.44 21.13-17.17 0-5.85-4.96-9.12-11.1-9.12-9.63 0-21.14 8.13-21.14 17.26M1197.17 213.74c0 4.26 3.08 9.03 11.11 9.03 10.32 0 21.13-8.44 21.13-17.17 0-5.85-4.96-9.12-11.1-9.12-9.63 0-21.14 8.13-21.14 17.26M1414.75 226.14c0 4.26 3.08 9.03 11.11 9.03 10.32 0 21.13-8.44 21.13-17.17 0-5.85-4.96-9.12-11.1-9.12-9.63 0-21.14 8.13-21.14 17.26M1052.11 238.54c0 4.26 3.08 9.03 11.12 9.03 10.31 0 21.12-8.44 21.12-17.17 0-5.85-4.96-9.12-11.1-9.12-9.63 0-21.14 8.13-21.14 17.26M1524 501.37c0 4.27 3.07 9.03 11.1 9.03 10.32 0 21.13-8.43 21.13-17.16 0-5.86-4.96-9.13-11.1-9.13-9.63 0-21.14 8.13-21.14 17.26M2116.75 563.37c0 4.27 3.08 9.03 11.12 9.03 10.31 0 21.12-8.43 21.12-17.16 0-5.86-4.96-9.13-11.1-9.13-9.63 0-21.14 8.13-21.14 17.26"/>
	<path d="M1524 526.17c0 4.27 3.07 9.03 11.1 9.03 10.32 0 21.13-8.43 21.13-17.16 0-5.86-4.96-9.13-11.1-9.13-9.63 0-21.14 8.13-21.14 17.26M766.45 550.97c0 4.27 3.08 9.03 11.11 9.03 10.32 0 21.13-8.43 21.13-17.16 0-5.86-4.96-9.13-11.1-9.13-9.63 0-21.14 8.13-21.14 17.26M2165.1 550.97c0 4.27 3.08 9.03 11.12 9.03 10.31 0 21.12-8.43 21.12-17.16 0-5.86-4.96-9.13-11.1-9.13-9.63 0-21.14 8.13-21.14 17.26M2068.4 575.77c0 4.27 3.08 9.03 11.11 9.03 10.32 0 21.13-8.43 21.13-17.16 0-5.86-4.96-9.13-11.1-9.13-9.63 0-21.14 8.13-21.14 17.26M1596.52 513.77c0 4.27 3.08 9.03 11.11 9.03 10.32 0 21.13-8.43 21.13-17.16 0-5.86-4.96-9.13-11.1-9.13-9.63 0-21.14 8.13-21.14 17.26M540.38 550.97c0 4.27 3.07 9.03 11.1 9.03 10.32 0 21.14-8.43 21.14-17.16 0-5.86-4.96-9.13-11.11-9.13-9.63 0-21.13 8.13-21.13 17.26M1073.24 496.51c-9.62 0-21.13 8.03-21.13 17.26 0 4.27 3.08 9.03 11.12 9.03 10.31 0 21.12-8.43 21.12-17.16 0-5.86-4.96-9.13-11.1-9.13m-13.7 21.63a3.7 3.7 0 0 1-3.96-3.58c0-4.86 16.66-13.39 21.32-13.39 2.39 0 3.97 1.4 3.97 3.57 0 4.96-16.76 13.4-21.33 13.4M1414.75 513.77c0 4.27 3.08 9.03 11.11 9.03 10.32 0 21.13-8.43 21.13-17.16 0-5.86-4.96-9.13-11.1-9.13-9.63 0-21.14 8.13-21.14 17.26M1669.04 526.17c0 4.27 3.08 9.03 11.11 9.03 10.32 0 21.13-8.43 21.13-17.16 0-5.86-4.96-9.13-11.1-9.13-9.63 0-21.14 8.13-21.14 17.26M1886.63 501.37c0 4.27 3.08 9.03 11.11 9.03 10.32 0 21.13-8.43 21.13-17.16 0-5.86-4.96-9.13-11.1-9.13-9.63 0-21.14 8.13-21.14 17.26M1995.87 588.17c0 4.27 3.08 9.03 11.12 9.03 10.31 0 21.12-8.43 21.12-17.16 0-5.86-4.96-9.13-11.1-9.13-9.63 0-21.14 8.13-21.14 17.26M1741.57 501.37c0 4.27 3.08 9.03 11.11 9.03 10.32 0 21.13-8.43 21.13-17.16 0-5.86-4.96-9.13-11.1-9.13-9.63 0-21.14 8.13-21.14 17.26M313.65 550.97c0 4.27 3.08 9.03 11.11 9.03 10.32 0 21.13-8.43 21.13-17.16 0-5.86-4.96-9.13-11.1-9.13-9.63 0-21.14 8.13-21.14 17.26M940.36 513.77c0 4.27 3.08 9.03 11.11 9.03 10.32 0 21.13-8.43 21.13-17.16 0-5.86-4.96-9.13-11.1-9.13-9.63 0-21.14 8.13-21.14 17.26M1342.22 526.17c0 4.27 3.08 9.03 11.11 9.03 10.32 0 21.13-8.43 21.13-17.16 0-5.86-4.96-9.13-11.1-9.13-9.63 0-21.14 8.13-21.14 17.26M1814.1 513.77c0 4.27 3.08 9.03 11.11 9.03 10.32 0 21.13-8.43 21.13-17.16 0-5.86-4.96-9.13-11.1-9.13-9.63 0-21.14 8.13-21.14 17.26M1814.1 588.17c0 4.27 3.08 9.03 11.11 9.03 10.32 0 21.13-8.43 21.13-17.16 0-5.86-4.96-9.13-11.1-9.13-9.63 0-21.14 8.13-21.14 17.26M891.36 637.77c0 4.27 3.08 9.03 11.11 9.03 10.32 0 21.13-8.43 21.13-17.16 0-5.86-4.96-9.13-11.1-9.13-9.63 0-21.14 8.13-21.14 17.26M1669.04 588.17c0 4.27 3.08 9.03 11.11 9.03 10.32 0 21.13-8.43 21.13-17.16 0-5.86-4.96-9.13-11.1-9.13-9.63 0-21.14 8.13-21.14 17.26M1596.52 600.57c0 4.27 3.08 9.03 11.11 9.03 10.32 0 21.13-8.43 21.13-17.16 0-5.86-4.96-9.13-11.1-9.13-9.63 0-21.14 8.13-21.14 17.26M313.65 637.77c0 4.27 3.08 9.03 11.11 9.03 10.32 0 21.13-8.43 21.13-17.16 0-5.86-4.96-9.13-11.1-9.13-9.63 0-21.14 8.13-21.14 17.26"/>
	<path d="M1524 526.17c0 4.27 3.07 9.03 11.1 9.03 10.32 0 21.13-8.43 21.13-17.16 0-5.86-4.96-9.13-11.1-9.13-9.63 0-21.14 8.13-21.14 17.26M443.02 625.37c0 4.27 3.08 9.03 11.11 9.03 10.32 0 21.13-8.43 21.13-17.16 0-5.86-4.96-9.13-11.1-9.13-9.63 0-21.14 8.13-21.14 17.26M1414.75 538.57c0 4.27 3.08 9.03 11.11 9.03 10.32 0 21.13-8.43 21.13-17.16 0-5.86-4.96-9.13-11.1-9.13-9.63 0-21.14 8.13-21.14 17.26M1342.22 550.97c0 4.27 3.08 9.03 11.11 9.03 10.32 0 21.13-8.43 21.13-17.16 0-5.86-4.96-9.13-11.1-9.13-9.63 0-21.14 8.13-21.14 17.26M540.38 612.97c0 4.27 3.07 9.03 11.1 9.03 10.32 0 21.14-8.43 21.14-17.16 0-5.86-4.96-9.13-11.11-9.13-9.63 0-21.13 8.13-21.13 17.26M1269.7 563.37c0 4.27 3.07 9.03 11.1 9.03 10.32 0 21.13-8.43 21.13-17.16 0-5.86-4.96-9.13-11.1-9.13-9.63 0-21.14 8.13-21.14 17.26M1197.17 575.77c0 4.27 3.08 9.03 11.11 9.03 10.32 0 21.13-8.43 21.13-17.16 0-5.86-4.96-9.13-11.1-9.13-9.63 0-21.14 8.13-21.14 17.26M669.1 625.37c0 4.27 3.07 9.03 11.1 9.03 10.33 0 21.14-8.43 21.14-17.16 0-5.86-4.96-9.13-11.11-9.13-9.62 0-21.13 8.13-21.13 17.26M1124.64 588.17c0 4.27 3.08 9.03 11.11 9.03 10.32 0 21.13-8.43 21.13-17.16 0-5.86-4.96-9.13-11.1-9.13-9.63 0-21.14 8.13-21.14 17.26M2017 620.51c-9.62 0-21.13 8.03-21.13 17.26 0 4.27 3.08 9.03 11.12 9.03 10.31 0 21.12-8.43 21.12-17.16 0-5.86-4.96-9.13-11.1-9.13m-13.7 21.63a3.7 3.7 0 0 1-3.96-3.58c0-4.86 16.66-13.39 21.32-13.39 2.39 0 3.97 1.4 3.97 3.57 0 4.96-16.76 13.4-21.33 13.4M1052.11 600.57c0 4.27 3.08 9.03 11.12 9.03 10.31 0 21.12-8.43 21.12-17.16 0-5.86-4.96-9.13-11.1-9.13-9.63 0-21.14 8.13-21.14 17.26M766.45 612.97c0 4.27 3.08 9.03 11.11 9.03 10.32 0 21.13-8.43 21.13-17.16 0-5.86-4.96-9.13-11.1-9.13-9.63 0-21.14 8.13-21.14 17.26"/>
	<path d="M66.95 223.26c0 6.55 4.96 15.18 18.35 15.18a23.1 23.1 0 0 0 12.3-3.37c5.36-3.77 6.75-10.32 6.75-16.57 0-3.87-.6-8.33-1.6-13.99-.29-1.98-.88-4.96-1.48-8.83 9.72-3.17 16.96-13.29 16.96-23.5 0-14.99-10.61-25.1-25.1-25.1-.98-5.96-1.98-11.8-2.77-17.36 10.42-11.02 17.66-23.42 17.66-39.19 0-9.03-2.78-16.37-4.37-19.94-2.38-5.06-5.26-8.53-7.04-8.53-.7 0-3.77 1.2-7.04 5.06-6.35 7.54-8.14 20.24-8.14 28.57 0 5.36.5 10.22 2.18 21.33-.1.1-5.25 5.36-7.34 7.04-9.02 8.33-21.52 20.44-21.52 40.28 0 18.55 16.17 33.13 34.62 33.13 2.87 0 5.55-.3 7.83-.7 1.89 9.53 3.08 16.47 3.08 21.73 0 10.32-5.36 15.77-15.38 15.77-2.38 0-4.46-.5-4.66-.5-.1-.1-.3-.2-.3-.3 0-.19.2-.29.5-.29 4.66-.8 9.32-4.76 9.32-11.1 0-5.37-4.06-11.02-11.5-11.02-6.95 0-11.31 5.65-11.31 12.2M87.68 90.83c.9-3.97 5.46-14.38 10.62-14.38 1.48 0 3.86 4.76 3.86 11.7 0 10.32-7.63 18.06-14.48 24.8a79.4 79.4 0 0 1-1.09-12c0-3.67.3-7.05 1.1-10.12m8.72 101.98c-1.98.4-3.87.6-5.75.6-14.19 0-26.3-9.93-26.3-24.9 0-12.1 8.54-22.92 17.27-30.46 1.69-1.49 3.27-2.88 4.76-4.37.9 5.36 1.59 10.02 2.28 14.09-9.02 2.68-15.17 12.2-15.17 21.53 0 6.94 5.45 16.46 13.39 16.46.8 0 1.68-.4 1.68-1.29s-.99-1.38-2.18-2.18c-3.87-2.38-6.05-4.96-6.05-9.82 0-6.05 4.56-10.91 10.32-12.3l5.75 32.64m14.09-18.35c0 7.04-2.88 14.28-9.92 17.16a3294.5 3294.5 0 0 1-5.46-32.04c8.93 0 15.38 6.05 15.38 14.88M79.94 497.1c-7.54 0-13.59 4.37-13.69 4.37-5.85 4.27-9.62 10.81-9.62 18.05 0 7.25 4.17 12.6 11.5 12.6 6.36 0 11.32-4.26 11.32-10.81 0-5.65-4.96-10.32-10.52-10.32-1.19 0-2.28.2-3.17.5-1 .4-2.68 1.39-3.47 2.08.69-4.36 3.67-8.73 7.53-10.81 2.48-1.39 5.66-1.98 9.13-1.98 10.12 0 15.08 8.13 15.08 24.8 0 12.9-8.23 31.44-17.96 40.17-10.31 9.43-20.03 13.89-20.13 13.89 0 0-1.2.7-1.2 1.88 0 .2.1.3.1.5.3 1 1.2 1.19 1.9 1.19l.29-.1c.2 0 11.5-4.66 20.53-11.7 13.9-10.02 29.56-27.68 29.56-45.93 0-17.26-9.32-28.38-27.18-28.38m31.15 12.6a4.87 4.87 0 0 0 4.76 4.96 4.87 4.87 0 0 0 4.77-4.96c0-2.77-2.19-5.06-4.77-5.06-2.58 0-4.76 2.29-4.76 5.06m0 24.5c0 2.78 2.18 5.06 4.76 5.06 2.58 0 4.77-2.28 4.77-5.05 0-2.78-2.19-5.06-4.77-5.06-2.58 0-4.76 2.28-4.76 5.06"/>
	<path d="M168.53 87.56c.6-.1 1.09-.8 1.09-1.4v-5.85c0-.99-.7-1.38-1.59-1.38l-3.27.69V64.84h-2.78v15.38L153.15 82V68.01h-2.78V82.6l-3.86.79c-.6.1-1.1.8-1.1 1.39v5.75c0 1.1.8 1.4 1.7 1.4l3.26-.7v16.36l-3.86.8c-.6.1-1.1.8-1.1 1.39v5.75c0 1.1.8 1.39 1.7 1.39l3.26-.7v14.79h2.78v-15.38l8.83-1.79v14h2.78v-14.6l3.77-.69c.6-.1 1.09-.79 1.09-1.38v-5.86c0-.99-.7-1.39-1.59-1.39l-3.27.7V88.25l3.77-.7m-15.38 3.08 8.83-1.78v16.36l-8.83 1.89V90.63M195.7 124.76c.6-.1 1.09-.8 1.09-1.4v-5.85c0-.99-.7-1.38-1.59-1.38l-3.27.69v-14.78h-2.78v15.38l-8.83 1.78v-13.99h-2.77v14.59l-3.87.79c-.6.1-1.1.8-1.1 1.39v5.75c0 1.1.8 1.4 1.7 1.4l3.27-.7v16.36l-3.87.8c-.6.1-1.1.8-1.1 1.39v5.75c0 1.1.8 1.39 1.7 1.39l3.27-.7v14.79h2.77v-15.38l8.83-1.79v14h2.78v-14.6l3.77-.69c.6-.1 1.09-.79 1.09-1.38v-5.86c0-.99-.7-1.39-1.59-1.39l-3.27.7v-16.37l3.77-.7m-15.38 3.08 8.83-1.78v16.36l-8.83 1.89v-16.47M168.53 511.59c.6-.1 1.09-.8 1.09-1.4v-5.84c0-1-.7-1.4-1.59-1.4l-3.27.7v-14.78h-2.78v15.38l-8.83 1.78v-13.98h-2.78v14.58l-3.86.8c-.6.1-1.1.79-1.1 1.38v5.75c0 1.1.8 1.4 1.7 1.4l3.26-.7v16.37l-3.86.79c-.6.1-1.1.8-1.1 1.39v5.75c0 1.1.8 1.4 1.7 1.4l3.26-.7v14.78h2.78v-15.38l8.83-1.78v13.98h2.78v-14.58l3.77-.7c.6-.1 1.09-.79 1.09-1.38v-5.86c0-.99-.7-1.38-1.59-1.38l-3.27.69v-16.37l3.77-.7m-15.38 3.08 8.83-1.78v16.37l-8.83 1.88v-16.47M195.7 548.79c.6-.1 1.09-.8 1.09-1.4v-5.84c0-1-.7-1.4-1.59-1.4l-3.27.7v-14.78h-2.78v15.38l-8.83 1.78v-13.98h-2.77v14.58l-3.87.8c-.6.1-1.1.79-1.1 1.38v5.75c0 1.1.8 1.4 1.7 1.4l3.27-.7v16.37l-3.87.79c-.6.1-1.1.8-1.1 1.39v5.75c0 1.1.8 1.4 1.7 1.4l3.27-.7v14.78h2.77v-15.38l8.83-1.78v13.98h2.78v-14.58l3.77-.7c.6-.1 1.09-.79 1.09-1.38v-5.86c0-.99-.7-1.38-1.59-1.38l-3.27.69v-16.37l3.77-.7m-15.38 3.08 8.83-1.78v16.37l-8.83 1.88v-16.47"/>
	<path d="M251.1 121.68c4.96-1.88 8.43-5.06 8.43-10.51 0-.9-.3-12.1-17.36-12.1s-16.57 12.1-16.57 12.1h.1l-.1.2a6.35 6.35 0 0 0 6.45 6.34 6.27 6.27 0 0 0 6.35-6.35 6.58 6.58 0 0 0-4.96-6.25l.3-.3a9 9 0 0 1 5.16-1.48c4.16 0 8.63 2.48 8.63 7.84 0 6.25-4.67 7.14-5.86 7.34-1.19.2-6.74.6-7.93.6-1.2 0-1.3 1.38-1.3 1.38v1.98s.2 1.1 1.3 1.2c1.68.1 3.97.1 7.14.59 4.37.6 6.65 3.57 6.65 10.52 0 6.64-4.47 8.43-8.63 8.43-2.78 0-5.36-.8-6.45-1.59a6.46 6.46 0 0 0 5.95-6.35 6.35 6.35 0 0 0-6.35-6.45 6.44 6.44 0 0 0-6.45 6.45c0 8.14 7.44 12.2 14.78 12.2 9.53 0 19.84-3.27 19.84-14.08 0-7.25-4.96-10.32-9.32-11.7h.2M240.84 184.97v7.34h-8.23c-.7 0-1.39.6-1.39 1.39v1.88c0 .8.7 1.4 1.39 1.4h30.06c.8 0 1.39-.6 1.39-1.4v-1.88c0-.8-.6-1.39-1.4-1.39h-8.82v-7.34h8.83c.8 0 1.39-.7 1.39-1.49v-1.88c0-.7-.6-1.4-1.4-1.4h-8.82v-15.76c0-.6-.3-1.1-.8-1.3l-1.19-.59c-.2-.1-.5-.2-.69-.2-.3.1-.7.2-.9.4l-9.02 8.23c-.3.3-.4.7-.4 1.1v8.13h-11.4s11-11.9 22.71-27.58c.4-.5.5-1 .5-1.39 0-.5-.2-.89-.3-.99l-2.18-2.18c-.2-.2-.6-.4-1-.4H234.5c-.79 0-1.29.6-1.38 1.2 0 0-.5 7.33-3.08 15.37a58.75 58.75 0 0 1-8.13 16.66s-.3.5-.3 1.1c0 .2 0 .4.1.59.4.7.99 1.79.99 1.79s.2.59 1.1.59h17.05M251.1 520.92c4.96-1.89 8.43-5.06 8.43-10.52 0-.9-.3-12.1-17.36-12.1s-16.57 12.1-16.57 12.1h.1l-.1.2a6.35 6.35 0 0 0 6.45 6.35 6.27 6.27 0 0 0 6.35-6.35 6.58 6.58 0 0 0-4.96-6.25l.3-.3a9 9 0 0 1 5.16-1.49c4.16 0 8.63 2.48 8.63 7.84 0 6.25-4.67 7.14-5.86 7.34-1.19.2-6.74.6-7.93.6-1.2 0-1.3 1.39-1.3 1.39v1.98s.2 1.1 1.3 1.2c1.68.09 3.97.09 7.14.59 4.37.6 6.65 3.57 6.65 10.51 0 6.65-4.47 8.43-8.63 8.43-2.78 0-5.36-.79-6.45-1.58a6.46 6.46 0 0 0 5.95-6.35 6.35 6.35 0 0 0-6.35-6.45 6.44 6.44 0 0 0-6.45 6.45c0 8.13 7.44 12.2 14.78 12.2 9.53 0 19.84-3.27 19.84-14.09 0-7.24-4.96-10.31-9.32-11.7h.2M240.84 584.2v7.34h-8.23c-.7 0-1.39.6-1.39 1.4v1.88c0 .79.7 1.39 1.39 1.39h30.06c.8 0 1.39-.6 1.39-1.4v-1.88c0-.8-.6-1.39-1.4-1.39h-8.82v-7.34h8.83c.8 0 1.39-.7 1.39-1.49v-1.88c0-.7-.6-1.39-1.4-1.39h-8.82v-15.77c0-.6-.3-1.1-.8-1.3l-1.19-.59c-.2-.1-.5-.2-.69-.2-.3.1-.7.2-.9.4l-9.02 8.24c-.3.3-.4.69-.4 1.09v8.13h-11.4s11-11.9 22.71-27.58c.4-.5.5-.99.5-1.39 0-.5-.2-.89-.3-.99l-2.18-2.18c-.2-.2-.6-.4-1-.4H234.5c-.79 0-1.29.6-1.38 1.2 0 0-.5 7.33-3.08 15.37a58.75 58.75 0 0 1-8.13 16.67s-.3.5-.3 1.09c0 .2 0 .4.1.6.4.69.99 1.78.99 1.78s.2.6 1.1.6h17.05"/>
	<path d="M2332.98 513.67c-.1-.1-.3-.3-.6-.7l-11.4-14.08c-.1-.1-.2-.4-.2-.6 0-.3.1-.69.2-.89l10.12-15.27c.1-.2.2-.5.2-.7v-.9c0-.29-.1-.59-.3-.79l-16.07-21.72s-.4-.6-1-.6c-.3 0-.5 0-.79.3-.4.3-.5.7-.5 1 0 .59.3 1.09.3 1.09l7.54 10.31c.2.3.3.7.3 1.2 0 .39-.1.89-.3 1.18l-10.02 15.28c-.1.2-.2.6-.2.8v.89c0 .3.1.6.3.79l11.11 13.79a9.1 9.1 0 0 0-11.5 8.93c0 1.39.3 2.77 1.09 3.87 2.08 3.17 9.52 12.6 9.52 12.6s.5.59 1.19.59c.2 0 .4 0 .6-.2.5-.4.69-.8.69-1.19 0-.4-.2-.7-.3-.9-.3-.49-3.47-6.24-3.47-6.24s-.7-1.4-.7-3.18a5.6 5.6 0 0 1 5.56-5.75 6 6 0 0 1 3.17.9l3.87 2.47s.4.2.8.2.7-.1.99-.5c.2-.3.3-.59.3-.89 0-.3-.1-.5-.3-.8l-.2-.29M2264.12 477.07c-.1 0-.3-.1-.4-.1-.6 0-1.09.3-1.29.8-2.28 4.55-7.04 10.7-12.4 11.7a7.07 7.07 0 0 0-5.26-11.8 7.1 7.1 0 0 0-7.14 7.03c0 5.36 5.26 7.84 9.92 7.84 5.26 0 8.73-2.48 12.1-6.15l-11.3 35.32 2.68.79 13.88-43.75c.1-.1.1-.3.1-.5 0-.49-.3-.89-.89-1.18M396.68 577.95c.1-.2.1-.3.1-.5 0-.49-.3-.99-.9-1.18-.2-.1-.39-.1-.49-.1-.6 0-1 .3-1.29.8-2.38 4.75-6.35 10.1-11.8 11.5a7.01 7.01 0 0 0 1.68-4.76c0-3.87-3.47-6.85-7.34-6.85a7.3 7.3 0 0 0-6.84 7.34c.2 5.56 5.55 7.44 10.21 7.44 4.96-.2 8.83-2.68 11.8-6.54l-4.45 15.77c-1.4 4.76-7.05 11.1-12.1 12.4a7.75 7.75 0 0 0 1.68-4.76c0-3.97-3.37-6.85-7.24-6.85-3.97 0-6.95 3.37-6.95 7.34a6.86 6.86 0 0 0 4.67 6.35c1.88.8 3.57 1 5.55 1 4.96-.1 8.83-2.69 11.8-6.55L374.67 646l2.68.7 19.34-68.75M526.05 577.95c.1-.2.1-.3.1-.5 0-.49-.3-.99-.9-1.18-.2-.1-.39-.1-.49-.1-.6 0-.99.3-1.29.8-2.38 4.75-6.35 10.1-11.8 11.5a7.01 7.01 0 0 0 1.68-4.76c0-3.87-3.47-6.85-7.34-6.85a7.3 7.3 0 0 0-6.84 7.34c.2 5.56 5.55 7.44 10.22 7.44 4.96-.2 8.82-2.68 11.8-6.54l-4.46 15.77c-1.4 4.76-7.05 11.1-12.1 12.4a7.75 7.75 0 0 0 1.68-4.76c0-3.97-3.37-6.85-7.24-6.85-3.97 0-6.95 3.37-6.95 7.34a6.86 6.86 0 0 0 4.67 6.35c1.88.8 3.57 1 5.55 1 4.96-.1 8.83-2.69 11.8-6.55L504.04 646l2.68.7 19.34-68.75M622.76 577.95c.1-.2.1-.3.1-.5 0-.49-.3-.99-.9-1.18-.2-.1-.4-.1-.5-.1-.59 0-.99.3-1.28.8-2.38 4.75-6.35 10.1-11.8 11.5a7.01 7.01 0 0 0 1.68-4.76c0-3.87-3.47-6.85-7.34-6.85a7.3 7.3 0 0 0-6.85 7.34c.2 5.56 5.56 7.44 10.22 7.44 4.96-.2 8.83-2.68 11.8-6.54l-4.46 15.77c-1.39 4.76-7.04 11.1-12.1 12.4a7.75 7.75 0 0 0 1.69-4.76c0-3.97-3.38-6.85-7.25-6.85-3.96 0-6.94 3.37-6.94 7.34a6.86 6.86 0 0 0 4.66 6.35c1.89.8 3.57 1 5.56 1 4.96-.1 8.83-2.69 11.8-6.55L600.73 646l2.68.7 19.35-68.75M752.13 577.95c.1-.2.1-.3.1-.5 0-.49-.3-.99-.9-1.18-.2-.1-.39-.1-.49-.1-.6 0-1 .3-1.29.8-2.38 4.75-6.35 10.1-11.8 11.5a7.01 7.01 0 0 0 1.68-4.76c0-3.87-3.47-6.85-7.34-6.85a7.3 7.3 0 0 0-6.84 7.34c.2 5.56 5.55 7.44 10.21 7.44 4.96-.2 8.83-2.68 11.8-6.54l-4.45 15.77c-1.4 4.76-7.05 11.1-12.1 12.4a7.75 7.75 0 0 0 1.68-4.76c0-3.97-3.37-6.85-7.24-6.85-3.97 0-6.95 3.37-6.95 7.34a6.86 6.86 0 0 0 4.67 6.35c1.88.8 3.57 1 5.55 1 4.96-.1 8.83-2.69 11.8-6.55L730.12 646l2.68.7 19.34-68.75M974.39 577.95c.1-.2.1-.3.1-.5 0-.49-.3-.99-.9-1.18-.2-.1-.39-.1-.49-.1-.6 0-1 .3-1.29.8-2.38 4.75-6.35 10.1-11.8 11.5a7.01 7.01 0 0 0 1.68-4.76c0-3.87-3.47-6.85-7.34-6.85a7.3 7.3 0 0 0-6.84 7.34c.2 5.56 5.55 7.44 10.21 7.44 4.96-.2 8.83-2.68 11.8-6.54l-4.45 15.77c-1.4 4.76-7.05 11.1-12.1 12.4a7.75 7.75 0 0 0 1.68-4.76c0-3.97-3.37-6.85-7.24-6.85-3.97 0-6.95 3.37-6.95 7.34a6.86 6.86 0 0 0 4.67 6.35c1.88.8 3.57 1 5.55 1 4.96-.1 8.83-2.69 11.8-6.55L952.38 646l2.68.7 19.34-68.75M845.02 577.95c.1-.2.1-.3.1-.5 0-.49-.3-.99-.9-1.18-.2-.1-.39-.1-.49-.1-.6 0-1 .3-1.29.8-2.38 4.75-6.35 10.1-11.8 11.5a7.01 7.01 0 0 0 1.68-4.76c0-3.87-3.47-6.85-7.34-6.85a7.3 7.3 0 0 0-6.84 7.34c.2 5.56 5.55 7.44 10.21 7.44 4.96-.2 8.83-2.68 11.8-6.54l-4.45 15.77c-1.4 4.76-7.05 11.1-12.1 12.4a7.75 7.75 0 0 0 1.68-4.76c0-3.97-3.37-6.85-7.24-6.85-3.97 0-6.95 3.37-6.95 7.34a6.86 6.86 0 0 0 4.67 6.35c1.88.8 3.57 1 5.55 1 4.96-.1 8.83-2.69 11.8-6.55L823 646l2.68.7 19.34-68.75"/>
	<path d="M1843.91 63.67c-2.68 0-5.85 1.5-5.85 4.47 0 2.87 1.78 4.46 4.07 4.46 2.18 0 2.67-1.49 4.76-1.49 1.88 0 2.97 1.5 2.97 4.27v.1a4.36 4.36 0 0 1-4.36 4.46c-2.88 0-4.46-.8-7.04-3.07l-10.32-9.72a12 12 0 0 0-8.53-3.48c-5.66 0-12 3.87-12 11.31 0 7.05 3.96 11.7 9.02 11.7 2.68 0 5.76-1.48 5.76-4.46 0-2.87-1.79-4.46-4.07-4.46-2.18 0-2.68 1.49-4.76 1.49-1.89 0-2.98-1.49-2.98-4.27v-.1a4.45 4.45 0 0 1 4.46-4.46c2.88 0 4.37.8 6.95 3.07l10.41 9.73c2.48 2.28 5.06 3.47 8.44 3.47 5.65 0 12-3.87 12-11.31 0-7.04-3.87-11.7-8.93-11.7M779.78 484.83c.79.7 1.78 1.1 2.77 1.1 1 0 1.99-.4 2.78-1.1a4.01 4.01 0 0 0 0-5.55 3.8 3.8 0 0 0-2.78-1.1c-.99 0-1.98.3-2.77 1.1a4.01 4.01 0 0 0 0 5.55M553.7 484.83c.79.7 1.78 1.1 2.77 1.1 1 0 1.99-.4 2.78-1.1a4.01 4.01 0 0 0 0-5.55 3.8 3.8 0 0 0-2.78-1.1c-.99 0-1.98.3-2.78 1.1a4.01 4.01 0 0 0 0 5.55M326.97 484.83c.8.7 1.78 1.1 2.78 1.1.99 0 1.98-.4 2.77-1.1a4.01 4.01 0 0 0 0-5.55 3.8 3.8 0 0 0-2.77-1.1c-1 0-1.99.3-2.78 1.1a4.01 4.01 0 0 0 0 5.55"/>
	<path d="M1053.07 47.62a5.38 5.38 0 0 0-5.14 5.15c0 5.14 3.46 8.02 8.02 8.02 3.16 0 5.44-1 7.92-3.47 4.35-4.36 9.1-19.1 11.48-27.52a463.6 463.6 0 0 1 2.47-8.52v-.2h7.13c.6 0 1-.39 1-.98v-2.18c0-.6-.4-1-1-1h-5.84v-.29c2.77-10.1 3.57-11.88 5.05-13.07.8-.59 1.5-.79 1.98-.79.2 0 .4.1.5.1.6.1 1.08.7 1.08 1.29 0 .5-.19.99-.59 1.19a4.35 4.35 0 0 0-1.48 3.46c0 .5.1.9.2 1.39.3.89 1.08 1.78 2.07 2.18.4.2 1.1.4 1.78.4a5 5 0 0 0 4.86-5.26c0-4.95-4.46-7.52-8.9-7.52-9.22 0-13.28 9.4-15.76 16.73v.2h-7.52c-.59 0-.99.4-.99.99v2.18c0 .6.4.99 1 .99h6.13v.4c-.99 3.95-1.78 7.32-2.48 10.59a277.9 277.9 0 0 1-2.87 11.98l-.29 1.18c-2.08 8.12-2.68 11-5.05 12.58-.5.3-1.09.5-1.69.5-.49 0-.99-.2-1.38-.5-.4-.3-.5-.6-.5-1.1.1-.39.3-.78.8-.98 1.88-.8 2.47-2.58 2.47-4.16 0-1.39-.89-3.96-4.46-3.96m1.98-28.51a3.09 3.09 0 0 0-1.68 2.67c0 1.09.9 2.77 2.77 2.77 1.88 0 2.58-1.38 2.78-2.37.1-.2.1-.5.1-.8 0-2.27-1.89-5.74-7.63-5.74-6.63 0-9.6 4.36-9.6 8.22a6.4 6.4 0 0 0 3.46 5.94c1.2.7 2.78 1.48 4.46 2.47a3.83 3.83 0 0 1 2.08 3.37c0 .99-1.19 4.36-4.85 4.36-2.87 0-3.57-1-3.57-1.49 0-.1 0-.2.1-.2.3-.2 1.6-.89 1.6-3.26 0-2.58-1.7-3.67-3.18-3.67-1.49 0-3.47 1.1-3.47 4.06 0 4.46 3.37 6.73 8.52 6.73 5.14 0 10.9-2.17 10.9-8.11 0-5.94-5.16-7.43-7.64-8.82-2.47-1.38-2.97-1.98-2.97-3.66 0-1.68 1.88-3.76 4.46-3.76 2.57 0 3.36 1.29 3.36 1.29M323.1 314.75v-1.98h-7.42l5.74-15.94.3.7s.99 2.17 4.35 3.06c.6.2 1.3.2 1.88.2 8.42 0 13.77-11.58 13.77-19.1 0-4.07-2.38-8.92-6.93-8.92-3.07 0-6.14 2.58-7.83 4.26l-.3.3-.19-.4s-2.08-3.76-5.54-4.26h-.3l-.5-.1c-5.64 0-8.21 5.94-9.8 10.5l1.78.89c.4-1.29 1.4-4.46 2.58-6.04.6-.9 1.78-1.68 2.67-1.88h.4c.3 0 .6 0 .79.2.4.3.5.79.5 1.48 0 2.38-1.79 6.73-2.28 7.72l-9.8 27.33h-6.04v1.98h22.17m2.78-17.33c-.2 0-.6 0-.8-.1-1.48-.59-1.88-2.37-1.88-4.25a24.8 24.8 0 0 1 1.2-6.83c.68-3.07 4.45-10 8.3-10 .2 0 .5 0 .7.1 1.19.3 1.39 2.17 1.39 3.16 0 4.76-3.47 15.65-7.83 17.72-.3.2-.79.2-1.08.2M1053.07 748.85a5.38 5.38 0 0 0-5.14 5.15c0 5.15 3.46 8.02 8.02 8.02 3.16 0 5.44-.99 7.92-3.47 4.35-4.35 9.1-19.1 11.48-27.52.9-3.17 1.78-6.24 2.47-8.5v-.2h7.13c.6 0 1-.4 1-1v-2.18c0-.59-.4-.99-1-.99h-5.84v-.3c2.77-10.09 3.57-11.88 5.05-13.06a3.4 3.4 0 0 1 1.98-.8c.2 0 .4.1.5.1.6.1 1.08.7 1.08 1.3 0 .48-.19.98-.59 1.18a4.34 4.34 0 0 0-1.48 3.46c0 .5.1.9.2 1.4.3.88 1.08 1.77 2.07 2.17.4.2 1.1.4 1.78.4a5 5 0 0 0 4.66-3.57c.2-.5.2-1.09.2-1.68 0-4.95-4.46-7.53-8.9-7.53-9.22 0-13.28 9.41-15.76 16.73v.2h-7.52c-.59 0-.99.4-.99 1v2.17c0 .6.4 1 1 1h6.13v.38c-.99 3.96-1.78 7.33-2.48 10.6-.79 3.66-1.68 7.42-2.87 11.98l-.29 1.18c-2.08 8.12-2.68 11-5.05 12.58-.5.3-1.09.5-1.69.5-.49 0-.99-.2-1.38-.5-.4-.3-.5-.6-.5-1.09.1-.4.3-.79.8-.99 1.88-.79 2.47-2.58 2.47-4.16 0-1.39-.89-3.96-4.46-3.96m1.98-28.5a3.09 3.09 0 0 0-1.68 2.66c0 1.1.9 2.77 2.77 2.77 1.88 0 2.58-1.38 2.78-2.37.1-.2.1-.5.1-.79 0-2.28-1.89-5.75-7.63-5.75-6.63 0-9.6 4.36-9.6 8.22a6.4 6.4 0 0 0 3.46 5.94c1.2.7 2.78 1.5 4.46 2.48 1.68 1 2.08 2.37 2.08 3.36 0 1-1.19 4.36-4.85 4.36-2.87 0-3.57-.99-3.57-1.49 0-.1 0-.2.1-.2.3-.19 1.6-.89 1.6-3.26 0-2.58-1.7-3.67-3.18-3.67-1.49 0-3.47 1.1-3.47 4.06 0 4.46 3.37 6.74 8.52 6.74 5.14 0 10.9-2.18 10.9-8.12 0-5.94-5.16-7.43-7.64-8.8-2.47-1.4-2.97-1.99-2.97-3.68 0-1.68 1.88-3.76 4.46-3.76 2.57 0 3.36 1.3 3.36 1.3M1134.1 747.84v-1.98h-7.44l5.75-15.94.3.7s.98 2.17 4.35 3.06c.6.2 1.3.2 1.88.2 8.42 0 13.76-11.58 13.76-19.1 0-4.07-2.37-8.92-6.93-8.92-3.07 0-6.14 2.58-7.82 4.26l-.3.3-.19-.4s-2.08-3.76-5.55-4.26h-.3l-.49-.1c-5.64 0-8.22 5.94-9.8 10.5l1.78.9c.4-1.3 1.4-4.47 2.57-6.05a5.02 5.02 0 0 1 2.68-1.88h.4c.3 0 .6 0 .8.2.38.3.48.8.48 1.48 0 2.38-1.78 6.73-2.28 7.72l-9.8 27.33h-6.04v1.98h22.18m2.77-17.33c-.2 0-.59 0-.79-.1-1.49-.59-1.88-2.37-1.88-4.25 0-3.07 1.1-6.64 1.2-6.83.68-3.07 4.44-10 8.3-10 .2 0 .5 0 .7.1 1.18.3 1.38 2.17 1.38 3.16 0 4.76-3.46 15.65-7.82 17.72-.3.2-.79.2-1.09.2"/>
	<path d="m796.2 73.17 176.4-6.2v12.4l-176.4 6.2v-12.4M972.6 85.57l-27.29.96v12.4l27.28-.95V85.57M2267.38 97.97l147.54-6.2v12.4l-147.54 6.2v-12.4M1371.98 85.55l75.01 6.2v12.44l-75-6.2V85.55M1553.74 110.35l75.01 6.2V129l-75-6.2v-12.44M1052.11 290.17l365.12-6.2v12.4l-365.12 6.2v-12.4M796.2 447.57l176.4-18.6v12.47l-176.4 18.6v-12.47M972.6 447.57l-27.29 2.88v12.47l27.28-2.88v-12.47M2025.62 472.4l123.36-6.2v12.41l-123.36 6.2v-12.4M2098.15 487.35l50.83-2.55v12.41l-50.83 2.56v-12.42M1371.98 447.59l75.01-6.2v12.44l-75 6.2v-12.44M1553.74 429h365.12v12.4h-365.12V429M766.45 689.37l127.4 12.4v12.46l-127.4-12.4v-12.46M766.45 670.77l127.4 12.4v12.46l-127.4-12.4v-12.46M1052.11 652.18l365.12-31v12.45l-365.12 31v-12.45M540.38 683.2l131.2 6.2v12.41l-131.2-6.2v-12.4M540.38 664.6l131.2 6.2v12.41l-131.2-6.2v-12.4M1524 645.98l75 6.2v12.45l-75-6.2v-12.45M313.65 701.8l131.85-6.2v12.41l-131.85 6.2v-12.4M313.65 683.2 445.5 677v12.41l-131.85 6.2v-12.4" fill-rule="evenodd"/>
	<path d="M2194.85 145.29c0 .3.1.9.8 1.1 4.26 1.38 12.8 6.74 19.24 17.75 1.79 3.07 4.67 7.34 4.67 15.57 0 7.15-1.79 14.49-4.47 21.63-.2.6-.3 1.09-.3 1.49 0 .7.4.99 1.1.99.59 0 1.09-.4 1.48-1.1 4.47-7.93 6.15-17.15 6.15-26.18-.5-12.8-7.83-22.22-7.83-22.22.3 0-9.13-12.2-11.8-16.37-3.68-5.65-5.36-11.3-5.56-11.7-.1-.3-1-3.87-1-3.87-.1-.4-.6-.8-1.19-.8-.69 0-1.29.6-1.29 1.3v22.41M2194.85 488.72c0 .3.1.9.8 1.1 4.26 1.38 12.8 6.74 19.24 17.75 1.79 3.08 4.67 7.34 4.67 15.57 0 7.15-1.79 14.49-4.47 21.63-.2.6-.3 1.1-.3 1.49 0 .7.4.99 1.1.99.59 0 1.09-.4 1.48-1.1 4.47-7.93 6.15-17.15 6.15-26.18-.5-12.8-7.83-22.22-7.83-22.22.3 0-9.13-12.2-11.8-16.37-3.68-5.65-5.36-11.3-5.56-11.7-.1-.3-1-3.87-1-3.87-.1-.4-.6-.8-1.19-.8-.69 0-1.29.6-1.29 1.3v22.41"/>
	<path d="M325.9 49.67c-5.25 0-9.05 3.2-9.05 7.55 0 2.15 1.25 3.95 3.45 5.1.8.4 1.8.85 3.9 1.7 2.85 1.15 3.55 1.85 3.55 3.6 0 2.7-2.25 4.4-5.7 4.4-2.55 0-4.35-.7-4.35-1.7 0-.25.15-.55.35-.75.95-1 1.05-1.25 1.05-2.15 0-1.4-1.1-2.5-2.55-2.5-1.65 0-2.9 1.4-2.9 3.35 0 3.5 3.1 5.65 8.15 5.65 5.75 0 9.7-3.15 9.7-7.7 0-2-.9-3.7-2.5-4.8-1.1-.75-1.6-.95-4.35-1.95-3.25-1.15-4.1-1.95-4.1-3.9 0-2.3 2.2-4 5.1-4 1.95 0 3.25.55 3.25 1.35 0 .2-.1.45-.25.7-.7 1-.8 1.25-.8 2 0 1.35 1.05 2.3 2.6 2.3 1.7 0 2.85-1.25 2.85-3.05 0-3.05-3.05-5.2-7.4-5.2m22.73-7.55h-4.35l-2.45 8.3h-4.7l-.7 2.35h4.7l-3.75 12.6c-.75 2.55-.95 3.6-.95 4.75 0 2.15 1.55 3.8 3.6 3.8 2.35 0 5.15-1.55 6.9-3.9.7-.95 1.2-1.75 2.5-3.85l-1.5-1c-3.15 4.75-4.55 6.1-6.2 6.1-.7 0-1.15-.55-1.15-1.4 0-.4.05-.75.15-1.15l4.75-15.95h5.45l.7-2.35h-5.45l2.45-8.3m23.6 8.3-1.35 4.5c-.35-3.1-2.85-5.25-6.1-5.25-7.55 0-12.3 9.5-12.3 16.1 0 4.9 2.95 8.15 7.4 8.15 3.15 0 5.1-1.25 7.6-4.85-.2.75-.25 1.1-.25 1.6 0 1.95 1.25 3.25 3.05 3.25 4 0 6.8-4.55 8.3-7.8l-1.55-.85c-1.9 3.85-3.65 5.9-4.95 5.9-.6 0-1.05-.55-1.05-1.25 0-.55.2-1.4.55-2.7l5-16.8h-4.35m-6.6 2c2.35 0 3.8 1.65 3.8 4.45 0 2.9-1 6.85-2.55 10-1.55 3.1-3.35 4.5-5.85 4.5-2.5 0-4-1.85-4-4.9 0-4.5 2.8-14.05 8.6-14.05m32.54 14.15c-2.5 3.25-5.15 4.95-7.55 4.95-2.95 0-4.65-2.15-4.65-5.95 0-4.75 2.85-14 8.85-14 1.6 0 3.2.8 3.2 1.65 0 .3-.25.55-.8.75-1.35.6-1.85 1.2-1.85 2.4 0 1.45 1.1 2.45 2.65 2.45 1.8 0 3.15-1.6 3.15-3.75 0-3-2.9-5.4-6.5-5.4-7 0-13.3 7.2-13.3 15.25 0 5.45 3.35 9 8.6 9 3.75 0 7-2.1 9.65-6.25l-1.45-1.1m21.69 0c-2.5 3.25-5.15 4.95-7.55 4.95-2.95 0-4.65-2.15-4.65-5.95 0-4.75 2.85-14 8.85-14 1.6 0 3.2.8 3.2 1.65 0 .3-.25.55-.8.75-1.35.6-1.85 1.2-1.85 2.4 0 1.45 1.1 2.45 2.65 2.45 1.8 0 3.15-1.6 3.15-3.75 0-3-2.9-5.4-6.5-5.4-7 0-13.3 7.2-13.3 15.25 0 5.45 3.35 9 8.6 9 3.75 0 7-2.1 9.65-6.25l-1.45-1.1m24.53-16.15-1.35 4.5c-.35-3.1-2.85-5.25-6.1-5.25-7.55 0-12.3 9.5-12.3 16.1 0 4.9 2.95 8.15 7.4 8.15 3.15 0 5.1-1.25 7.6-4.85-.2.75-.25 1.1-.25 1.6 0 1.95 1.25 3.25 3.05 3.25 4 0 6.8-4.55 8.3-7.8l-1.55-.85c-1.9 3.85-3.65 5.9-4.95 5.9-.6 0-1.05-.55-1.05-1.25 0-.55.2-1.4.55-2.7l5-16.8h-4.35m-6.6 2c2.35 0 3.8 1.65 3.8 4.45 0 2.9-1 6.85-2.55 10-1.55 3.1-3.35 4.5-5.85 4.5-2.5 0-4-1.85-4-4.9 0-4.5 2.8-14.05 8.6-14.05m28.14-10.3h-4.35l-2.45 8.3h-4.7l-.7 2.35h4.7l-3.75 12.6c-.75 2.55-.95 3.6-.95 4.75 0 2.15 1.55 3.8 3.6 3.8 2.35 0 5.15-1.55 6.9-3.9.7-.95 1.2-1.75 2.5-3.85l-1.5-1c-3.15 4.75-4.55 6.1-6.2 6.1-.7 0-1.15-.55-1.15-1.4 0-.4.05-.75.15-1.15l4.75-15.95h5.45l.7-2.35h-5.45l2.45-8.3m17.3 7.55c-3.3 0-6.46 1.5-9.2 4.3-2.8 2.85-4.2 6.4-4.2 10.6 0 5.75 3.44 9.35 8.9 9.35 3.64 0 6.64-1.35 9.1-4.1 2.7-3 4.24-6.95 4.24-10.7 0-5.2-4-9.45-8.85-9.45m-.25 1.9c2.75 0 4.35 2.3 4.35 6.15 0 2.6-1 6.6-2.35 9.35-1.7 3.45-3.55 4.95-6.2 4.95-2.9 0-4.45-1.85-4.45-5.25 0-4.7 2.4-15.2 8.65-15.2m37.7-1.9c-5.26 0-9.06 3.2-9.06 7.55 0 2.15 1.25 3.95 3.45 5.1.8.4 1.8.85 3.9 1.7 2.85 1.15 3.55 1.85 3.55 3.6 0 2.7-2.25 4.4-5.7 4.4-2.55 0-4.35-.7-4.35-1.7 0-.25.15-.55.35-.75.95-1 1.05-1.25 1.05-2.15 0-1.4-1.1-2.5-2.55-2.5-1.65 0-2.9 1.4-2.9 3.35 0 3.5 3.1 5.65 8.15 5.65 5.75 0 9.7-3.15 9.7-7.7 0-2-.9-3.7-2.5-4.8-1.1-.75-1.6-.95-4.35-1.95-3.25-1.15-4.1-1.95-4.1-3.9 0-2.3 2.2-4 5.1-4 1.95 0 3.25.55 3.25 1.35 0 .2-.1.45-.25.7-.7 1-.8 1.25-.8 2 0 1.35 1.05 2.3 2.6 2.3 1.7 0 2.85-1.25 2.85-3.05 0-3.05-3.05-5.2-7.4-5.2m26.94 17.7c-2.95 3.05-5.1 4.2-7.75 4.2-3 0-4.85-2-4.85-5.2 0-.35.05-1.05.1-1.7 5.9-1.4 6.8-1.7 9.1-2.7 3.9-1.7 6-4.25 6-7.15 0-3.05-2.4-5.15-5.95-5.15-7.3 0-13.9 7.4-13.9 15.6 0 5.4 3.25 8.65 8.65 8.65 3.85 0 7.1-1.7 9.8-5.2l-1.2-1.35m-12.25-4.65c1.15-6.75 4.2-11.05 7.9-11.05 1.65 0 2.75 1.15 2.75 2.85 0 2.4-1.55 4.55-4.3 6.05-1.8 1.05-3.05 1.45-6.35 2.15m28.99-13.05-9.1.75-.15 1.8h1.2c2 0 2.8.45 2.8 1.6 0 .45-.15 1.2-.4 2.15l-5.1 17.2h4.35l2.05-7.05c2.25-7.65 6.8-13.45 10.55-13.45 1.3 0 2.1.7 2.1 1.95 0 1-.4 3.1-1 5l-4 13.55h4.35l2.15-7.25c1.25-4.15 2.5-6.95 4.1-9.1 1.8-2.5 4.35-4.15 6.25-4.15 1.25 0 1.95.65 1.95 1.85a12 12 0 0 1-.7 3.2l-2.3 7.1c-1.35 3.9-1.4 4.2-1.4 5.6 0 2.1 1.55 3.5 3.9 3.5 1.65 0 3.25-.8 4.95-2.4 1.05-1 1.75-1.9 3.8-4.9l-1.55-1.05c-2.6 3.9-4.45 5.8-5.75 5.8-.55 0-1.05-.55-1.05-1.25 0-.45.15-1 .6-2.45l3.15-9.7c.35-1.1.6-2.65.6-3.75 0-2.65-1.95-4.55-4.65-4.55-3.55 0-6.75 2.3-9.65 7.05.2-.95.3-1.8.3-2.4 0-2.65-2.1-4.65-4.85-4.65-3.15 0-5.45 1.75-8.95 6.75l1.45-6.75m43.39 0-9.1.75-.2 1.8h1.2c2.05 0 2.85.45 2.85 1.55 0 .5-.15 1.2-.45 2.2l-6.4 21.7c-1 3.6-1.05 3.65-4.45 3.8l-.2 1.8h12l.2-1.8h-.6c-2.4 0-3.2-.3-3.2-1.3 0-.4.2-1.25.55-2.5l2.45-8.15c1.35 3.45 2.65 4.4 5.95 4.4 8.1 0 13-8.8 13-16.1 0-2.45-.5-4.1-1.65-5.55a6.96 6.96 0 0 0-5.25-2.6c-2.55 0-5.2 1.5-7.45 4.25l.75-4.25m5.15 2.65c2.25 0 3.75 1.75 3.75 4.4 0 2.75-.85 6.15-2.35 9.25-1.75 3.75-3.75 5.45-6.4 5.45-2.45 0-4.2-1.95-4.2-4.6 0-4.5 3.55-14.5 9.2-14.5m23.03-2.65-9.05.75-.2 1.8h1.2c2 0 2.9.45 2.9 1.4 0 .35-.2 1.4-.5 2.35l-5.1 17.2h4.35l2.35-7.9c1.85-6.25 6-12.55 8.3-12.55.7 0 .9.35.9 1.7s.85 2.15 2.35 2.15c1.7 0 2.95-1.35 2.95-3.2 0-2.15-1.65-3.7-3.95-3.7-2.8 0-5 1.65-7.65 5.8l1.15-5.8m27.4 17.7c-2.96 3.05-5.1 4.2-7.76 4.2-3 0-4.85-2-4.85-5.2 0-.35.05-1.05.1-1.7 5.9-1.4 6.8-1.7 9.1-2.7 3.9-1.7 6-4.25 6-7.15 0-3.05-2.4-5.15-5.95-5.15-7.3 0-13.9 7.4-13.9 15.6 0 5.4 3.25 8.65 8.65 8.65 3.85 0 7.1-1.7 9.8-5.2l-1.2-1.35m-12.25-4.65c1.15-6.75 4.2-11.05 7.9-11.05 1.65 0 2.75 1.15 2.75 2.85 0 2.4-1.55 4.55-4.3 6.05-1.8 1.05-3.05 1.45-6.35 2.15"/>
	<path d="m2237.63 48.37 197.25 14.26M2237.63 48.37l197.25-14.26M1052.11 368.98l410.37 14.26M1052.11 368.98l410.37-14.26M766.45 363.73 990.6 378M766.45 363.73l224.15-14.26" fill="none" stroke="#000" stroke-miterlimit="2" stroke-width="2.98"/>
	<path d="M811.08 234.37a4.91 4.91 0 0 0 4.96 4.96 4.91 4.91 0 0 0 4.96-4.96 4.91 4.91 0 0 0-4.96-4.96 4.91 4.91 0 0 0-4.96 4.96M811.08 184.77a4.91 4.91 0 0 0 4.96 4.96 4.91 4.91 0 0 0 4.96-4.96 4.91 4.91 0 0 0-4.96-4.96 4.91 4.91 0 0 0-4.96 4.96M811.08 534.4a4.91 4.91 0 0 0 4.96 4.96 4.91 4.91 0 0 0 4.96-4.96 4.91 4.91 0 0 0-4.96-4.96 4.91 4.91 0 0 0-4.96 4.96M2040.5 633.6a4.91 4.91 0 0 0 4.96 4.96 4.91 4.91 0 0 0 4.96-4.96 4.91 4.91 0 0 0-4.96-4.96 4.91 4.91 0 0 0-4.96 4.96"/>
	<path d="M3.6 347.19c6.47-9.47 19.05-28.91 19.05-64.8 0-45.36-14.02-91.21-14.02-119.63 0-30.4 12.59-58.81 13.3-59.8v-1c0-.5 0-1-.35-1.5-.36 0-1.08 0-1.44 1-.36.5-19.78 27.41-19.78 68.28 0 43.87 12.59 74.77 12.59 132.09 0 10.96-3.24 28.4-12.23 43.86-.36 0-.36 1-.72 1.5 0 .5.36 1 .72 1.5 8.99 15.44 12.23 32.89 12.23 43.85 0 57.32-12.59 88.23-12.59 132.09 0 40.37 19.42 67.79 19.78 68.28.36 1 1.08 1.5 1.44 1 .36-.5.72-1 .36-1.5v-.99c-.72-1-13.31-29.4-13.31-59.81 0-28.41 14.02-74.27 14.02-119.63 0-36.38-12.58-55.32-19.05-64.8"/>
</svg>
