<?xml version="1.0" encoding="utf-8"?>
<svg xmlns="http://www.w3.org/2000/svg" xmlns:svg="http://www.w3.org/2000/svg" version="1.1" viewBox="0 0 2977 4210">
  <title>A score for the first four bars of Beethoven’s second Sonata (Op. 2, No. 2). The work is scored for piano, and increases gradually in pitch and volume over the bars.</title>
  <path fill="none" stroke="#000" stroke-linejoin="bevel" stroke-width="2.7" d="M158.5 173.6h2817.9M158.5 198.4h2817.9M158.5 223.2h2817.9M158.5 248h2817.9M158.5 272.8h2817.9M158.5 555.5h2817.9M158.5 580.3h2817.9M158.5 605.1h2817.9M158.5 629.9h2817.9M158.5 654.7h2817.9"/>
  <path fill-rule="evenodd" stroke="#000" stroke-linecap="round" stroke-linejoin="round" stroke-width="1.7" d="M1290.7 747.1c86 46.7 329.5 24.3 405.6-37.2-75.5 68.5-318.9 90.8-405.6 37.2M1711.1 686.6c50.8 87.7 210.2 92.1 265.7 7.3-55.7 91.7-215.1 87.3-265.7-7.3M1005.9 481.6c45.1-50.2 144-59.5 197.6-18.6-53-34-151.8-24.7-197.6 18.6M1329 545.6c68.8-74.1 306.9-116.3 396.9-70.2-88.8-39.2-327 3-396.9 70.2M1843.7 456.8c85.7-62.4 342.8-62.4 428.5 0-85.7-55.4-342.8-55.4-428.5 0M2499.2 519.7a37.8 37.8 0 0160-7.1c-16.6-11.3-46.5-7.7-60 7.1"/>
  <path fill-rule="evenodd" stroke="#000" stroke-linecap="round" stroke-linejoin="round" stroke-width="1.7" d="M1290.7 402.4c82 53 325.3 49.3 405.6-6.2-80.1 62.4-323.5 66.1-405.6 6.2M991.1 344.8c67.9 12 166.7-37.7 197.6-99.2-27.8 67.7-126.6 117.3-197.6 99.2M1329 201c71.5-70.8 309.6-101.8 396.9-51.7-86.4-43.2-324.5-12.2-396.9 51.6M1829 307.6c66.7 53 272.4 60.4 342.8 12.4-70.7 55-276.4 47.5-342.9-12.4M2388.6 357.2c51.6 43.6 159.5 49.8 215.8 12.4-56.7 44.4-164.6 38.2-215.8-12.4M2700.3 295.2c52.8 31.7 148.8 19.3 191.8-24.8-42.2 51-138 63.4-191.8 24.8"/>
  <path fill-rule="evenodd" stroke="#000" stroke-linecap="round" stroke-linejoin="round" stroke-width="1.7" d="M2020.3 652c26.3 16.5 105.2 16.5 131.5 0-26.3 23.5-105.2 23.5-131.5 0M2191.7 652c37.2 24.7 148.5 24.7 185.6 0-37.1 31.7-148.5 31.7-185.6 0"/>
  <path stroke="#000" stroke-linejoin="bevel" stroke-width="4.5" d="M160.7 554.2v101.9M1246.2 554.2v101.9M1778.3 554.2v101.9M2329.3 554.2v101.9M2974.2 554.2v101.9M160.7 172.3v383.2M1246.2 172.3v383.2M1778.3 172.3v383.2M2329.3 172.3v383.2M2974.2 172.3v383.2"/>
  <path d="M2868.7 237.5c.6 0 1.1-.8 1.1-1.4v-5.8c0-.8-.6-1.4-1.4-1.4h-.2l-3.3.7v-14.8h-2.7v15.4l-8.9 1.8v-14h-2.7v14.6l-4 .7c-.5.1-1 .8-1 1.4v6-.2c0 .8.6 1.4 1.4 1.4h.3l3.3-.7v16.4l-4 .7c-.5.1-1 .8-1 1.4v5.8c0 .8.6 1.4 1.4 1.4h.3l3.3-.7V281h2.7v-15.4l8.9-1.8v14h2.7v-14.6l3.8-.7c.6 0 1.1-.8 1.1-1.4v-5.8c0-.8-.6-1.4-1.4-1.4h-.2l-3.3.7v-16.4l3.8-.7m-15.4 19.6v-16.5l8.9-1.8v16.4l-8.9 1.9"/>
  <path stroke="#000" stroke-linejoin="bevel" stroke-width="4" d="M439.4 679.5H489M571.1 679.5h49.6M834.6 679.5h49.6M1098.1 679.5h49.6M2363.8 679.5h49.5M439.4 322.4H489M439.4 297.6H489M702.9 322.4h49.6M702.9 297.6h49.6M966.3 322.4h49.6M966.3 297.6h49.6M1280.7 297.6h49.6M1361.8 297.6h49.6M1686.3 297.6h49.6M1889.8 297.6h49.7M2147 297.6h49.6M2363.8 322.4h79.1M2363.8 297.6h79.1M2579.6 347.2h49.6M2579.6 322.4h49.6M2579.6 297.6h49.6"/>
  <path stroke="#000" stroke-linejoin="bevel" stroke-width="2.7" d="M449.4 695.3v83.4M581.2 682.9v89.6M712.9 670.5v77.2M844.6 682.9v71M976.4 670.5v83.4M1108.1 695.3v77.2M1290.7 658.1v64.8M1371.8 645.7v69.8M1453 633.3v74.8M1534.1 620.9v79.7M1615.2 608.5v84.7M1696.3 596.1v89.6M1814.2 583.7v120.6M1899.9 658.1v71M1985.6 645.7v64.8M2157 645.7v64.8M2373.8 695.3v52.4M478.9 602v-74.4M742.4 602v-74.4M1005.9 602v-96.1M1203.5 564.7v-77.4M1320.2 564.7v-65M1644.7 577.1v-71.2M1725.9 564.7v-65M1843.7 577.1v-96M1929.4 564.7v-83.6M2015.1 577.1v-96M2100.8 552.3v-71.2M2186.5 564.7v-83.6M2272.2 552.3v-71.2M2403.3 639.2v-83.7M2499.2 626.8v-82.7M2559.2 614.4v-77.5M2619.1 602v-74.4M1290.7 313.4v64.8M1371.8 301v76M1453 288.6v87.2M1534.1 276.2v98.3M1615.2 263.8v109.5M1696.3 301v71M478.9 319.3V173.6M742.4 319.3V173.6M1005.9 319.3V173.6M1203.5 220.1v-71.3M1320.2 220.1v-74.4M1644.7 232.5v-65.1M1725.9 244.9v-71.3M1843.7 282.1v-89.9M1929.4 306.9V198.4M2015.1 282.1v-83.7M2186.5 294.5v-83.7M2403.3 331.7V186M2619.1 344.1V198.4M2715 269.7v-71.3M2810.9 257.3V186M2906.9 244.9v-71.3"/>
  <path d="M479.3 683.9c-1.8-3.3-5.5-5-10.1-5-3.4 0-7 1-10.6 2.8-6.6 3.5-10.5 9.3-10.5 14.4 0 1.4.3 2.8 1 4 1.7 3.3 5.5 5 10 5 3.5 0 7.1-.9 10.7-2.7 6.5-3.5 10.5-9.4 10.5-14.4 0-1.4-.3-2.8-1-4.1M611 671.5c-1.7-3.3-5.5-5-10-5-3.4 0-7.1 1-10.7 2.8-6.5 3.5-10.5 9.3-10.5 14.4 0 1.4.3 2.8 1 4 1.8 3.3 5.6 5 10.1 5 3.4 0 7-.9 10.6-2.7 6.6-3.5 10.5-9.4 10.5-14.4 0-1.4-.2-2.8-1-4.1M742.8 659.1c-1.8-3.3-5.6-5-10.1-5-3.4 0-7 1-10.6 2.8-6.6 3.5-10.6 9.3-10.6 14.4 0 1.4.3 2.8 1 4 1.8 3.3 5.6 5 10.2 5 3.3 0 7-.9 10.6-2.7 6.5-3.5 10.5-9.4 10.5-14.4 0-1.4-.3-2.8-1-4.1M874.5 671.5c-1.7-3.3-5.5-5-10-5-3.5 0-7.1 1-10.7 2.8-6.5 3.5-10.5 9.3-10.5 14.4 0 1.4.3 2.8 1 4 1.8 3.3 5.5 5 10.1 5 3.4 0 7-.9 10.6-2.7 6.6-3.5 10.5-9.4 10.5-14.4 0-1.4-.3-2.8-1-4.1M1006.3 659.1c-1.8-3.3-5.6-5-10.1-5-3.4 0-7 1-10.7 2.8-6.5 3.5-10.5 9.3-10.5 14.4 0 1.4.3 2.8 1 4 1.8 3.3 5.6 5 10.1 5 3.4 0 7-.9 10.7-2.7 6.5-3.5 10.5-9.4 10.5-14.4 0-1.4-.3-2.8-1-4.1M1138 683.9c-1.8-3.3-5.5-5-10.1-5-3.4 0-7 1-10.6 2.8-6.6 3.5-10.5 9.3-10.5 14.4 0 1.4.3 2.8 1 4 1.7 3.3 5.5 5 10 5 3.4 0 7.1-.9 10.7-2.7 6.5-3.5 10.5-9.4 10.5-14.4 0-1.4-.3-2.8-1-4.1M1320.6 646.7c-1.8-3.3-5.6-5-10.1-5-3.4 0-7 1-10.6 2.8-6.6 3.5-10.6 9.3-10.6 14.4 0 1.4.3 2.8 1 4 1.8 3.3 5.6 5 10.2 5 3.3 0 7-.9 10.6-2.8 6.5-3.4 10.5-9.3 10.5-14.3 0-1.4-.3-2.8-1-4.1M1401.7 634.3c-1.8-3.3-5.5-5-10.1-5-3.4 0-7 1-10.6 2.8-6.6 3.5-10.5 9.3-10.5 14.4 0 1.4.3 2.8 1 4 1.7 3.3 5.5 5 10 5 3.5 0 7.1-.9 10.7-2.8 6.5-3.4 10.5-9.3 10.5-14.3 0-1.4-.3-2.8-1-4.1M1482.9 621.9c-1.8-3.3-5.6-5-10.2-5-3.3 0-7 1-10.6 2.8-6.5 3.5-10.5 9.3-10.5 14.4 0 1.4.3 2.8 1 4 1.8 3.3 5.5 5 10.1 5 3.4 0 7-.9 10.6-2.8 6.6-3.4 10.5-9.3 10.5-14.3 0-1.4-.3-2.8-1-4.1M1564 609.5c-1.8-3.3-5.6-5-10.1-5-3.4 0-7 1-10.7 2.8-6.5 3.5-10.5 9.3-10.5 14.4 0 1.4.3 2.8 1 4 1.8 3.3 5.6 5 10.1 5 3.4 0 7-.9 10.7-2.8 6.5-3.4 10.5-9.3 10.5-14.3 0-1.4-.3-2.8-1-4.1M1645.1 597c-1.8-3.2-5.5-5-10.1-5-3.4 0-7 1-10.6 3-6.6 3.4-10.5 9.2-10.5 14.3 0 1.4.3 2.8 1 4 1.7 3.3 5.5 5 10 5 3.4 0 7.1-.9 10.7-2.8 6.5-3.4 10.5-9.3 10.5-14.3 0-1.4-.3-2.8-1-4.1M1726.2 584.7c-1.7-3.3-5.5-5-10-5-3.5 0-7.1 1-10.7 2.8-6.5 3.5-10.5 9.3-10.5 14.4 0 1.4.3 2.8 1 4 1.8 3.3 5.5 5 10.1 5 3.4 0 7-.9 10.6-2.8 6.6-3.4 10.5-9.3 10.5-14.3 0-1.4-.3-2.8-1-4.1M1844 572.3c-1.7-3.3-5.5-5-10-5-3.4 0-7 1-10.7 2.8-6.5 3.5-10.5 9.3-10.5 14.4 0 1.4.3 2.8 1 4 1.8 3.3 5.6 5 10.1 5 3.4 0 7-.9 10.7-2.8 6.5-3.4 10.5-9.3 10.5-14.3 0-1.4-.3-2.8-1-4.1M1929.8 646.7c-1.8-3.3-5.6-5-10.1-5-3.4 0-7 1-10.7 2.8-6.5 3.5-10.5 9.3-10.5 14.4 0 1.4.3 2.8 1 4 1.8 3.3 5.6 5 10.1 5 3.4 0 7-.9 10.7-2.8 6.5-3.4 10.5-9.3 10.5-14.3 0-1.4-.3-2.8-1-4.1M2015.5 634.3c-1.8-3.3-5.6-5-10.1-5-3.4 0-7 1-10.7 2.8-6.5 3.5-10.5 9.3-10.5 14.4 0 1.4.3 2.8 1 4 1.8 3.3 5.6 5 10.1 5 3.4 0 7-.9 10.7-2.8 6.5-3.4 10.5-9.3 10.5-14.3 0-1.4-.3-2.8-1-4.1M2186.9 634.3c-1.8-3.3-5.6-5-10.1-5-3.4 0-7 1-10.6 2.8-6.6 3.5-10.6 9.3-10.6 14.4 0 1.4.3 2.8 1 4 1.8 3.3 5.6 5 10.2 5 3.3 0 7-.9 10.6-2.8 6.5-3.4 10.5-9.3 10.5-14.3 0-1.4-.3-2.8-1-4.1M2403.7 683.9c-1.8-3.3-5.6-5-10.1-5-3.4 0-7 1-10.7 2.8-6.5 3.5-10.5 9.3-10.5 14.4 0 1.4.3 2.8 1 4 1.8 3.3 5.6 5 10.1 5 3.4 0 7-.9 10.7-2.7 6.5-3.5 10.5-9.4 10.5-14.4 0-1.4-.3-2.8-1-4.1m-4.3 6.7c-1.7 1.7-5 3.8-8.6 5.8a38.4 38.4 0 01-11 4.2c-1.6 0-2.8-.6-3.5-2-.3-.4-.5-1-.5-1.6 0-1.1.7-2.4 1.8-3.5 1.7-1.7 5-3.7 8.5-5.7a38.4 38.4 0 0111-4.2c1.6 0 3 .6 3.6 1.9.3.5.4 1 .4 1.7 0 1-.6 2.3-1.7 3.4M479.3 597c-1.8-3.2-5.5-5-10.1-5-3.4 0-7 1-10.6 3-6.6 3.4-10.5 9.2-10.5 14.3 0 1.4.3 2.8 1 4 1.7 3.3 5.5 5 10 5 3.5 0 7.1-.9 10.7-2.8 6.5-3.4 10.5-9.3 10.5-14.3 0-1.4-.3-2.8-1-4.1M742.8 597c-1.8-3.2-5.6-5-10.1-5-3.4 0-7 1-10.6 3-6.6 3.4-10.6 9.2-10.6 14.3 0 1.4.3 2.8 1 4 1.8 3.3 5.6 5 10.2 5 3.3 0 7-.9 10.6-2.8 6.5-3.4 10.5-9.3 10.5-14.3 0-1.4-.3-2.8-1-4.1M1006.3 597c-1.8-3.2-5.6-5-10.1-5-3.4 0-7 1-10.7 3-6.5 3.4-10.5 9.2-10.5 14.3 0 1.4.3 2.8 1 4 1.8 3.3 5.6 5 10.1 5 3.4 0 7-.9 10.7-2.8 6.5-3.4 10.5-9.3 10.5-14.3 0-1.4-.3-2.8-1-4.1M1203.9 559.9c-1.8-3.3-5.6-5-10.1-5-3.4 0-7 1-10.7 2.8-6.5 3.5-10.5 9.3-10.5 14.4 0 1.4.3 2.8 1 4 1.8 3.3 5.6 5 10.1 5 3.4 0 7-.9 10.7-2.8 6.5-3.4 10.5-9.3 10.5-14.3 0-1.4-.3-2.8-1-4.1M1320.6 559.9c-1.8-3.3-5.6-5-10.1-5-3.4 0-7 1-10.6 2.8-6.6 3.5-10.6 9.3-10.6 14.4 0 1.4.3 2.8 1 4 1.8 3.3 5.6 5 10.2 5 3.3 0 7-.9 10.6-2.8 6.5-3.4 10.5-9.3 10.5-14.3 0-1.4-.3-2.8-1-4.1m-4.3 6.7c-1.7 1.7-5 3.8-8.6 5.8a38.4 38.4 0 01-11 4.2c-1.6 0-2.8-.6-3.5-2-.3-.4-.5-1-.5-1.6 0-1.1.7-2.4 1.8-3.5 1.7-1.7 5-3.8 8.5-5.7a38.4 38.4 0 0111-4.2c1.6 0 3 .6 3.6 1.9.3.5.4 1 .4 1.7 0 1-.6 2.2-1.7 3.4"/>
  <path d="M1645.1 572.3c-1.8-3.3-5.5-5-10.1-5-3.4 0-7 1-10.6 2.8-6.6 3.5-10.5 9.3-10.5 14.4 0 1.4.3 2.8 1 4 1.7 3.3 5.5 5 10 5 3.4 0 7.1-.9 10.7-2.8 6.5-3.4 10.5-9.3 10.5-14.3 0-1.4-.3-2.8-1-4.1M1726.2 559.9c-1.7-3.3-5.5-5-10-5-3.5 0-7.1 1-10.7 2.8-6.5 3.5-10.5 9.3-10.5 14.4 0 1.4.3 2.8 1 4 1.8 3.3 5.5 5 10.1 5 3.4 0 7-.9 10.6-2.8 6.6-3.4 10.5-9.3 10.5-14.3 0-1.4-.3-2.8-1-4.1M1844 572.3c-1.7-3.3-5.5-5-10-5-3.4 0-7 1-10.7 2.8-6.5 3.5-10.5 9.3-10.5 14.4 0 1.4.3 2.8 1 4 1.8 3.3 5.6 5 10.1 5 3.4 0 7-.9 10.7-2.8 6.5-3.4 10.5-9.3 10.5-14.3 0-1.4-.3-2.8-1-4.1"/>
  <path d="M1844 547.5c-1.7-3.3-5.5-5-10-5-3.4 0-7 1-10.7 2.8-6.5 3.5-10.5 9.3-10.5 14.4 0 1.4.3 2.8 1 4 1.8 3.3 5.6 5 10.1 5 3.4 0 7-.9 10.7-2.8 6.5-3.4 10.5-9.3 10.5-14.4 0-1.3-.3-2.7-1-4M1929.8 559.9c-1.8-3.3-5.6-5-10.1-5-3.4 0-7 1-10.7 2.8-6.5 3.5-10.5 9.3-10.5 14.4 0 1.4.3 2.8 1 4 1.8 3.3 5.6 5 10.1 5 3.4 0 7-.9 10.7-2.8 6.5-3.4 10.5-9.3 10.5-14.3 0-1.4-.3-2.8-1-4.1M2015.5 572.3c-1.8-3.3-5.6-5-10.1-5-3.4 0-7 1-10.7 2.8-6.5 3.5-10.5 9.3-10.5 14.4 0 1.4.3 2.8 1 4 1.8 3.3 5.6 5 10.1 5 3.4 0 7-.9 10.7-2.8 6.5-3.4 10.5-9.3 10.5-14.3 0-1.4-.3-2.8-1-4.1M2101.2 547.5c-1.8-3.3-5.6-5-10.1-5-3.4 0-7 1-10.7 2.8-6.5 3.5-10.5 9.3-10.5 14.4 0 1.4.3 2.8 1 4 1.8 3.3 5.6 5 10.1 5 3.4 0 7-.9 10.7-2.8 6.5-3.4 10.5-9.3 10.5-14.4 0-1.3-.3-2.7-1-4M2186.9 559.9c-1.8-3.3-5.6-5-10.1-5-3.4 0-7 1-10.6 2.8-6.6 3.5-10.6 9.3-10.6 14.4 0 1.4.3 2.8 1 4 1.8 3.3 5.6 5 10.2 5 3.3 0 7-.9 10.6-2.8 6.5-3.4 10.5-9.3 10.5-14.3 0-1.4-.3-2.8-1-4.1M2272.6 547.5c-1.8-3.3-5.6-5-10.1-5-3.4 0-7 1-10.6 2.8-6.6 3.5-10.6 9.3-10.6 14.4 0 1.4.3 2.8 1 4 1.8 3.3 5.6 5 10.2 5 3.3 0 7-.9 10.6-2.8 6.5-3.4 10.5-9.3 10.5-14.4 0-1.3-.3-2.7-1-4M2403.7 634.3c-1.8-3.3-5.6-5-10.1-5-3.4 0-7 1-10.7 2.8-6.5 3.5-10.5 9.3-10.5 14.4 0 1.4.3 2.8 1 4 1.8 3.3 5.6 5 10.1 5 3.4 0 7-.9 10.7-2.8 6.5-3.4 10.5-9.3 10.5-14.3 0-1.4-.3-2.8-1-4.1M2499.6 621.9c-1.8-3.3-5.6-5-10.1-5-3.4 0-7 1-10.6 2.8-6.6 3.5-10.5 9.3-10.5 14.4 0 1.4.2 2.8 1 4 1.7 3.3 5.5 5 10 5 3.4 0 7.1-.9 10.7-2.8 6.5-3.4 10.5-9.3 10.5-14.3 0-1.4-.3-2.8-1-4.1M2559.6 609.5c-1.8-3.3-5.6-5-10.2-5-3.3 0-7 1-10.6 2.8-6.5 3.5-10.5 9.3-10.5 14.4 0 1.4.3 2.8 1 4 1.8 3.3 5.5 5 10.1 5 3.4 0 7-.9 10.6-2.8 6.6-3.4 10.5-9.3 10.5-14.3 0-1.4-.3-2.8-1-4.1M2619.5 597c-1.8-3.2-5.6-5-10.1-5-3.4 0-7 1-10.6 3-6.6 3.4-10.6 9.2-10.6 14.3 0 1.4.3 2.8 1 4 1.8 3.3 5.6 5 10.2 5 3.3 0 7-.9 10.6-2.8 6.5-3.4 10.5-9.3 10.5-14.3 0-1.4-.3-2.8-1-4.1M1320.6 302c-1.8-3.3-5.6-5-10.1-5-3.4 0-7 1-10.6 2.8-6.6 3.5-10.6 9.3-10.6 14.4 0 1.4.3 2.8 1 4 1.8 3.3 5.6 5 10.2 5 3.3 0 7-.9 10.6-2.7 6.5-3.5 10.5-9.4 10.5-14.4 0-1.4-.3-2.8-1-4.1M1401.7 289.6c-1.8-3.3-5.5-5-10.1-5-3.4 0-7 1-10.6 2.8-6.6 3.5-10.5 9.3-10.5 14.4 0 1.4.3 2.8 1 4 1.7 3.3 5.5 5 10 5 3.5 0 7.1-.9 10.7-2.7 6.5-3.5 10.5-9.4 10.5-14.4 0-1.4-.3-2.8-1-4.1M1482.9 277.2c-1.8-3.3-5.6-5-10.2-5-3.3 0-7 1-10.6 2.8-6.5 3.5-10.5 9.3-10.5 14.4 0 1.4.3 2.8 1 4 1.8 3.3 5.5 5 10.1 5 3.4 0 7-.9 10.6-2.7 6.6-3.5 10.5-9.4 10.5-14.4 0-1.4-.3-2.8-1-4.1M1564 264.8c-1.8-3.3-5.6-5-10.1-5-3.4 0-7 1-10.7 2.8-6.5 3.5-10.5 9.3-10.5 14.4 0 1.4.3 2.8 1 4 1.8 3.3 5.6 5 10.1 5 3.4 0 7-.9 10.7-2.7 6.5-3.5 10.5-9.4 10.5-14.4 0-1.4-.3-2.8-1-4.1M1645.1 252.4c-1.8-3.3-5.5-5-10.1-5-3.4 0-7 1-10.6 2.8-6.6 3.5-10.5 9.3-10.5 14.4 0 1.4.3 2.8 1 4 1.7 3.3 5.5 5 10 5 3.4 0 7.1-.9 10.7-2.7 6.5-3.5 10.5-9.4 10.5-14.4 0-1.4-.3-2.8-1-4.1M1726.2 289.6c-1.7-3.3-5.5-5-10-5-3.5 0-7.1 1-10.7 2.8-6.5 3.5-10.5 9.3-10.5 14.4 0 1.4.3 2.8 1 4 1.8 3.3 5.5 5 10.1 5 3.4 0 7-.9 10.6-2.7 6.6-3.5 10.5-9.4 10.5-14.4 0-1.4-.3-2.8-1-4.1M479.3 314.4c-1.8-3.3-5.5-5-10.1-5-3.4 0-7 1-10.6 2.8-6.6 3.5-10.5 9.3-10.5 14.4 0 1.4.3 2.8 1 4 1.7 3.3 5.5 5 10 5 3.5 0 7.1-.9 10.7-2.7 6.5-3.5 10.5-9.4 10.5-14.4 0-1.4-.3-2.8-1-4.1M479.3 252.4c-1.8-3.3-5.5-5-10.1-5-3.4 0-7 1-10.6 2.8-6.6 3.5-10.5 9.3-10.5 14.4 0 1.4.3 2.8 1 4 1.7 3.3 5.5 5 10 5 3.5 0 7.1-.9 10.7-2.7 6.5-3.5 10.5-9.4 10.5-14.4 0-1.4-.3-2.8-1-4.1M742.8 314.4c-1.8-3.3-5.6-5-10.1-5-3.4 0-7 1-10.6 2.8-6.6 3.5-10.6 9.3-10.6 14.4 0 1.4.3 2.8 1 4 1.8 3.3 5.6 5 10.2 5 3.3 0 7-.9 10.6-2.7 6.5-3.5 10.5-9.4 10.5-14.4 0-1.4-.3-2.8-1-4.1M742.8 252.4c-1.8-3.3-5.6-5-10.1-5-3.4 0-7 1-10.6 2.8-6.6 3.5-10.6 9.3-10.6 14.4 0 1.4.3 2.8 1 4 1.8 3.3 5.6 5 10.2 5 3.3 0 7-.9 10.6-2.7 6.5-3.5 10.5-9.4 10.5-14.4 0-1.4-.3-2.8-1-4.1M1006.3 314.4c-1.8-3.3-5.6-5-10.1-5-3.4 0-7 1-10.7 2.8-6.5 3.5-10.5 9.3-10.5 14.4 0 1.4.3 2.8 1 4 1.8 3.3 5.6 5 10.1 5 3.4 0 7-.9 10.7-2.7 6.5-3.5 10.5-9.4 10.5-14.4 0-1.4-.3-2.8-1-4.1M1006.3 252.4c-1.8-3.3-5.6-5-10.1-5-3.4 0-7 1-10.7 2.8-6.5 3.5-10.5 9.3-10.5 14.4 0 1.4.3 2.8 1 4 1.8 3.3 5.6 5 10.1 5 3.4 0 7-.9 10.7-2.7 6.5-3.5 10.5-9.4 10.5-14.4 0-1.4-.3-2.8-1-4.1M1203.9 215.2c-1.8-3.3-5.6-5-10.1-5-3.4 0-7 1-10.7 2.8-6.5 3.5-10.5 9.3-10.5 14.4 0 1.4.3 2.8 1 4 1.8 3.3 5.6 5 10.1 5 3.4 0 7-.9 10.7-2.8 6.5-3.4 10.5-9.3 10.5-14.3 0-1.4-.3-2.8-1-4.1M1320.6 215.2c-1.8-3.3-5.6-5-10.1-5-3.4 0-7 1-10.6 2.8-6.6 3.5-10.6 9.3-10.6 14.4 0 1.4.3 2.8 1 4 1.8 3.3 5.6 5 10.2 5 3.3 0 7-.9 10.6-2.8 6.5-3.4 10.5-9.3 10.5-14.3 0-1.4-.3-2.8-1-4.1m-4.3 6.7c-1.7 1.7-5 3.8-8.6 5.8a38.4 38.4 0 01-11 4.2c-1.6 0-2.8-.6-3.5-2-.3-.4-.5-1-.5-1.6 0-1.1.7-2.4 1.8-3.5 1.7-1.7 5-3.8 8.5-5.7a38.4 38.4 0 0111-4.2c1.6 0 3 .6 3.6 1.9.3.5.4 1 .4 1.7 0 1-.6 2.2-1.7 3.4"/>
  <path d="M1645.1 227.6c-1.8-3.3-5.5-5-10.1-5-3.4 0-7 1-10.6 2.8-6.6 3.5-10.5 9.3-10.5 14.4 0 1.4.3 2.8 1 4 1.7 3.3 5.5 5 10 5 3.4 0 7.1-.9 10.7-2.8 6.5-3.4 10.5-9.3 10.5-14.3 0-1.4-.3-2.8-1-4.1M1726.2 240c-1.7-3.3-5.5-5-10-5-3.5 0-7.1 1-10.7 2.8-6.5 3.5-10.5 9.3-10.5 14.4 0 1.4.3 2.8 1 4 1.8 3.3 5.5 5 10.1 5 3.4 0 7-.9 10.6-2.8 6.6-3.4 10.5-9.3 10.5-14.3 0-1.4-.3-2.8-1-4.1M1844 277.2c-1.7-3.3-5.5-5-10-5-3.4 0-7 1-10.7 2.8-6.5 3.5-10.5 9.3-10.5 14.4 0 1.4.3 2.8 1 4 1.8 3.3 5.6 5 10.1 5 3.4 0 7-.9 10.7-2.7 6.5-3.5 10.5-9.4 10.5-14.4 0-1.4-.3-2.8-1-4.1"/>
  <path d="M1844 252.4c-1.7-3.3-5.5-5-10-5-3.4 0-7 1-10.7 2.8-6.5 3.5-10.5 9.3-10.5 14.4 0 1.4.3 2.8 1 4 1.8 3.3 5.6 5 10.1 5 3.4 0 7-.9 10.7-2.7 6.5-3.5 10.5-9.4 10.5-14.4 0-1.4-.3-2.8-1-4.1M1929.8 302c-1.8-3.3-5.6-5-10.1-5-3.4 0-7 1-10.7 2.8-6.5 3.5-10.5 9.3-10.5 14.4 0 1.4.3 2.8 1 4 1.8 3.3 5.6 5 10.1 5 3.4 0 7-.9 10.7-2.7 6.5-3.5 10.5-9.4 10.5-14.4 0-1.4-.3-2.8-1-4.1M1929.8 264.8c-1.8-3.3-5.6-5-10.1-5-3.4 0-7 1-10.7 2.8-6.5 3.5-10.5 9.3-10.5 14.4 0 1.4.3 2.8 1 4 1.8 3.3 5.6 5 10.1 5 3.4 0 7-.9 10.7-2.7 6.5-3.5 10.5-9.4 10.5-14.4 0-1.4-.3-2.8-1-4.1M2015.5 277.2c-1.8-3.3-5.6-5-10.1-5-3.4 0-7 1-10.7 2.8-6.5 3.5-10.5 9.3-10.5 14.4 0 1.4.3 2.8 1 4 1.8 3.3 5.6 5 10.1 5 3.4 0 7-.9 10.7-2.7 6.5-3.5 10.5-9.4 10.5-14.4 0-1.4-.3-2.8-1-4.1M2186.9 289.6c-1.8-3.3-5.6-5-10.1-5-3.4 0-7 1-10.6 2.8-6.6 3.5-10.6 9.3-10.6 14.4 0 1.4.3 2.8 1 4 1.8 3.3 5.6 5 10.2 5 3.3 0 7-.9 10.6-2.7 6.5-3.5 10.5-9.4 10.5-14.4 0-1.4-.3-2.8-1-4.1M2403.7 326.8c-1.8-3.3-5.6-5-10.1-5-3.4 0-7 1-10.7 2.8-6.5 3.5-10.5 9.4-10.5 14.4 0 1.4.3 2.8 1 4 1.8 3.4 5.6 5 10.1 5 3.4 0 7-.9 10.7-2.7 6.5-3.5 10.5-9.4 10.5-14.4 0-1.4-.3-2.8-1-4"/>
  <path d="M2433.2 314.4c-1.8-3.3-5.6-5-10.1-5-3.4 0-7 1-10.6 2.8-6.6 3.5-10.6 9.3-10.6 14.4 0 1.4.3 2.8 1 4 1.8 3.3 5.6 5 10.2 5 3.3 0 7-.9 10.6-2.7 6.5-3.5 10.5-9.4 10.5-14.4 0-1.4-.3-2.8-1-4.1M2403.7 264.8c-1.8-3.3-5.6-5-10.1-5-3.4 0-7 1-10.7 2.8-6.5 3.5-10.5 9.3-10.5 14.4 0 1.4.3 2.8 1 4 1.8 3.3 5.6 5 10.1 5 3.4 0 7-.9 10.7-2.7 6.5-3.5 10.5-9.4 10.5-14.4 0-1.4-.3-2.8-1-4.1M2619.5 339.2c-1.8-3.3-5.6-5-10.1-5-3.4 0-7 1-10.6 2.8-6.6 3.5-10.6 9.4-10.6 14.4 0 1.4.3 2.8 1 4 1.8 3.4 5.6 5 10.2 5 3.3 0 7-.9 10.6-2.7 6.5-3.5 10.5-9.4 10.5-14.4 0-1.4-.3-2.8-1-4"/>
  <path d="M2619.5 314.4c-1.8-3.3-5.6-5-10.1-5-3.4 0-7 1-10.6 2.8-6.6 3.5-10.6 9.3-10.6 14.4 0 1.4.3 2.8 1 4 1.8 3.3 5.6 5 10.2 5 3.3 0 7-.9 10.6-2.7 6.5-3.5 10.5-9.4 10.5-14.4 0-1.4-.3-2.8-1-4.1M2619.5 277.2c-1.8-3.3-5.6-5-10.1-5-3.4 0-7 1-10.6 2.8-6.6 3.5-10.6 9.3-10.6 14.4 0 1.4.3 2.8 1 4 1.8 3.3 5.6 5 10.2 5 3.3 0 7-.9 10.6-2.7 6.5-3.5 10.5-9.4 10.5-14.4 0-1.4-.3-2.8-1-4.1M2715.4 264.8c-1.8-3.3-5.5-5-10.1-5-3.4 0-7 1-10.6 2.8-6.6 3.5-10.5 9.3-10.5 14.4 0 1.4.3 2.8 1 4 1.7 3.3 5.5 5 10 5 3.4 0 7.1-.9 10.7-2.7 6.5-3.5 10.5-9.4 10.5-14.4 0-1.4-.3-2.8-1-4.1M2811.3 252.4c-1.8-3.3-5.5-5-10-5-3.5 0-7.1 1-10.7 2.8-6.6 3.5-10.5 9.3-10.5 14.4 0 1.4.3 2.8 1 4 1.8 3.3 5.5 5 10 5 3.5 0 7.1-.9 10.7-2.7 6.6-3.5 10.5-9.4 10.5-14.4 0-1.4-.3-2.8-1-4.1M2907.3 240c-1.8-3.3-5.6-5-10.2-5-3.3 0-7 1-10.6 2.8-6.5 3.5-10.5 9.3-10.5 14.4 0 1.4.3 2.8 1 4 1.8 3.3 5.5 5 10.1 5 3.4 0 7-.9 10.6-2.8 6.6-3.4 10.5-9.3 10.5-14.3 0-1.4-.3-2.8-1-4.1"/>
  <path d="M208 555.4c-7.5 0-13.6 4.4-13.7 4.4a23 23 0 00-9.6 18c0 2.4.4 4.6 1.3 6.5 1.2 2.7 3.5 4.6 6.4 5.5a13 13 0 0010.1-1c3.1-1.7 5-5.3 5-9.2a10 10 0 00-4.8-8.5 10.1 10.1 0 00-8.9-1.3c-1 .4-2.7 1.4-3.5 2 .3-1.8 1.5-4.7 2.6-6.3 1.1-1.5 3.3-3.5 5-4.4 2.5-1.4 5.6-2 9.1-2 10.1 0 15 8.1 15 24.8 0 9.2-3.4 18-6.4 23.9a58.6 58.6 0 01-11.5 16.3A84.3 84.3 0 01184 638s-1.5.9-1.1 2.3c.3 1 1.2 1.2 1.8 1.2h.5s11.4-4.7 20.4-11.8c5-3.6 9.6-7.6 13.6-11.9 3.6-3.8 6.7-8 9.1-12.2a45 45 0 006.9-21.8c0-8.2-2.2-15-6.3-20-4.6-5.5-11.7-8.4-20.9-8.4m31.2 12.6c0 2.8 2.1 5 4.7 5s4.8-2.2 4.8-5-2.2-5-4.8-5c-2.6 0-4.7 2.2-4.7 5m0 24.5c0 2.8 2.1 5 4.7 5s4.8-2.2 4.8-5-2.2-5-4.8-5c-2.6 0-4.7 2.2-4.7 5M245.7 242.2A28.1 28.1 0 00241 232a22.3 22.3 0 00-20.2-9.2l-3-17.2a84 84 0 0011.3-16.2 50 50 0 005.6-32.2 43 43 0 00-5.4-17.4c-1-1.4-2-2.1-3-2.1-1.3 0-3.8 1.2-6.6 4-2.3 2.2-5.6 6-8.1 12a56 56 0 00-2.9 23c.4 7.3 1.5 13 1.5 13l.8 4.1-.8.7-3.5 3.5-2.8 2.7c-8.4 8-21.1 20.3-21.1 39.3a31.9 31.9 0 009.4 22.7 37.4 37.4 0 0033.1 9.8c1.8 9.5 3 16.5 3 21.8 0 6.4-1.6 10.4-5.5 13.1a15.3 15.3 0 01-8.2 2.8c-2.6.1-4.9-.3-6.3-.7 0 0-.3-.1-.3-.3 0-.2.4-.3.4-.3 1.9-.4 5.4-1.6 7.8-4.9 1.8-2.5 2.6-7 .8-11-1.1-2.3-3.6-5.3-9.2-5.7a11 11 0 00-11 6.2 13 13 0 001.1 14.1 19 19 0 0013 6.5 24 24 0 0014.8-3.3c3.6-2.5 5.7-6.5 6.4-12 .5-4.7.1-10.5-1.2-18.5l-1.6-8.8a25.1 25.1 0 0016.4-29.3m-34 26A30 30 0 01199 261a20.2 20.2 0 01-4.6-6.7c-1.4-3.1-2-6.5-2-10.1 0-4.7 1.4-9.4 3.9-14.2 2.9-5.5 7.4-11 13.4-16.3 1.4-1.3 2.8-2.5 4-3.8l2.5 13.7a21.2 21.2 0 00-11.6 10c-3.5 6.5-3.4 12-2.6 15.4.9 4.5 3.4 8.2 6.8 10.3 1 .5 5 2.6 6.9 2 .3 0 .6-.3.8-.6.5-1.2-.6-1.8-2.1-2.7l-2-1.4a10.7 10.7 0 01-3.7-11.2c.6-2.4 1.9-4.5 3.7-6.2 1.7-1.5 3.7-2.6 6-3.3 2 11.2 4.1 22.3 5.8 30.5 0 .7.2 1.4.4 2-4.4 1-8.7.9-12.9-.2m11.2-33c10.3-.4 14.5 7 15.4 11.8.5 2.5.5 6.9-1 11a15.3 15.3 0 01-8.7 9.3l-.3-1.3-5.4-30.7m-7.2-70.4c1.7-5.7 4.5-9 6.4-10.6 1.8-1.6 3.4-2.3 4.3-2.3h.4c.4.2 1 .8 1.4 1.7 2.3 4.2 1.6 10.9.3 15.3-1.7 5.3-4.6 11-13.3 20.4l-.5-3c-1.2-8.3-.9-15.5 1-21.5"/>
  <path d="M321.4 607c.6 0 1-.8 1-1.4v-5.8c0-.8-.5-1.4-1.3-1.4h-.2l-3.3.7v-14.8H315v15.4l-8.9 1.8v-14h-2.8V602l-3.8.8c-.6.1-1.1.8-1.1 1.4v6-.2c0 .8.6 1.4 1.4 1.4h.3l3.2-.7V627l-3.8.7c-.6.1-1.1.8-1.1 1.4v5.8c0 .8.6 1.4 1.4 1.4h.3l3.2-.7v14.8h2.8V635l8.9-1.8v14h2.7v-14.6l3.8-.7c.6 0 1-.8 1-1.4v-5.8c0-.8-.5-1.4-1.3-1.4h-.2l-3.3.7v-16.4l3.8-.7M306 626.6V610l8.9-1.8v16.4l-8.9 1.9M296.6 569.8c.6 0 1-.8 1-1.4v-5.8c0-.8-.5-1.4-1.3-1.4h-.2l-3.3.7V547h-2.7v15.4l-8.9 1.7v-14h-2.8v14.6l-3.8.8c-.6.1-1.1.8-1.1 1.4v6-.2c0 .8.6 1.4 1.4 1.4h.3l3.2-.7v16.3l-3.8.8c-.6.1-1.1.8-1.1 1.4v5.8c0 .8.6 1.4 1.4 1.4h.3l3.2-.7v14.8h2.8v-15.4l8.9-1.8v14h2.7v-14.6l3.8-.7c.6 0 1-.8 1-1.4v-5.8c0-.8-.5-1.4-1.3-1.4h-.2l-3.3.7v-16.4l3.8-.7m-15.4 19.6v-16.5l8.9-1.8v16.4l-8.9 1.9M321.4 200.3c.6 0 1-.8 1-1.4v-5.8c0-.8-.5-1.4-1.3-1.4h-.2l-3.3.7v-14.8H315V193l-8.9 1.8v-14h-2.8v14.5l-3.8.8c-.6.1-1.1.8-1.1 1.4v6-.2c0 .8.6 1.4 1.4 1.4h.3l3.2-.7v16.4l-3.8.7c-.6.1-1.1.8-1.1 1.4v5.8c0 .8.6 1.4 1.4 1.4h.3l3.2-.7v14.8h2.8v-15.4l8.9-1.8v14h2.7V226l3.8-.7c.6 0 1-.8 1-1.4v-5.8c0-.8-.5-1.4-1.3-1.4h-.2l-3.3.7V201l3.8-.7M306 220v-16.5l8.9-1.8V218l-8.9 1.9M296.6 163.1c.6 0 1-.8 1-1.4V156c0-.8-.5-1.4-1.3-1.4h-.2l-3.3.7v-14.8h-2.7v15.4l-8.9 1.7v-14h-2.8v14.6l-3.8.8c-.6.1-1.1.8-1.1 1.4v6-.2c0 .8.6 1.4 1.4 1.4h.3l3.2-.7V183l-3.8.8c-.6.1-1.1.8-1.1 1.4v5.8c0 .8.6 1.4 1.4 1.4h.3l3.2-.7v14.8h2.8v-15.4l8.9-1.8v14h2.7v-14.6l3.8-.7c.6 0 1-.8 1-1.4V181c0-.8-.5-1.4-1.3-1.4h-.2l-3.3.7v-16.4l3.8-.7m-15.4 19.6v-16.5l8.9-1.8v16.4l-8.9 1.9"/>
  <path d="M376.7 579.2h.2c7.9-3 8.4-8.2 8.4-10v-.5c0-.9-.3-12-17.4-12-17 0-16.5 12-16.5 12v.2c0 3.6 2.8 6.4 6.4 6.4 3.6 0 6.4-2.8 6.4-6.4 0-2.9-2.2-5.6-5-6.2l.3-.3a9 9 0 015.2-1.5c4.1 0 8.6 2.5 8.6 7.8 0 6.3-4.7 7.2-5.9 7.4-1.2.2-6.7.6-8 .6-1.1 0-1.2 1.3-1.2 1.3v2s.2 1.1 1.3 1.2c1.7.1 4 .1 7.1.6 4.4.6 6.7 3.6 6.7 10.5 0 6.7-4.5 8.5-8.6 8.5-2.8 0-5.4-.8-6.5-1.6 3.3-.2 6-3.1 6-6.4a6.4 6.4 0 00-12.8 0s-.5 4.5 3.8 8.6c3.9 3.5 8.8 3.6 11 3.6 9.5 0 19.8-3.2 19.8-14 0-7.3-5-10.4-9.3-11.8M349.5 642.3h17v7.4h-8.1c-.8 0-1.4.6-1.4 1.4v1.9c0 .8.6 1.4 1.4 1.4h30c.8 0 1.4-.6 1.4-1.4v-1.9c0-.8-.6-1.4-1.4-1.4h-8.9v-7.4h8.9c.8 0 1.4-.6 1.4-1.4v-1.8c0-.8-.6-1.4-1.4-1.4h-8.9v-15.9c0-.5-.3-1-.8-1.2l-1.2-.6c-.5-.3-1.1-.2-1.5.2l-9 8.3c-.3.2-.5.6-.5 1v8.2h-11.4s11-12 22.8-27.6c.8-1.2.4-2.2.2-2.4l-2.2-2.2c-.3-.2-.6-.4-1-.4h-14.7c-.7 0-1.3.6-1.4 1.2 0 0-.5 7.3-3 15.4-2.6 8-5.6 13-8.2 16.6 0 0-.5 1-.2 1.7l1 1.8s.2.5 1 .5M376.7 197.3h.2c7.9-3 8.4-8.2 8.4-10v-.5c0-.9-.3-12-17.4-12-17 0-16.5 12-16.5 12v.2c0 3.6 2.8 6.4 6.4 6.4 3.6 0 6.4-2.8 6.4-6.4 0-2.9-2.2-5.6-5-6.2l.3-.3a9 9 0 015.2-1.5c4.1 0 8.6 2.5 8.6 7.8 0 6.3-4.7 7.2-5.9 7.4-1.2.2-6.7.6-8 .6-1.1 0-1.2 1.3-1.2 1.3v2s.2 1.1 1.3 1.2c1.7.1 4 .1 7.1.6 4.4.6 6.7 3.6 6.7 10.5 0 6.7-4.5 8.5-8.6 8.5-2.8 0-5.4-.8-6.5-1.6 3.3-.2 6-3.1 6-6.4a6.4 6.4 0 00-12.8 0s-.5 4.5 3.8 8.6c3.9 3.5 8.8 3.6 11 3.6 9.5 0 19.8-3.2 19.8-14 0-7.3-5-10.4-9.3-11.8M349.5 260.5h17v7.3h-8.1c-.8 0-1.4.6-1.4 1.4v2c0 .7.6 1.3 1.4 1.3h30c.8 0 1.4-.6 1.4-1.4v-1.9c0-.8-.6-1.4-1.4-1.4h-8.9v-7.3h8.9c.8 0 1.4-.7 1.4-1.4v-2c0-.7-.6-1.3-1.4-1.3h-8.9v-15.9c0-.5-.3-1-.8-1.2l-1.2-.6c-.5-.3-1.1-.2-1.5.2l-9 8.3c-.3.2-.5.6-.5 1v8.2h-11.4s11-12 22.8-27.6c.8-1.2.4-2.2.2-2.4l-2.2-2.2c-.3-.2-.6-.4-1-.4h-14.7c-.7 0-1.3.6-1.4 1.2 0 0-.5 7.3-3 15.4-2.6 8-5.6 13-8.2 16.6 0 0-.5 1-.2 1.7l1 1.8s.2.6 1 .6"/>
  <path d="M547.1 634.6c-.7-.3-1.4.1-1.7.7-.3.6-3 6-7.4 9.4-1.3 1-2.8 1.7-4.4 2.1a7 7 0 10-7.8 2.2c1.5.6 3.4 1 5.5 1 2.8-.2 5.8-1 8.5-3.2 1.2-1 2.3-2.1 3.3-3.4l-4.4 15.8c-.5 1-3.7 7-7.7 10.2-1.3 1.1-2.9 1.8-4.4 2.2a7 7 0 10-7.9 2.1c1.6.7 3.5 1 5.5 1 2.8-.1 5.9-1 8.5-3.1 1.2-1 2.3-2.2 3.4-3.5l-10.2 36.2 2.7.8 18.5-65.7.9-3.1c.2-.8-.1-1.4-.9-1.7M678.9 634.6c-.8-.3-1.4.1-1.7.7-.3.6-3.1 6-7.4 9.4-1.4 1-2.9 1.7-4.5 2.1a7 7 0 10-7.8 2.2c1.6.6 3.5 1 5.5 1 2.8-.2 5.9-1 8.5-3.2 1.2-1 2.4-2.1 3.4-3.4l-4.5 15.8c-.5 1-3.7 7-7.7 10.2-1.3 1.1-2.9 1.8-4.4 2.2a7 7 0 10-7.8 2.1c1.5.7 3.4 1 5.4 1 2.9-.1 6-1 8.5-3.1 1.2-1 2.4-2.2 3.4-3.5l-10.1 36.2 2.6.8 18.6-65.7.8-3.1c.2-.8 0-1.4-.8-1.7M810.6 634.6c-.7-.3-1.4.1-1.7.7-.3.6-3.1 6-7.4 9.4-1.3 1-2.9 1.7-4.4 2.1a7 7 0 10-7.8 2.2c1.5.6 3.4 1 5.4 1 2.9-.2 6-1 8.5-3.2 1.2-1 2.4-2.1 3.4-3.4l-4.4 15.8c-.5 1-3.7 7-7.7 10.2-1.4 1.1-3 1.8-4.5 2.2a7 7 0 10-7.8 2.1c1.6.7 3.4 1 5.5 1 2.8-.1 5.9-1 8.5-3.1 1.2-1 2.3-2.2 3.4-3.5l-10.2 36.2 2.7.8 18.5-65.7.9-3.1c.2-.8-.1-1.4-.9-1.7M942.4 634.6c-.8-.3-1.4.1-1.8.7-.3.6-3 6-7.3 9.4-1.4 1-3 1.7-4.5 2.1a7 7 0 10-7.8 2.2c1.5.6 3.4 1 5.5 1 2.8-.2 5.9-1 8.5-3.2 1.2-1 2.3-2.1 3.4-3.4l-4.5 15.8c-.5 1-3.7 7-7.7 10.2-1.3 1.1-2.9 1.8-4.4 2.2a7 7 0 10-7.9 2.1c1.6.7 3.5 1 5.5 1 2.8-.1 5.9-1 8.5-3.1 1.2-1 2.4-2.2 3.4-3.5l-10.1 36.2 2.6.8 18.5-65.7 1-3.1c.1-.8-.2-1.4-1-1.7M1074.1 634.6c-.7-.3-1.4.1-1.7.7-.3.6-3.1 6-7.4 9.4-1.3 1-2.9 1.7-4.4 2.1a7 7 0 10-7.9 2.2c1.6.6 3.5 1 5.5 1 2.8-.2 5.9-1 8.5-3.2 1.2-1 2.4-2.1 3.4-3.4l-4.5 15.8c-.4 1-3.7 7-7.7 10.2-1.3 1.1-2.8 1.8-4.4 2.2a7 7 0 10-7.8 2.1c1.5.7 3.4 1 5.5 1 2.8-.1 5.8-1 8.5-3.1 1.2-1 2.3-2.2 3.3-3.5l-10.1 36.2 2.7.8 18.5-65.7.8-3.1c.2-.8 0-1.4-.8-1.7M1205.8 634.6c-.7-.3-1.4.1-1.7.7-.3.6-3 6-7.4 9.4-1.3 1-2.8 1.7-4.4 2.1a7 7 0 10-7.8 2.2c1.5.6 3.4 1 5.5 1 2.8-.2 5.8-1 8.4-3.2 1.3-1 2.4-2.1 3.4-3.4l-4.4 15.8c-.5 1-3.7 7-7.7 10.2-1.4 1.1-2.9 1.8-4.5 2.2a7 7 0 10-7.8 2.1c1.6.7 3.5 1 5.5 1 2.8-.1 5.9-1 8.5-3.1 1.2-1 2.3-2.2 3.4-3.5l-10.2 36.2 2.7.8 18.5-65.7.9-3.1c.2-.8-.1-1.4-.9-1.7M2710.7 535.4c-.8-.3-1.4 0-1.8.7-.3.6-3.4 6.5-7.8 9.7-1.4 1-3 1.6-4.5 2a7 7 0 10-8 1.9 14.5 14.5 0 0014-1.6c1.3-1 2.5-2.2 3.6-3.4l-11.3 35.3 2.6.9 14-43.8c.2-.7 0-1.4-.8-1.7M2803.1 572.3l-.2-.3-.6-.7-11.4-14.1c-.3-.3-.2-1 0-1.5l10.1-15.3.2-.7v-.8c0-.3 0-.6-.3-.8l-16-21.8s-.9-1.2-1.8-.3c-1 .8-.2 2.1-.2 2.1l7.5 10.3c.4.6.4 1.8 0 2.4l-10 15.3-.2.8v.9c0 .3 0 .6.3.8l11 13.8c-.3-.1-1.2-.3-2.4-.3-1.7 0-3.9.4-5.6 2-2.2 2-3.4 4.7-3.4 7.2 0 1.4.3 2.8 1 3.9 2.2 3.1 9.6 12.6 9.6 12.6s.9 1 1.8.4c.9-.7.7-1.6.4-2.1l-3.5-6.3s-.7-1.4-.7-3.1c0-1.3.4-3 1.7-4.2a5.3 5.3 0 013.9-1.6 6 6 0 013.1.9l4 2.5s1.1.6 1.7-.3c.5-.8.3-1.2 0-1.7"/>
  <path d="M446.7 812.5a3.9 3.9 0 105.5-5.5 3.9 3.9 0 00-5.5 5.5M710.2 781.5a3.9 3.9 0 105.5-5.5 3.9 3.9 0 00-5.5 5.5M973.7 787.7a3.9 3.9 0 105.4-5.5 3.9 3.9 0 00-5.4 5.5M2185.5 106c-2.7 0-5.9 1.4-5.9 4.4 0 2.9 1.8 4.5 4 4.5s2.7-1.5 4.8-1.5c2 0 3 1.5 3 4.3 0 2.5-1.9 4.5-4.4 4.5-2.8 0-4.4-.8-7-3l-8.2-7.8-2.1-2a12 12 0 00-8.6-3.4c-5.6 0-12 3.8-12 11.3 0 7 4 11.7 9 11.7 2.7 0 5.8-1.5 5.8-4.5 0-2.9-1.8-4.5-4-4.5s-2.7 1.5-4.8 1.5c-1.9 0-3-1.5-3-4.2v-.1c0-2.5 2-4.5 4.5-4.5 2.9 0 4.3.8 7 3l8.2 7.8 2.1 2c2.5 2.3 5.1 3.5 8.5 3.5 5.6 0 12-3.9 12-11.3 0-7-3.9-11.7-9-11.7"/>
  <path d="M1294.6 815.4c-2 0-4 1.9-4 4 0 4 2.8 6.1 6.2 6.1a8 8 0 006.2-2.7c3.3-3.3 7-14.7 8.8-21.1l2-6.6v-.2h5.4c.5 0 .8-.3.8-.8v-1.6c0-.4-.3-.8-.8-.8h-4.5v-.3c2.2-7.8 2.8-9.1 4-10 .5-.5 1.1-.6 1.5-.6h.3c.4 0 .7.4.8.7v.4c0 .4-.1.7-.4.9-.7.6-1.1 1.5-1.1 2.5l.1 1.2c.2.7.8 1.3 1.6 1.7.3.1.8.3 1.3.3.6 0 1.2-.2 2-.6.8-.4 1.4-1.2 1.7-2.2l.2-1.2c0-1-.3-2-.8-3-.6-1-2.4-2.4-4.9-2.8l-1.2-.1c-1.9 0-4.3.6-6.8 2.9-2 1.8-3.7 5-5.4 10v.2h-5.8c-.4 0-.7.4-.7.8v1.6c0 .5.3.8.7.8h4.8v.3l-2 8.2-2.2 9.2-.2.9c-1.6 6.2-2 8.5-4 9.7-.3.3-.8.4-1.2.4-.4 0-.8-.1-1-.3-.2-.2-.6-.5-.5-1 0-.2.3-.5.7-.6 1.4-.6 1.9-2 1.9-3.3 0-1-.7-3-3.5-3m2.3-21.8a2.2 2.2 0 00-1.3 2c0 .9.8 2 2.2 2 1.4 0 2-1 2.1-1.7l.1-.6c0-1.7-1.4-4.4-5.8-4.4-5.1 0-7.4 3.4-7.4 6.3 0 1.6.5 3.3 2.6 4.5l3.4 1.9c1.4.7 1.6 1.8 1.6 2.5 0 .8-.8 3.4-3.6 3.4-2.2 0-2.8-.7-2.8-1v-.2c.3-.2 1.3-.8 1.3-2.6 0-2-1.3-2.8-2.4-2.8-1.1 0-2.7.9-2.7 3.1 0 3.5 2.6 5.2 6.5 5.2 4 0 8.4-1.7 8.4-6.2s-4-5.7-5.9-6.7c-2-1-2.2-1.5-2.2-2.8 0-1.3 1.5-2.9 3.4-2.9 2 0 2.5 1 2.5 1M1362.8 823.3h17.1v-1.6h-5.7l4.4-12.2.2.5s.8 1.8 3.4 2.4l1.4.2c4.2 0 8.5-4.3 10-10.5.5-1.6.6-3 .6-4.2 0-5.1-3.2-6.4-4.3-6.7l-1-.1c-2.4 0-4.8 2-6 3.2l-.3.2v-.2s-1.7-2.9-4.3-3.3h-.9c-2.5 0-5.2 1.7-7.3 8l1.4.6c.3-1 1.1-3.4 2-4.6.4-.7 1.3-1.3 2-1.4.3-.1.6 0 .9.1.3.2.4.6.4 1.2 0 1.8-1.3 5.1-1.7 5.9l-7.6 20.9h-4.7v1.6M1382 810l-.5-.1c-1.2-.4-1.5-1.8-1.5-3.2 0-2.4.9-5.2 1-5.4.7-2.8 2.8-6 4.8-7.2.5-.3 1-.4 1.5-.4h.5c.4.2.6.4.8.8.2.4.3 1 .3 1.7 0 2-.8 4.8-1.3 6.1-1 3-2.8 6.6-4.7 7.5l-.9.2M448.5 380.6h17V379h-5.7l4.5-12.2.2.5s.8 1.8 3.3 2.4l1.5.2c4.1 0 8.4-4.3 10-10.5.4-1.6.6-3 .6-4.2 0-5.1-3.2-6.4-4.4-6.7l-1-.1c-2.3 0-4.7 2-6 3.2l-.2.2-.1-.2s-1.6-2.9-4.3-3.3h-.8c-2.6 0-5.2 1.7-7.4 8l1.4.6c.3-1 1.2-3.4 2-4.6.5-.7 1.3-1.3 2-1.4.4-.1.7 0 1 .1.2.2.3.6.3 1.2 0 1.8-1.3 5.1-1.7 5.9l-7.5 20.9h-4.7v1.6m19.2-13.3l-.6-.1c-1.1-.4-1.4-1.8-1.4-3.2 0-2.4.8-5.2.9-5.4.7-2.8 2.8-6 4.8-7.2.5-.3 1-.4 1.5-.4h.6c.3.2.6.4.7.8.3.4.3 1 .3 1.7 0 2-.8 4.8-1.2 6.1-1 3-2.8 6.6-4.8 7.5l-.8.2M1280.5 132c-2 0-4 2-4 4 0 4 2.8 6.2 6.3 6.2a8 8 0 006-2.7c3.4-3.3 7-14.7 9-21.2l1.8-6.6v-.1h5.6c.4 0 .8-.3.8-.8v-1.6c0-.5-.4-.8-.8-.8h-4.6v-.3c2.2-7.8 2.8-9.2 4-10 .6-.5 1.1-.6 1.5-.6h.3c.4 0 .7.4.8.6v.5c0 .3 0 .7-.4.9-.7.6-1.1 1.5-1.1 2.5l.1 1.1c.2.8.8 1.4 1.6 1.8l1.3.2c.6 0 1.2 0 2-.5s1.5-1.2 1.7-2.2l.2-1.3c0-1-.3-2-.8-2.8-.6-1.2-2.4-2.5-4.8-3h-1.3c-1.9 0-4.3.6-6.8 2.9-2 1.8-3.7 5-5.4 10v.2h-5.8c-.4 0-.7.3-.7.8v1.6c0 .5.3.8.8.8h4.7v.3l-2 8.2-2.2 9.2-.1.9c-1.7 6.2-2.2 8.5-4 9.7-.4.2-.9.4-1.3.4s-.8-.1-1-.4c-.2-.1-.6-.4-.5-.8 0-.4.3-.6.7-.8 1.5-.6 1.9-2 1.9-3.2 0-1-.7-3-3.5-3m2.3-21.8a2.2 2.2 0 00-1.3 2c0 .9.8 2 2.2 2 1.4 0 2-1 2.1-1.7l.1-.6c0-1.7-1.4-4.4-5.8-4.4-5.1 0-7.4 3.3-7.4 6.3 0 1.6.5 3.3 2.6 4.5l3.5 1.9c1.3.7 1.5 1.8 1.5 2.5 0 .8-.8 3.4-3.6 3.4-2.2 0-2.8-.7-2.8-1.1v-.2c.3-.1 1.3-.7 1.3-2.5 0-2-1.3-2.8-2.4-2.8-1.1 0-2.6.9-2.6 3 0 3.5 2.5 5.3 6.4 5.3 4 0 8.4-1.7 8.4-6.2 0-4.6-4-5.7-5.9-6.8-2-1-2.2-1.4-2.2-2.7 0-1.3 1.5-3 3.4-3 2 0 2.5 1 2.5 1"/>
  <path fill-rule="evenodd" d="M448 772.5l134.5-6.3v12.4L448.1 785v-12.5M448 754l134.5-6.4V760l-134.4 6.4v-12.5M711.5 741.5L846 748v12.4L711.5 754v-12.5M711.5 723l134.5 6.3v12.4l-134.5-6.4V723M975 747.7l134.5 19v12.5l-134.5-19v-12.5M975 729l134.5 19v12.6l-134.5-19v-12.5M1289.3 716.7l408.4-37.4v12.4l-408.4 37.5v-12.5M1812.8 697.9l88.5 25.6v12.9l-88.5-25.6v-13M1004.5 500l200.4-19v12.5l-200.4 18.9v-12.5M1204.9 499.7l-32.3 3v12.5l32.3-3v-12.5M1643.4 499.9l83.8-6.4v12.4l-83.8 6.4V500M1842.3 475h431.3v12.3h-431.3V475M2402 549.6l158.5-19v12.6L2402 562v-12.5M2497.9 556.8l62.6-7.5v12.5l-62.6 7.4v-12.4M1289.3 372l408.4-6.2v12.4l-408.4 6.3V372M1004.5 167.7l200.4-25.1V155l-200.4 25.1v-12.5M1204.9 161.2l-32.3 4v12.5l32.3-4v-12.5M1643.4 161l83.8 6.4v12.4l-83.8-6.4V161M1842.3 185.8l88.5 6.4v12.4l-88.5-6.4v-12.4M2713.7 192.5l194.5-25.1v12.5L2713.7 205v-12.5"/>
  <path d="M2621.2 531l-1-3.9c0-.4-.7-.7-1.2-.7-.7 0-1.3.6-1.3 1.3v22.4c0 .5.4 1 .8 1.1a39.7 39.7 0 0119.3 17.8c1.8 3 4.7 7.2 4.7 15.6 0 7.1-1.1 14.6-3 21.6-.2 1-.5 2 .6 2.5 1 .4 1.5-.4 1.9-1.4a65.3 65.3 0 004.4-24v-2c-.5-12.7-7.8-22.1-7.8-22.1.3 0-9.1-12.2-11.8-16.4a50.2 50.2 0 01-5.6-11.7M2621.2 201.9l-1-4c0-.4-.7-.7-1.2-.7-.7 0-1.3.6-1.3 1.3V221c0 .5.4 1 .8 1.1a39.7 39.7 0 0119.3 17.8c1.8 3 4.7 7.2 4.7 15.6 0 7.1-1.1 14.7-3 21.6-.2 1-.5 2 .6 2.5 1 .4 1.5-.4 1.9-1.4a65.3 65.3 0 004.4-24v-1.9c-.5-12.8-7.8-22.2-7.8-22.2.3 0-9.1-12.2-11.8-16.4a50.2 50.2 0 01-5.6-11.7"/>
  <path d="M460.3 99.8c-5.2 0-9 3.2-9 7.6 0 2.1 1.2 4 3.4 5 .8.5 1.8 1 4 1.8 2.8 1.1 3.5 1.8 3.5 3.6 0 2.7-2.3 4.4-5.7 4.4-2.6 0-4.4-.7-4.4-1.7 0-.3.2-.6.4-.8 1-1 1-1.2 1-2.1 0-1.4-1-2.5-2.5-2.5-1.7 0-3 1.4-3 3.3 0 3.5 3.2 5.7 8.2 5.7 5.8 0 9.7-3.2 9.7-7.7 0-2-.9-3.7-2.5-4.8a16 16 0 00-4.3-2c-3.3-1.1-4.1-2-4.1-3.9 0-2.3 2.2-4 5-4 2 0 3.3.6 3.3 1.4 0 .2 0 .4-.2.7-.7 1-.8 1.2-.8 2 0 1.3 1 2.3 2.6 2.3 1.7 0 2.8-1.3 2.8-3 0-3.1-3-5.3-7.4-5.3m22.7-7.5h-4.3l-2.5 8.3h-4.7l-.7 2.3h4.7l-3.7 12.6c-.8 2.6-1 3.6-1 4.8 0 2.1 1.6 3.8 3.6 3.8 2.4 0 5.2-1.6 7-4l2.4-3.8-1.5-1c-3.1 4.8-4.5 6.1-6.2 6.1-.7 0-1.1-.5-1.1-1.4l.1-1.1 4.8-16h5.4l.7-2.3h-5.4l2.4-8.3m23.6 8.3l-1.3 4.5a5.9 5.9 0 00-6.1-5.3c-3.1 0-5.9 1.6-8.3 4.6-2.5 3.3-4 7.5-4 11.5 0 5 3 8.2 7.4 8.2 3.1 0 5.1-1.3 7.6-4.9l-.3 1.6c0 2 1.3 3.3 3.1 3.3 2.2 0 4.1-1.2 5.8-3.7 1.1-1.4 1.9-2.8 2.5-4.1l-1.6-.9c-1.9 3.9-3.6 6-4.9 6-.6 0-1-.6-1-1.3 0-.6.1-1.4.5-2.7l5-16.8h-4.4m-6.6 2c2.4 0 3.8 1.6 3.8 4.4 0 3-1 6.9-2.5 10-1.6 3.1-3.4 4.5-5.9 4.5-2.5 0-4-1.8-4-4.9 0-4.4 2-9.5 4.6-12.3a5.5 5.5 0 014-1.7m32.6 14.1c-2.5 3.3-5.2 5-7.6 5-3 0-4.6-2.2-4.6-6 0-3.6 1.1-7.5 3-10.3 1.8-2.5 3.6-3.7 5.8-3.7 1.6 0 3.2.8 3.2 1.7 0 .3-.2.5-.8.7-1.3.6-1.8 1.2-1.8 2.4 0 1.5 1 2.5 2.6 2.5 1.8 0 3.2-1.6 3.2-3.8 0-3-3-5.4-6.5-5.4-7 0-13.3 7.2-13.3 15.3 0 5.4 3.3 9 8.6 9 3.7 0 7-2.1 9.6-6.3l-1.4-1m21.7 0c-2.5 3.2-5.2 4.9-7.6 4.9-3 0-4.6-2.2-4.6-6 0-3.6 1.1-7.5 3-10.3 1.8-2.5 3.6-3.7 5.8-3.7 1.6 0 3.2.8 3.2 1.7 0 .3-.2.5-.8.7-1.3.6-1.8 1.2-1.8 2.4 0 1.5 1 2.5 2.6 2.5 1.8 0 3.2-1.6 3.2-3.8 0-3-3-5.4-6.5-5.4-7 0-13.3 7.2-13.3 15.3 0 5.4 3.3 9 8.6 9 3.7 0 7-2.1 9.6-6.3l-1.4-1m24.5-16.2l-1.3 4.5a5.9 5.9 0 00-6.1-5.3c-3.1 0-6 1.6-8.3 4.6-2.5 3.3-4 7.5-4 11.5 0 5 2.9 8.2 7.4 8.2 3.1 0 5-1.3 7.6-4.9l-.3 1.6c0 2 1.3 3.3 3 3.3 2.3 0 4.2-1.2 5.9-3.7 1-1.4 1.9-2.8 2.5-4.1l-1.6-.9c-1.9 3.9-3.6 6-5 6-.5 0-1-.6-1-1.3 0-.6.2-1.4.6-2.7l5-16.8h-4.4m-6.6 2c2.4 0 3.8 1.6 3.8 4.4 0 3-1 6.9-2.5 10-1.6 3.1-3.4 4.5-5.9 4.5-2.5 0-4-1.8-4-4.9 0-4.4 2-9.5 4.6-12.3a5.5 5.5 0 014-1.7m28.1-10.3H596l-2.5 8.3h-4.7l-.7 2.3h4.7l-3.7 12.6c-.8 2.6-1 3.6-1 4.8 0 2.1 1.6 3.8 3.6 3.8 2.4 0 5.2-1.6 7-4l2.4-3.8-1.5-1c-3.1 4.8-4.5 6.1-6.2 6.1-.7 0-1.1-.5-1.1-1.4l.1-1.1 4.8-16h5.4l.7-2.3H598l2.4-8.3m17.3 7.5c-3.3 0-6.4 1.5-9.2 4.3a14.6 14.6 0 00-4.2 10.6c0 5.8 3.5 9.4 9 9.4 3.6 0 6.6-1.4 9-4.1 2.7-3 4.3-7 4.3-10.7 0-5.2-4-9.5-8.9-9.5m-.2 2c2.7 0 4.3 2.2 4.3 6 0 2.7-1 6.7-2.3 9.4-1.7 3.5-3.6 5-6.2 5-3 0-4.5-1.9-4.5-5.3 0-4.2 1.7-9.7 3.8-12.5 1.4-1.8 3-2.7 4.9-2.7m37.7-1.9c-5.3 0-9 3.2-9 7.6 0 2.1 1.2 4 3.4 5 .8.5 1.8 1 3.9 1.8 2.8 1.1 3.5 1.8 3.5 3.6 0 2.7-2.2 4.4-5.7 4.4-2.5 0-4.3-.7-4.3-1.7 0-.3.1-.6.3-.8 1-1 1-1.2 1-2.1 0-1.4-1-2.5-2.5-2.5-1.6 0-2.9 1.4-2.9 3.3 0 3.5 3.1 5.7 8.2 5.7 5.7 0 9.7-3.2 9.7-7.7 0-2-1-3.7-2.5-4.8a16 16 0 00-4.4-2c-3.2-1.1-4-2-4-3.9 0-2.3 2.1-4 5-4 2 0 3.3.6 3.3 1.4l-.3.7c-.7 1-.8 1.2-.8 2 0 1.3 1 2.3 2.6 2.3 1.7 0 2.9-1.3 2.9-3 0-3.1-3-5.3-7.4-5.3m27 17.7c-3 3-5.2 4.2-7.8 4.2-3 0-4.9-2-4.9-5.2l.1-1.7c6-1.4 6.8-1.7 9.1-2.7 4-1.7 6-4.2 6-7.1 0-3-2.4-5.2-6-5.2-7.2 0-13.8 7.4-13.8 15.6 0 5.4 3.2 8.7 8.6 8.7a12 12 0 009.8-5.2l-1.2-1.4m-12.2-4.6c1.1-6.8 4.2-11 7.9-11 1.6 0 2.7 1 2.7 2.8 0 2.4-1.5 4.5-4.3 6-1.8 1-3 1.5-6.3 2.2m29-13l-9.1.7-.2 1.8h1.2c2 0 2.8.4 2.8 1.6 0 .4-.1 1.2-.4 2.1l-5.1 17.2h4.4l2-7c2.3-7.7 6.8-13.5 10.6-13.5 1.3 0 2 .7 2 2 0 1-.3 3-1 5l-4 13.5h4.4l2.2-7.2c1.2-4.2 2.5-7 4-9.1 1.9-2.5 4.4-4.2 6.3-4.2 1.3 0 2 .7 2 1.9 0 .7-.3 1.8-.7 3.2l-2.3 7c-1.4 4-1.4 4.3-1.4 5.7 0 2 1.5 3.5 3.9 3.5 1.6 0 3.2-.8 4.9-2.4 1-1 1.8-2 3.8-5l-1.5-1c-2.6 4-4.5 5.8-5.8 5.8-.5 0-1-.5-1-1.2 0-.5.1-1 .6-2.5l3.1-9.7c.4-1 .6-2.6.6-3.7 0-2.7-2-4.6-4.6-4.6-3.6 0-6.8 2.3-9.7 7l.3-2.3c0-2.7-2.1-4.7-4.8-4.7-3.2 0-5.5 1.8-9 6.8l1.5-6.8m43.3 0l-9 .8-.3 1.8h1.2c2 0 2.9.4 2.9 1.5 0 .5-.2 1.2-.5 2.2l-6.4 21.7c-1 3.6-1 3.7-4.4 3.8l-.2 1.8h12l.2-1.8h-.6c-2.4 0-3.2-.3-3.2-1.3l.5-2.5 2.5-8.1c1.3 3.4 2.6 4.4 6 4.4a11 11 0 009-4.7c2.5-3.2 4-7.3 4-11.4 0-2.5-.6-4.1-1.7-5.6a7 7 0 00-5.3-2.6c-2.5 0-5.2 1.5-7.4 4.3l.7-4.3m5.2 2.7c2.2 0 3.7 1.7 3.7 4.4s-.8 6.1-2.3 9.2c-1.8 3.8-3.8 5.5-6.4 5.5-2.5 0-4.2-2-4.2-4.6 0-3 1.5-7.7 3.4-10.6 1.7-2.5 3.7-4 5.8-4m23-2.6l-9 .8-.2 1.8h1.2c2 0 2.9.4 2.9 1.4 0 .3-.2 1.4-.5 2.3l-5.1 17.2h4.3l2.4-7.9c1.8-6.2 6-12.5 8.3-12.5.7 0 .9.3.9 1.7 0 1.3.8 2.1 2.3 2.1 1.7 0 3-1.3 3-3.2 0-2.1-1.7-3.7-4-3.7-2.8 0-5 1.7-7.6 5.8l1.1-5.8m27.4 17.7c-3 3-5 4.2-7.7 4.2-3 0-4.9-2-4.9-5.2l.1-1.7c6-1.4 6.8-1.7 9.1-2.7 4-1.7 6-4.2 6-7.1 0-3-2.4-5.2-6-5.2-7.2 0-13.8 7.4-13.8 15.6 0 5.4 3.2 8.7 8.6 8.7a12 12 0 009.8-5.2l-1.2-1.4m-12.2-4.6c1.1-6.8 4.2-11 7.9-11 1.6 0 2.7 1 2.7 2.8 0 2.4-1.5 4.5-4.3 6-1.8 1-3 1.5-6.3 2.2"/>
  <path fill="none" stroke="#000" stroke-linecap="square" stroke-linejoin="bevel" stroke-width="3" d="M975 407.1l244 14M975 407.1l244-14M1286.5 528.7l461 14M1286.5 528.7l461-14M2681.3 119.5l267 14M2681.3 119.5l267-14"/>
  <path d="M2417 692a5 5 0 1010 0 5 5 0 00-10 0M1019.7 592.7a5 5 0 109.9 0 5 5 0 00-10 0M1019.7 310a5 5 0 109.9 0 5 5 0 00-10 0M1019.7 260.4a5 5 0 109.9 0 5 5 0 00-10 0"/>
  <path d="M129.4 414.2c6.4-9 19-28 19-62.6 0-43.7-14.1-88.1-14.1-115.3 0-29.3 12.8-57.1 13.2-57.9.4-.7.4-1.8 0-2.2-.4-.3-1.2 0-1.6.7-.5.7-19.8 26.8-19.8 66 0 42.6 12.6 72.3 12.6 127.6 0 10.5-3.4 27.5-12.2 42-.7.9-.7 2.2-.2 3.1l.2.2a87.3 87.3 0 0112.2 42c0 55.5-12.6 85.1-12.6 127.7 0 39.2 19.3 65.4 19.8 66 .4.7 1 1.2 1.6.7.5-.4.5-1.2 0-2.2-.4-1-13.2-28.6-13.2-57.9 0-27.1 14.1-71.6 14.1-115.4a99.8 99.8 0 00-19-62.5"/>
</svg>
