<?xml version="1.0" encoding="utf-8"?>
<svg xmlns="http://www.w3.org/2000/svg" xmlns:svg="http://www.w3.org/2000/svg" version="1.1" viewBox="0 0 2851 734">
	<title>A score for the first four bars of Beethoven’s second Sonata (Op. 2, No. 2). The work is scored for piano, and increases gradually in pitch and volume over the bars.</title>
  <path fill="none" stroke="#000" stroke-linejoin="bevel" stroke-width="2.7" d="M32.6 81.3h2817.9m-2818 24.8h2818m-2818 24.8h2818m-2818 24.8h2818m-2818 24.8h2818M32.5 463.2h2818M32.5 488h2818m-2818 24.8h2818m-2818 24.8h2818m-2818 24.8h2818"/>
  <path fill-rule="evenodd" stroke="#000" stroke-linecap="round" stroke-linejoin="round" stroke-width="1.7" d="M1164.8 654.8c86 46.7 329.5 24.3 405.6-37.2-75.5 68.5-319 90.8-405.6 37.2m420.4-60.5c50.8 87.7 210.2 92.1 265.7 7.3-55.7 91.7-215.1 87.3-265.7-7.3M880 389.3c45-50.2 144-59.5 197.6-18.6-53-34-151.8-24.7-197.6 18.6m323 64c68.9-74.1 307-116.3 397-70.2-88.8-39.2-327 3-397 70.2m514.8-88.8c85.7-62.4 342.8-62.4 428.5 0-85.7-55.4-342.8-55.4-428.5 0m655.5 62.9a37.8 37.8 0 0 1 60-7.1c-16.6-11.3-46.5-7.7-60 7.1"/>
  <path fill-rule="evenodd" stroke="#000" stroke-linecap="round" stroke-linejoin="round" stroke-width="1.7" d="M1164.8 310.1c82 53 325.3 49.3 405.6-6.2-80.1 62.4-323.5 66.1-405.6 6.2m-299.6-57.6c67.9 12 166.7-37.7 197.6-99.2-27.8 67.7-126.6 117.3-197.6 99.2M1203 108.7C1274.6 37.9 1512.7 6.9 1600 57c-86.4-43.2-324.5-12.2-397 51.6m500 106.7c66.8 53 272.5 60.4 342.9 12.4-70.7 55-276.4 47.5-343-12.4m559.8 49.6c51.6 43.6 159.5 49.8 215.8 12.4-56.7 44.4-164.6 38.2-215.8-12.4m311.7-62c52.8 31.7 148.8 19.3 191.8-24.8-42.2 51-138 63.4-191.8 24.8M1894.4 559.7c26.3 16.5 105.2 16.5 131.5 0-26.3 23.5-105.2 23.5-131.5 0m171.4 0c37.2 24.7 148.5 24.7 185.6 0-37.1 31.7-148.5 31.7-185.6 0"/>
  <path stroke="#000" stroke-linejoin="bevel" stroke-width="4.5" d="M34.8 461.9v101.9m1085.5-101.9v101.9m532-101.9v101.9m551-101.9v101.9m645-101.9v101.9M34.8 80v383.2M1120.3 80v383.2m532-383.2v383.2m551-383.2v383.2m645-383.2v383.2"/>
  <path d="M2742.8 145.2c.6 0 1-.8 1-1.4V138c0-.8-.5-1.4-1.3-1.4h-.2l-3.3.7v-14.8h-2.7v15.4l-9 1.8v-14h-2.6v14.6l-4 .7c-.5.1-1 .8-1 1.4v6-.2c0 .8.6 1.4 1.4 1.4h.3l3.3-.7v16.4l-4 .7c-.5.1-1 .8-1 1.4v5.8c0 .8.6 1.4 1.4 1.4h.3l3.3-.7v14.8h2.7v-15.4l8.9-1.8v14h2.7v-14.6l3.8-.7c.6 0 1-.8 1-1.4V163c0-.8-.5-1.4-1.3-1.4h-.2l-3.3.7v-16.4l3.8-.7m-15.4 19.6v-16.5l8.9-1.8v16.4l-9 1.9"/>
  <path stroke="#000" stroke-linejoin="bevel" stroke-width="4" d="M313.5 587.2H363m82 0h49.7m213.9 0h49.6m213.9 0h49.6m1216 0h49.6m-1974-357.1h49.7m-49.6-24.8H363M577 230.1h49.6M577 205.3h49.6m213.8 24.8H890m-49.6-24.8H890m264.8 0h49.6m31.5 0h49.6m274.9 0h49.6m153.9 0h49.7m207.5 0h49.6m167.2 24.8h79m-79-24.8h79m136.8 49.6h49.6m-49.6-24.8h49.6m-49.6-24.8h49.6"/>
  <path stroke="#000" stroke-linejoin="bevel" stroke-width="2.7" d="M323.5 603v83.4m131.8-95.8v89.6m131.7-102v77.2m131.7-64.8v71m131.8-83.4v83.4M982.2 603v77.2m182.6-114.4v64.8m81-77.2v69.8m81.3-82.2v74.8m81-87.2v79.7m81.2-92.1v84.7m81-97.1v89.6m118-102V612m85.7-46.2v71m85.7-83.4v64.8m171.4-64.8v64.8m216.8-15.2v52.4m-1895-145.7v-74.4m263.6 74.4v-74.4M880 509.7v-96.1m197.6 58.8V395m116.7 77.4v-65m324.5 77.4v-71.2m81.2 58.8v-65m117.8 77.4v-96m85.7 83.6v-83.6m85.7 96v-96m85.7 71.2v-71.2m85.7 83.6v-83.6m85.7 71.2v-71.2m131 158.1v-83.7m96 71.3v-82.7m60 70.3v-77.5m59.9 65.1v-74.4M1164.8 221.1v64.8m81-77.2v76m81.3-88.4v87.2m81-99.6v98.3m81.2-110.7V281m81-72.3v71M353 227V81.3M616.5 227V81.3M880 227V81.3m197.6 46.5V56.5m116.7 71.3V53.4m324.5 86.8V75.1m81.2 77.5V81.3m117.8 108.5V99.9m85.7 114.7V106.1m85.7 83.7v-83.7m171.4 96.1v-83.7m216.8 120.9V93.7m215.8 158.1V106.1m95.9 71.3v-71.3M2685 165V93.7m96 58.9V81.3"/>
  <path d="M353.4 591.6c-1.8-3.3-5.5-5-10.1-5-3.4 0-7 1-10.6 2.8-6.6 3.5-10.5 9.3-10.5 14.4a8 8 0 0 0 1 4c1.7 3.3 5.5 5 10 5 3.5 0 7-.9 10.7-2.7 6.5-3.5 10.5-9.4 10.5-14.4 0-1.4-.3-2.8-1-4.1M485 579.2c-1.7-3.3-5.5-5-10-5-3.4 0-7.1 1-10.7 2.8-6.5 3.5-10.5 9.3-10.5 14.4a8 8 0 0 0 1 4c1.8 3.3 5.6 5 10 5 3.5 0 7-.9 10.7-2.7 6.6-3.5 10.5-9.4 10.5-14.4 0-1.4-.2-2.8-1-4.1m131.8-12.4c-1.8-3.3-5.6-5-10.1-5-3.4 0-7 1-10.6 2.8-6.6 3.5-10.6 9.3-10.6 14.4a8 8 0 0 0 1 4c1.8 3.3 5.6 5 10.2 5 3.3 0 7-.9 10.6-2.7 6.5-3.5 10.5-9.4 10.5-14.4 0-1.4-.3-2.8-1-4.1m131.7 12.4c-1.7-3.3-5.5-5-10-5a24 24 0 0 0-10.7 2.8c-6.5 3.5-10.5 9.3-10.5 14.4a8 8 0 0 0 1 4c1.8 3.3 5.5 5 10 5 3.5 0 7-.9 10.7-2.7 6.6-3.5 10.5-9.4 10.5-14.4 0-1.4-.3-2.8-1-4.1m131.8-12.4c-1.8-3.3-5.6-5-10.1-5-3.4 0-7 1-10.7 2.8-6.5 3.5-10.5 9.3-10.5 14.4a8 8 0 0 0 1 4c1.8 3.3 5.6 5 10 5 3.5 0 7-.9 10.8-2.7 6.5-3.5 10.5-9.4 10.5-14.4 0-1.4-.3-2.8-1-4.1m131.7 24.8c-1.8-3.3-5.5-5-10.1-5-3.4 0-7 1-10.6 2.8-6.6 3.5-10.5 9.3-10.5 14.4a8 8 0 0 0 1 4c1.7 3.3 5.5 5 10 5 3.4 0 7-.9 10.7-2.7 6.5-3.5 10.5-9.4 10.5-14.4 0-1.4-.3-2.8-1-4.1m182.6-37.2c-1.8-3.3-5.6-5-10.1-5-3.4 0-7 1-10.6 2.8-6.6 3.5-10.6 9.3-10.6 14.4a8 8 0 0 0 1 4c1.8 3.3 5.6 5 10.2 5 3.3 0 7-.9 10.6-2.8 6.5-3.4 10.5-9.3 10.5-14.3 0-1.4-.3-2.8-1-4.1m81-12.4c-1.7-3.3-5.4-5-10-5-3.4 0-7 1-10.6 2.8-6.6 3.5-10.5 9.3-10.5 14.4a8 8 0 0 0 1 4c1.7 3.3 5.5 5 10 5 3.5 0 7-.9 10.7-2.8 6.5-3.4 10.5-9.3 10.5-14.3 0-1.4-.3-2.8-1-4.1m81.2-12.4c-1.8-3.3-5.6-5-10.2-5-3.3 0-7 1-10.6 2.8-6.5 3.5-10.5 9.3-10.5 14.4a8 8 0 0 0 1 4c1.8 3.3 5.5 5 10 5 3.5 0 7-.9 10.7-2.8 6.6-3.4 10.5-9.3 10.5-14.3 0-1.4-.3-2.8-1-4.1m81.2-12.4c-1.8-3.3-5.6-5-10.1-5-3.4 0-7 1-10.7 2.8-6.5 3.5-10.5 9.3-10.5 14.4a8 8 0 0 0 1 4c1.8 3.3 5.6 5 10 5 3.5 0 7-.9 10.8-2.8 6.5-3.4 10.5-9.3 10.5-14.3 0-1.4-.3-2.8-1-4.1m81-12.5c-1.7-3.2-5.4-5-10-5-3.4 0-7 1-10.6 3-6.6 3.4-10.5 9.2-10.5 14.3a8 8 0 0 0 1 4c1.7 3.3 5.5 5 10 5 3.4 0 7-.9 10.7-2.8 6.5-3.4 10.5-9.3 10.5-14.3 0-1.4-.3-2.8-1-4.1m81-12.4c-1.6-3.3-5.4-5-10-5a24 24 0 0 0-10.6 2.8c-6.5 3.5-10.5 9.3-10.5 14.4a8 8 0 0 0 1 4c1.8 3.3 5.5 5 10 5 3.5 0 7-.9 10.7-2.8 6.6-3.4 10.5-9.3 10.5-14.3 0-1.4-.3-2.8-1-4.1M1718 480c-1.7-3.3-5.5-5-10-5-3.4 0-7 1-10.7 2.8-6.5 3.5-10.5 9.3-10.5 14.4a8 8 0 0 0 1 4c1.8 3.3 5.6 5 10 5 3.5 0 7-.9 10.8-2.8 6.5-3.4 10.5-9.3 10.5-14.3 0-1.4-.3-2.8-1-4.1m85.7 74.4c-1.8-3.3-5.6-5-10.1-5-3.4 0-7 1-10.7 2.8-6.5 3.5-10.5 9.3-10.5 14.4a8 8 0 0 0 1 4c1.8 3.3 5.6 5 10 5 3.5 0 7-.9 10.8-2.8 6.5-3.4 10.5-9.3 10.5-14.3 0-1.4-.3-2.8-1-4.1m85.7-12.4c-1.8-3.3-5.6-5-10.1-5-3.4 0-7 1-10.7 2.8-6.5 3.5-10.5 9.3-10.5 14.4a8 8 0 0 0 1 4c1.8 3.3 5.6 5 10 5 3.5 0 7-.9 10.8-2.8 6.5-3.4 10.5-9.3 10.5-14.3 0-1.4-.3-2.8-1-4.1m171.4 0c-1.8-3.3-5.6-5-10.1-5-3.4 0-7 1-10.6 2.8-6.6 3.5-10.6 9.3-10.6 14.4a8 8 0 0 0 1 4c1.8 3.3 5.6 5 10.2 5 3.3 0 7-.9 10.6-2.8 6.5-3.4 10.5-9.3 10.5-14.3 0-1.4-.3-2.8-1-4.1m216.8 49.6c-1.8-3.3-5.6-5-10.1-5-3.4 0-7 1-10.7 2.8-6.5 3.5-10.5 9.3-10.5 14.4a8 8 0 0 0 1 4c1.8 3.3 5.6 5 10 5 3.5 0 7-.9 10.8-2.7 6.5-3.5 10.5-9.4 10.5-14.4 0-1.4-.3-2.8-1-4.1m-4.3 6.7c-1.7 1.7-5 3.8-8.6 5.8a38.4 38.4 0 0 1-11 4.2c-1.6 0-2.8-.6-3.5-2-.3-.4-.5-1-.5-1.6 0-1.1.7-2.4 1.8-3.5 1.7-1.7 5-3.7 8.5-5.7a38.4 38.4 0 0 1 11-4.2c1.6 0 3 .6 3.6 1.9.3.5.4 1 .4 1.7 0 1-.6 2.3-1.7 3.4M353.4 504.7c-1.8-3.2-5.5-5-10.1-5-3.4 0-7 1-10.6 3-6.6 3.4-10.5 9.2-10.5 14.3a8 8 0 0 0 1 4c1.7 3.3 5.5 5 10 5 3.5 0 7-.9 10.7-2.8 6.5-3.4 10.5-9.3 10.5-14.3 0-1.4-.3-2.8-1-4.1m263.5-.1c-1.8-3.2-5.6-5-10.1-5-3.4 0-7 1-10.6 3-6.6 3.4-10.6 9.2-10.6 14.3a8 8 0 0 0 1 4c1.8 3.3 5.6 5 10.2 5 3.3 0 7-.9 10.6-2.8 6.5-3.4 10.5-9.3 10.5-14.3 0-1.4-.3-2.8-1-4.1m263.5-.1c-1.8-3.2-5.6-5-10.1-5-3.4 0-7 1-10.7 3-6.5 3.4-10.5 9.2-10.5 14.3a8 8 0 0 0 1 4c1.8 3.3 5.6 5 10 5 3.5 0 7-.9 10.8-2.8 6.5-3.4 10.5-9.3 10.5-14.3 0-1.4-.3-2.8-1-4.1m197.6-37.2c-1.8-3.3-5.6-5-10.1-5-3.4 0-7 1-10.7 2.8-6.5 3.5-10.5 9.3-10.5 14.4a8 8 0 0 0 1 4c1.8 3.3 5.6 5 10 5 3.5 0 7-.9 10.8-2.8 6.5-3.4 10.5-9.3 10.5-14.3 0-1.4-.3-2.8-1-4.1m116.7 0c-1.8-3.3-5.6-5-10.1-5-3.4 0-7 1-10.6 2.8-6.6 3.5-10.6 9.3-10.6 14.4a8 8 0 0 0 1 4c1.8 3.3 5.6 5 10.2 5 3.3 0 7-.9 10.6-2.8 6.5-3.4 10.5-9.3 10.5-14.3 0-1.4-.3-2.8-1-4.1m-4.3 6.7c-1.7 1.7-5 3.8-8.6 5.8a38.4 38.4 0 0 1-11 4.2c-1.6 0-2.8-.6-3.5-2-.3-.4-.5-1-.5-1.6 0-1.1.7-2.4 1.8-3.5 1.7-1.7 5-3.8 8.5-5.7a38.4 38.4 0 0 1 11-4.2c1.6 0 3 .6 3.6 1.9.3.5.4 1 .4 1.7 0 1-.6 2.2-1.7 3.4"/>
  <path d="M1519.2 480c-1.8-3.3-5.5-5-10.1-5-3.4 0-7 1-10.6 2.8-6.6 3.5-10.5 9.3-10.5 14.4a8 8 0 0 0 1 4c1.7 3.3 5.5 5 10 5 3.4 0 7-.9 10.7-2.8 6.5-3.4 10.5-9.3 10.5-14.3 0-1.4-.3-2.8-1-4.1m81-12.4c-1.6-3.3-5.4-5-10-5a24 24 0 0 0-10.6 2.8c-6.5 3.5-10.5 9.3-10.5 14.4a8 8 0 0 0 1 4c1.8 3.3 5.5 5 10 5 3.5 0 7-.9 10.7-2.8 6.6-3.4 10.5-9.3 10.5-14.3 0-1.4-.3-2.8-1-4.1M1718 480c-1.7-3.3-5.5-5-10-5-3.4 0-7 1-10.7 2.8-6.5 3.5-10.5 9.3-10.5 14.4a8 8 0 0 0 1 4c1.8 3.3 5.6 5 10 5 3.5 0 7-.9 10.8-2.8 6.5-3.4 10.5-9.3 10.5-14.3 0-1.4-.3-2.8-1-4.1"/>
  <path d="M1718 455.2c-1.6-3.3-5.4-5-10-5-3.3 0-7 1-10.6 2.8-6.5 3.5-10.5 9.3-10.5 14.4a8 8 0 0 0 1 4c1.8 3.3 5.6 5 10 5 3.5 0 7-.9 10.8-2.8 6.5-3.4 10.5-9.3 10.5-14.4 0-1.3-.3-2.7-1-4m85.7 12.4c-1.8-3.3-5.6-5-10.1-5-3.4 0-7 1-10.7 2.8-6.5 3.5-10.5 9.3-10.5 14.4a8 8 0 0 0 1 4c1.8 3.3 5.6 5 10 5 3.5 0 7-.9 10.8-2.8 6.5-3.4 10.5-9.3 10.5-14.3 0-1.4-.3-2.8-1-4.1m85.7 12.4c-1.8-3.3-5.6-5-10.1-5-3.4 0-7 1-10.7 2.8-6.5 3.5-10.5 9.3-10.5 14.4a8 8 0 0 0 1 4c1.8 3.3 5.6 5 10 5 3.5 0 7-.9 10.8-2.8 6.5-3.4 10.5-9.3 10.5-14.3 0-1.4-.3-2.8-1-4.1m85.7-24.8c-1.8-3.3-5.6-5-10.1-5-3.4 0-7 1-10.7 2.8-6.5 3.5-10.5 9.3-10.5 14.4a8 8 0 0 0 1 4c1.8 3.3 5.6 5 10 5 3.5 0 7-.9 10.8-2.8 6.5-3.4 10.5-9.3 10.5-14.4 0-1.3-.3-2.7-1-4m85.7 12.4c-1.8-3.3-5.6-5-10.1-5-3.4 0-7 1-10.6 2.8-6.6 3.5-10.6 9.3-10.6 14.4a8 8 0 0 0 1 4c1.8 3.3 5.6 5 10.2 5 3.3 0 7-.9 10.6-2.8 6.5-3.4 10.5-9.3 10.5-14.3 0-1.4-.3-2.8-1-4.1m85.7-12.4c-1.8-3.3-5.6-5-10.1-5-3.4 0-7 1-10.6 2.8-6.6 3.5-10.6 9.3-10.6 14.4a8 8 0 0 0 1 4c1.8 3.3 5.6 5 10.2 5 3.3 0 7-.9 10.6-2.8 6.5-3.4 10.5-9.3 10.5-14.4 0-1.3-.3-2.7-1-4m131 86.8c-1.7-3.3-5.5-5-10-5-3.4 0-7 1-10.7 2.8-6.5 3.5-10.5 9.3-10.5 14.4a8 8 0 0 0 1 4c1.8 3.3 5.6 5 10 5 3.5 0 7-.9 10.8-2.8 6.5-3.4 10.5-9.3 10.5-14.3 0-1.4-.3-2.8-1-4.1m95.9-12.4c-1.8-3.3-5.6-5-10.1-5-3.4 0-7 1-10.6 2.8-6.6 3.5-10.5 9.3-10.5 14.4a7 7 0 0 0 1 4c1.7 3.3 5.5 5 10 5 3.4 0 7-.9 10.7-2.8 6.5-3.4 10.5-9.3 10.5-14.3 0-1.4-.3-2.8-1-4.1m60-12.4c-1.8-3.3-5.6-5-10.2-5-3.3 0-7 1-10.6 2.8-6.5 3.5-10.5 9.3-10.5 14.4a8 8 0 0 0 1 4c1.8 3.3 5.5 5 10 5 3.5 0 7-.9 10.7-2.8 6.6-3.4 10.5-9.3 10.5-14.3 0-1.4-.3-2.8-1-4.1m60-12.5c-1.8-3.2-5.6-5-10.1-5-3.4 0-7 1-10.6 3-6.6 3.4-10.6 9.2-10.6 14.3a8 8 0 0 0 1 4c1.8 3.3 5.6 5 10.2 5 3.3 0 7-.9 10.6-2.8 6.5-3.4 10.5-9.3 10.5-14.3 0-1.4-.3-2.8-1-4.1m-1299-295.1c-1.7-3.3-5.5-5-10-5-3.4 0-7 1-10.6 2.8-6.6 3.5-10.6 9.3-10.6 14.4a8 8 0 0 0 1 4c1.8 3.3 5.6 5 10.2 5 3.3 0 7-.9 10.6-2.7 6.5-3.5 10.5-9.4 10.5-14.4 0-1.4-.3-2.8-1-4.1m81-12.4c-1.7-3.3-5.4-5-10-5-3.4 0-7 1-10.6 2.8-6.6 3.5-10.5 9.3-10.5 14.4a8 8 0 0 0 1 4c1.7 3.3 5.5 5 10 5 3.5 0 7-.9 10.7-2.7 6.5-3.5 10.5-9.4 10.5-14.4 0-1.4-.3-2.8-1-4.1m81.2-12.4c-1.8-3.3-5.6-5-10.2-5-3.3 0-7 1-10.6 2.8-6.5 3.5-10.5 9.3-10.5 14.4a8 8 0 0 0 1 4c1.8 3.3 5.5 5 10 5 3.5 0 7-.9 10.7-2.7 6.6-3.5 10.5-9.4 10.5-14.4 0-1.4-.3-2.8-1-4.1m81.2-12.4c-1.8-3.3-5.6-5-10.1-5-3.4 0-7 1-10.7 2.8-6.5 3.5-10.5 9.3-10.5 14.4a8 8 0 0 0 1 4c1.8 3.3 5.6 5 10 5 3.5 0 7-.9 10.8-2.7 6.5-3.5 10.5-9.4 10.5-14.4 0-1.4-.3-2.8-1-4.1m81-12.4c-1.7-3.3-5.4-5-10-5-3.4 0-7 1-10.6 2.8-6.6 3.5-10.5 9.3-10.5 14.4a8 8 0 0 0 1 4c1.7 3.3 5.5 5 10 5 3.4 0 7-.9 10.7-2.7 6.5-3.5 10.5-9.4 10.5-14.4 0-1.4-.3-2.8-1-4.1m81 37.2c-1.6-3.3-5.4-5-10-5a24 24 0 0 0-10.6 2.8c-6.5 3.5-10.5 9.3-10.5 14.4a8 8 0 0 0 1 4c1.8 3.3 5.5 5 10 5 3.5 0 7-.9 10.7-2.7 6.6-3.5 10.5-9.4 10.5-14.4 0-1.4-.3-2.8-1-4.1m-1247 24.8c-1.7-3.3-5.4-5-10-5-3.4 0-7 1-10.6 2.8-6.6 3.5-10.5 9.3-10.5 14.4a8 8 0 0 0 1 4c1.7 3.3 5.5 5 10 5 3.5 0 7-.9 10.7-2.7 6.5-3.5 10.5-9.4 10.5-14.4 0-1.4-.3-2.8-1-4.1m0-62c-1.8-3.3-5.5-5-10.1-5-3.4 0-7 1-10.6 2.8-6.6 3.5-10.5 9.3-10.5 14.4a8 8 0 0 0 1 4c1.7 3.3 5.5 5 10 5 3.5 0 7-.9 10.7-2.7 6.5-3.5 10.5-9.4 10.5-14.4 0-1.4-.3-2.8-1-4.1m263.5 62c-1.8-3.3-5.6-5-10.1-5-3.4 0-7 1-10.6 2.8-6.6 3.5-10.6 9.3-10.6 14.4a8 8 0 0 0 1 4c1.8 3.3 5.6 5 10.2 5 3.3 0 7-.9 10.6-2.7 6.5-3.5 10.5-9.4 10.5-14.4 0-1.4-.3-2.8-1-4.1m0-62c-1.8-3.3-5.6-5-10.1-5-3.4 0-7 1-10.6 2.8-6.6 3.5-10.6 9.3-10.6 14.4a8 8 0 0 0 1 4c1.8 3.3 5.6 5 10.2 5 3.3 0 7-.9 10.6-2.7 6.5-3.5 10.5-9.4 10.5-14.4 0-1.4-.3-2.8-1-4.1m263.5 62c-1.8-3.3-5.6-5-10.1-5-3.4 0-7 1-10.7 2.8-6.5 3.5-10.5 9.3-10.5 14.4a8 8 0 0 0 1 4c1.8 3.3 5.6 5 10 5 3.5 0 7-.9 10.8-2.7 6.5-3.5 10.5-9.4 10.5-14.4 0-1.4-.3-2.8-1-4.1m0-62c-1.8-3.3-5.6-5-10.1-5-3.4 0-7 1-10.7 2.8-6.5 3.5-10.5 9.3-10.5 14.4a8 8 0 0 0 1 4c1.8 3.3 5.6 5 10 5 3.5 0 7-.9 10.8-2.7 6.5-3.5 10.5-9.4 10.5-14.4 0-1.4-.3-2.8-1-4.1m197.6-37.2c-1.8-3.3-5.6-5-10.1-5-3.4 0-7 1-10.7 2.8-6.5 3.5-10.5 9.3-10.5 14.4a8 8 0 0 0 1 4c1.8 3.3 5.6 5 10 5 3.5 0 7-.9 10.8-2.8 6.5-3.4 10.5-9.3 10.5-14.3 0-1.4-.3-2.8-1-4.1m116.7 0c-1.8-3.3-5.6-5-10.1-5-3.4 0-7 1-10.6 2.8-6.6 3.5-10.6 9.3-10.6 14.4a8 8 0 0 0 1 4c1.8 3.3 5.6 5 10.2 5 3.3 0 7-.9 10.6-2.8 6.5-3.4 10.5-9.3 10.5-14.3 0-1.4-.3-2.8-1-4.1m-4.3 6.7c-1.7 1.7-5 3.8-8.6 5.8a38.4 38.4 0 0 1-11 4.2c-1.6 0-2.8-.6-3.5-2-.3-.4-.5-1-.5-1.6 0-1.1.7-2.4 1.8-3.5 1.7-1.7 5-3.8 8.5-5.7a38.4 38.4 0 0 1 11-4.2c1.6 0 3 .6 3.6 1.9.3.5.4 1 .4 1.7 0 1-.6 2.2-1.7 3.4"/>
  <path d="M1519.2 135.3c-1.8-3.3-5.5-5-10.1-5-3.4 0-7 1-10.6 2.8-6.6 3.5-10.5 9.3-10.5 14.4a8 8 0 0 0 1 4c1.7 3.3 5.5 5 10 5 3.4 0 7-.9 10.7-2.8 6.5-3.4 10.5-9.3 10.5-14.3 0-1.4-.3-2.8-1-4.1m81 12.4c-1.6-3.3-5.4-5-10-5a24 24 0 0 0-10.6 2.8c-6.5 3.5-10.5 9.3-10.5 14.4a8 8 0 0 0 1 4c1.8 3.3 5.5 5 10 5 3.5 0 7-.9 10.7-2.8 6.6-3.4 10.5-9.3 10.5-14.3 0-1.4-.3-2.8-1-4.1m117.8 37.2c-1.7-3.3-5.5-5-10-5-3.4 0-7 1-10.7 2.8-6.5 3.5-10.5 9.3-10.5 14.4a8 8 0 0 0 1 4c1.8 3.3 5.6 5 10 5 3.5 0 7-.9 10.8-2.7 6.5-3.5 10.5-9.4 10.5-14.4 0-1.4-.3-2.8-1-4.1"/>
  <path d="M1718 160.1c-1.6-3.3-5.4-5-10-5-3.3 0-7 1-10.6 2.8-6.5 3.5-10.5 9.3-10.5 14.4a8 8 0 0 0 1 4c1.8 3.3 5.6 5 10 5 3.5 0 7-.9 10.8-2.7 6.5-3.5 10.5-9.4 10.5-14.4 0-1.4-.3-2.8-1-4.1m85.7 49.6c-1.8-3.3-5.6-5-10.1-5-3.4 0-7 1-10.7 2.8-6.5 3.5-10.5 9.3-10.5 14.4a8 8 0 0 0 1 4c1.8 3.3 5.6 5 10 5 3.5 0 7-.9 10.8-2.7 6.5-3.5 10.5-9.4 10.5-14.4 0-1.4-.3-2.8-1-4.1m0-37.2c-1.8-3.3-5.6-5-10.1-5-3.4 0-7 1-10.7 2.8-6.5 3.5-10.5 9.3-10.5 14.4a8 8 0 0 0 1 4c1.8 3.3 5.6 5 10 5 3.5 0 7-.9 10.8-2.7 6.5-3.5 10.5-9.4 10.5-14.4 0-1.4-.3-2.8-1-4.1m85.7 12.4c-1.8-3.3-5.6-5-10.1-5-3.4 0-7 1-10.7 2.8-6.5 3.5-10.5 9.3-10.5 14.4a8 8 0 0 0 1 4c1.8 3.3 5.6 5 10 5 3.5 0 7-.9 10.8-2.7 6.5-3.5 10.5-9.4 10.5-14.4 0-1.4-.3-2.8-1-4.1m171.4 12.4c-1.8-3.3-5.6-5-10.1-5-3.4 0-7 1-10.6 2.8-6.6 3.5-10.6 9.3-10.6 14.4a8 8 0 0 0 1 4c1.8 3.3 5.6 5 10.2 5 3.3 0 7-.9 10.6-2.7 6.5-3.5 10.5-9.4 10.5-14.4 0-1.4-.3-2.8-1-4.1m216.8 37.2c-1.8-3.3-5.6-5-10.1-5-3.4 0-7 1-10.7 2.8-6.5 3.5-10.5 9.4-10.5 14.4a8 8 0 0 0 1 4c1.8 3.4 5.6 5 10 5 3.5 0 7-.9 10.8-2.7 6.5-3.5 10.5-9.4 10.5-14.4a8 8 0 0 0-1-4"/>
  <path d="M2307.3 222.1c-1.8-3.3-5.6-5-10.1-5-3.4 0-7 1-10.6 2.8-6.6 3.5-10.6 9.3-10.6 14.4a8 8 0 0 0 1 4c1.8 3.3 5.6 5 10.2 5 3.3 0 7-.9 10.6-2.7 6.5-3.5 10.5-9.4 10.5-14.4 0-1.4-.3-2.8-1-4.1m-29.5-49.6c-1.8-3.3-5.6-5-10.1-5-3.4 0-7 1-10.7 2.8-6.5 3.5-10.5 9.3-10.5 14.4a8 8 0 0 0 1 4c1.8 3.3 5.6 5 10 5 3.5 0 7-.9 10.8-2.7 6.5-3.5 10.5-9.4 10.5-14.4 0-1.4-.3-2.8-1-4.1m215.8 74.4c-1.8-3.3-5.6-5-10.1-5-3.4 0-7 1-10.6 2.8-6.6 3.5-10.6 9.4-10.6 14.4a8 8 0 0 0 1 4c1.8 3.4 5.6 5 10.2 5 3.3 0 7-.9 10.6-2.7 6.5-3.5 10.5-9.4 10.5-14.4a8 8 0 0 0-1-4"/>
  <path d="M2493.6 222.1c-1.8-3.3-5.6-5-10.1-5-3.4 0-7 1-10.6 2.8-6.6 3.5-10.6 9.3-10.6 14.4a8 8 0 0 0 1 4c1.8 3.3 5.6 5 10.2 5 3.3 0 7-.9 10.6-2.7 6.5-3.5 10.5-9.4 10.5-14.4 0-1.4-.3-2.8-1-4.1m0-37.2c-1.8-3.3-5.6-5-10.1-5-3.4 0-7 1-10.6 2.8-6.6 3.5-10.6 9.3-10.6 14.4a8 8 0 0 0 1 4c1.8 3.3 5.6 5 10.2 5 3.3 0 7-.9 10.6-2.7 6.5-3.5 10.5-9.4 10.5-14.4 0-1.4-.3-2.8-1-4.1m95.9-12.4c-1.8-3.3-5.5-5-10.1-5-3.4 0-7 1-10.6 2.8-6.6 3.5-10.5 9.3-10.5 14.4a8 8 0 0 0 1 4c1.7 3.3 5.5 5 10 5 3.4 0 7-.9 10.7-2.7 6.5-3.5 10.5-9.4 10.5-14.4 0-1.4-.3-2.8-1-4.1m95.9-12.4c-1.8-3.3-5.5-5-10-5a24 24 0 0 0-10.7 2.8c-6.6 3.5-10.5 9.3-10.5 14.4a8 8 0 0 0 1 4c1.8 3.3 5.5 5 10 5 3.5 0 7-.9 10.7-2.7 6.6-3.5 10.5-9.4 10.5-14.4 0-1.4-.3-2.8-1-4.1m96-12.4c-1.8-3.3-5.6-5-10.2-5-3.3 0-7 1-10.6 2.8-6.5 3.5-10.5 9.3-10.5 14.4a8 8 0 0 0 1 4c1.8 3.3 5.5 5 10 5 3.5 0 7-.9 10.7-2.8 6.6-3.4 10.5-9.3 10.5-14.3 0-1.4-.3-2.8-1-4.1M82 463.1c-7.4 0-13.5 4.4-13.6 4.4a23 23 0 0 0-9.6 18c0 2.4.4 4.6 1.3 6.5a10 10 0 0 0 6.4 5.5 13 13 0 0 0 10-1c3.2-1.7 5-5.3 5-9.2a10 10 0 0 0-4.7-8.5 10.1 10.1 0 0 0-9-1.3c-1 .4-2.6 1.4-3.4 2 .3-1.8 1.5-4.7 2.6-6.3 1-1.5 3.3-3.5 5-4.4 2.5-1.4 5.6-2 9-2 10.2 0 15 8.1 15 24.8 0 9.2-3.3 18-6.3 23.9a58.6 58.6 0 0 1-11.5 16.3A84.3 84.3 0 0 1 58 545.7s-1.5.9-1.1 2.3c.3 1 1.2 1.2 1.8 1.2h.5s11.4-4.7 20.4-11.8a92 92 0 0 0 13.6-11.9c3.6-3.8 6.7-8 9-12.2a45 45 0 0 0 7-21.8c0-8.2-2.2-15-6.3-20-4.6-5.5-11.7-8.4-21-8.4m31.3 12.6c0 2.8 2 5 4.7 5a5 5 0 0 0 4.8-5 5 5 0 0 0-4.8-5c-2.6 0-4.7 2.2-4.7 5m0 24.5c0 2.8 2 5 4.7 5a5 5 0 0 0 4.8-5 5 5 0 0 0-4.8-5c-2.6 0-4.7 2.2-4.7 5m6.5-350.3a28.1 28.1 0 0 0-4.7-10.2 22.3 22.3 0 0 0-20.2-9.2l-3-17.2a84 84 0 0 0 11.3-16.2 50 50 0 0 0 5.6-32.2 43 43 0 0 0-5.4-17.4c-1-1.4-2-2.1-3-2.1-1.3 0-3.8 1.2-6.6 4a35 35 0 0 0-8.1 12 56 56 0 0 0-3 23c.5 7.3 1.6 13 1.6 13l.8 4.1-.8.7-3.5 3.5-2.8 2.7c-8.4 8-21.1 20.3-21.1 39.3a31.9 31.9 0 0 0 9.4 22.7 37.4 37.4 0 0 0 33 9.8c1.9 9.5 3 16.5 3 21.8 0 6.4-1.5 10.4-5.4 13.1a15.3 15.3 0 0 1-8.2 2.8 21 21 0 0 1-6.3-.7s-.3-.1-.3-.3c0-.2.4-.3.4-.3a13 13 0 0 0 7.8-4.9c1.8-2.5 2.6-7 .8-11-1.1-2.3-3.6-5.3-9.2-5.7a11 11 0 0 0-11 6.2 13 13 0 0 0 1 14.1 19 19 0 0 0 13 6.5 24 24 0 0 0 14.9-3.3c3.6-2.5 5.7-6.5 6.4-12 .5-4.7 0-10.5-1.2-18.5l-1.6-8.8a25.1 25.1 0 0 0 16.4-29.3m-34 26a30 30 0 0 1-12.7-7.2 20.2 20.2 0 0 1-4.6-6.7c-1.4-3.1-2-6.5-2-10.1 0-4.7 1.4-9.4 3.9-14.2a59 59 0 0 1 13.4-16.3c1.4-1.3 2.8-2.5 4-3.8l2.5 13.7a21.2 21.2 0 0 0-11.6 10c-3.5 6.5-3.4 12-2.6 15.4.9 4.5 3.4 8.2 6.8 10.3 1 .5 5 2.6 6.9 2 .3 0 .6-.3.8-.6.5-1.2-.6-1.8-2.1-2.7l-2-1.4a10.7 10.7 0 0 1-3.7-11.2c.6-2.4 1.9-4.5 3.7-6.2a16 16 0 0 1 6-3.3 1202.8 1202.8 0 0 0 6.2 32.5c-4.4 1-8.7.9-13-.2m11.3-33c10.3-.4 14.5 7 15.4 11.8a22 22 0 0 1-1 11 15.3 15.3 0 0 1-8.7 9.3l-.3-1.3L97 143m-7.2-70.4c1.7-5.7 4.5-9 6.4-10.6 1.8-1.6 3.4-2.3 4.3-2.3h.4c.4.2 1 .8 1.4 1.7 2.3 4.2 1.6 10.9.3 15.3-1.7 5.3-4.6 11-13.3 20.4l-.5-3a48.5 48.5 0 0 1 1-21.5M195.5 514.7c.6 0 1-.8 1-1.4v-5.8c0-.8-.5-1.4-1.3-1.4h-.2l-3.3.7V492H189v15.4l-9 1.8v-14h-2.7v14.5l-3.8.8c-.6.1-1.1.8-1.1 1.4v6-.2c0 .8.6 1.4 1.4 1.4h.3l3.2-.7v16.3l-3.8.7c-.6.1-1.1.8-1.1 1.4v5.8c0 .8.6 1.4 1.4 1.4h.3l3.2-.7v14.8h2.8v-15.4l8.9-1.8v14h2.7v-14.6l3.8-.7c.6 0 1-.8 1-1.4v-5.8c0-.8-.5-1.4-1.3-1.4h-.2l-3.3.7v-16.4l3.8-.7M180 534.3v-16.6l8.9-1.8v16.4l-9 1.9m-9.3-56.7c.6 0 1-.8 1-1.4v-5.8c0-.8-.5-1.4-1.3-1.4h-.2l-3.3.7v-14.9h-2.7v15.4l-9 1.7v-14h-2.7v14.6l-3.8.8c-.6.1-1.1.8-1.1 1.4v6-.2c0 .8.6 1.4 1.4 1.4h.3l3.2-.7v16.3l-3.8.8c-.6.1-1.1.8-1.1 1.4v5.8c0 .8.6 1.4 1.4 1.4h.3l3.2-.7v14.8h2.8v-15.4l8.9-1.8v14h2.7v-14.6l3.8-.7c.6 0 1-.8 1-1.4v-5.8c0-.8-.5-1.4-1.3-1.4h-.2l-3.3.7v-16.4l3.8-.7M155.3 497v-16.5l8.9-1.8v16.4l-9 1.9m40.3-389c.6 0 1-.8 1-1.4v-5.8c0-.8-.5-1.4-1.3-1.4h-.2l-3.3.7V85.3H189v15.4l-9 1.8v-14h-2.7V103l-3.8.8c-.6.1-1.1.8-1.1 1.4v6-.2c0 .8.6 1.4 1.4 1.4h.3l3.2-.7v16.4l-3.8.7c-.6.1-1.1.8-1.1 1.4v5.8c0 .8.6 1.4 1.4 1.4h.3l3.2-.7v14.8h2.8v-15.4l8.9-1.8v14h2.7v-14.6l3.8-.7c.6 0 1-.8 1-1.4v-5.8c0-.8-.5-1.4-1.3-1.4h-.2l-3.3.7v-16.4l3.8-.7M180 127.7v-16.5l8.9-1.8v16.3l-9 1.9m-9.3-56.8c.6 0 1-.8 1-1.4v-5.7c0-.8-.5-1.4-1.3-1.4h-.2l-3.3.7V48.2h-2.7v15.4l-9 1.7v-14h-2.7v14.6l-3.8.8c-.6.1-1.1.8-1.1 1.4v6-.2c0 .8.6 1.4 1.4 1.4h.3l3.2-.7v16.1l-3.8.8c-.6.1-1.1.8-1.1 1.4v5.8c0 .8.6 1.4 1.4 1.4h.3l3.2-.7v14.8h2.8V98.8l8.9-1.8v14h2.7V96.4l3.8-.7c.6 0 1-.8 1-1.4v-5.6c0-.8-.5-1.4-1.3-1.4h-.2l-3.3.7V71.6l3.8-.7m-15.4 19.6V74l8.9-1.8v16.4l-9 1.9M250.8 486.9h.2c7.9-3 8.4-8.2 8.4-10v-.5c0-.9-.3-12-17.4-12-17 0-16.5 12-16.5 12v.2c0 3.6 2.8 6.4 6.4 6.4 3.6 0 6.4-2.8 6.4-6.4 0-2.9-2.2-5.6-5-6.2l.3-.3a9 9 0 0 1 5.2-1.5c4 0 8.6 2.5 8.6 7.8 0 6.3-4.7 7.2-6 7.4-1.1.2-6.6.6-8 .6-1 0-1.1 1.3-1.1 1.3v2s.2 1.1 1.3 1.2c1.7.1 4 .1 7 .6 4.5.6 6.8 3.6 6.8 10.5 0 6.7-4.5 8.5-8.6 8.5-2.8 0-5.4-.8-6.5-1.6 3.3-.2 6-3.1 6-6.4a6.4 6.4 0 0 0-12.8 0s-.5 4.5 3.8 8.6a16 16 0 0 0 11 3.6c9.5 0 19.8-3.2 19.8-14 0-7.3-5-10.4-9.3-11.8M223.6 550h17v7.4h-8.1c-.8 0-1.4.6-1.4 1.4v1.9c0 .8.6 1.4 1.4 1.4h30c.8 0 1.4-.6 1.4-1.4v-1.9c0-.8-.6-1.4-1.4-1.4h-9V550h9c.8 0 1.4-.6 1.4-1.4v-1.8c0-.8-.6-1.4-1.4-1.4h-9v-15.9c0-.5-.2-1-.7-1.2l-1.2-.6c-.5-.3-1.1-.2-1.5.2l-9 8.3c-.3.2-.5.6-.5 1v8.2h-11.4s11-12 22.8-27.6c.8-1.2.4-2.2.2-2.4l-2.2-2.2c-.3-.2-.6-.4-1-.4h-14.7c-.7 0-1.3.6-1.4 1.2 0 0-.5 7.3-3 15.4-2.6 8-5.6 13-8.2 16.6 0 0-.5 1-.2 1.7l1 1.8s.2.5 1 .5m27.3-445h.2c7.9-3 8.4-8.2 8.4-10v-.5c0-.9-.3-12-17.4-12-17 0-16.5 12-16.5 12v.2c0 3.6 2.8 6.4 6.4 6.4 3.6 0 6.4-2.8 6.4-6.4 0-2.9-2.2-5.6-5-6.2l.3-.3a9 9 0 0 1 5.2-1.5c4 0 8.6 2.5 8.6 7.8 0 6.3-4.7 7.2-6 7.4-1.1.2-6.6.6-8 .6-1 0-1.1 1.3-1.1 1.3v2s.2 1.1 1.3 1.2c1.7.1 4 .1 7 .6 4.5.6 6.8 3.6 6.8 10.5 0 6.7-4.5 8.5-8.6 8.5-2.8 0-5.4-.8-6.5-1.6 3.3-.2 6-3.1 6-6.4a6.4 6.4 0 0 0-12.8 0s-.5 4.5 3.8 8.6a16 16 0 0 0 11 3.6c9.5 0 19.8-3.2 19.8-14 0-7.3-5-10.4-9.3-11.8m-27.2 63.2h17v7.3h-8.1c-.8 0-1.4.6-1.4 1.4v2c0 .7.6 1.3 1.4 1.3h30c.8 0 1.4-.6 1.4-1.4v-1.9c0-.8-.6-1.4-1.4-1.4h-9v-7.3h9c.8 0 1.4-.7 1.4-1.4v-2c0-.7-.6-1.3-1.4-1.3h-9v-15.9c0-.5-.2-1-.7-1.2l-1.2-.6c-.5-.3-1.1-.2-1.5.2l-9 8.3c-.3.2-.5.6-.5 1v8.2h-11.4s11-12 22.8-27.6c.8-1.2.4-2.2.2-2.4l-2.2-2.2c-.3-.2-.6-.4-1-.4h-14.7c-.7 0-1.3.6-1.4 1.2 0 0-.5 7.3-3 15.4-2.6 8-5.6 13-8.2 16.6 0 0-.5 1-.2 1.7l1 1.8s.2.6 1 .6M421.2 542.3c-.7-.3-1.4.1-1.7.7-.3.6-3 6-7.4 9.4a12 12 0 0 1-4.4 2.1 7 7 0 1 0-7.8 2.2c1.5.6 3.4 1 5.5 1 2.8-.2 5.8-1 8.5-3.2 1.2-1 2.3-2.1 3.3-3.4l-4.4 15.8c-.5 1-3.7 7-7.7 10.2a11.4 11.4 0 0 1-4.4 2.2 7 7 0 1 0-8 2.1 13.8 13.8 0 0 0 14-2.1c1.3-1 2.4-2.2 3.5-3.5L400 612l2.7.8 18.5-65.7.9-3.1c.2-.8-.1-1.4-1-1.7m131.9 0c-.8-.3-1.4.1-1.7.7-.3.6-3.1 6-7.4 9.4-1.4 1-3 1.7-4.5 2.1a7 7 0 1 0-7.8 2.2c1.6.6 3.5 1 5.5 1 2.8-.2 5.9-1 8.5-3.2 1.2-1 2.4-2.1 3.4-3.4l-4.5 15.8c-.5 1-3.7 7-7.7 10.2a11.4 11.4 0 0 1-4.4 2.2 7 7 0 1 0-7.8 2.1 13.9 13.9 0 0 0 13.9-2.1c1.2-1 2.4-2.2 3.4-3.5L531.8 612l2.6.8 18.6-65.7.8-3.1c.2-.8 0-1.4-.8-1.7m131.7 0c-.7-.3-1.4.1-1.7.7-.3.6-3.1 6-7.4 9.4-1.3 1-3 1.7-4.4 2.1a7 7 0 1 0-7.8 2.2c1.5.6 3.4 1 5.4 1 2.9-.2 6-1 8.5-3.2 1.2-1 2.4-2.1 3.4-3.4l-4.4 15.8c-.5 1-3.7 7-7.7 10.2-1.4 1.1-3 1.8-4.5 2.2a7 7 0 1 0-7.8 2.1 14.4 14.4 0 0 0 14-2.1c1.2-1 2.3-2.2 3.4-3.5L663.5 612l2.7.8 18.5-65.7.9-3.1c.2-.8-.1-1.4-1-1.7m131.9 0c-.8-.3-1.4.1-1.8.7-.3.6-3 6-7.3 9.4-1.4 1-3 1.7-4.5 2.1a7 7 0 1 0-7.8 2.2c1.5.6 3.4 1 5.5 1 2.8-.2 5.9-1 8.5-3.2 1.2-1 2.3-2.1 3.4-3.4l-4.5 15.8c-.5 1-3.7 7-7.7 10.2a11.4 11.4 0 0 1-4.4 2.2 7 7 0 1 0-8 2.1 13.8 13.8 0 0 0 14-2.1c1.3-1 2.5-2.2 3.5-3.5L795.3 612l2.6.8 18.5-65.7 1-3.1c0-.8-.2-1.4-1-1.7m131.8 0c-.7-.3-1.4.1-1.7.7-.3.6-3.1 6-7.4 9.4-1.3 1-3 1.7-4.4 2.1a7 7 0 1 0-8 2.2c1.7.6 3.6 1 5.6 1 2.8-.2 5.9-1 8.5-3.2 1.2-1 2.4-2.1 3.4-3.4l-4.5 15.8c-.4 1-3.7 7-7.7 10.2a10.8 10.8 0 0 1-4.4 2.2 7 7 0 1 0-7.8 2.1c1.5.7 3.4 1 5.5 1 2.8-.1 5.8-1 8.5-3.1a22 22 0 0 0 3.3-3.5L927 612l2.7.8 18.5-65.7.8-3.1c.2-.8 0-1.4-.8-1.7m131.7 0c-.7-.3-1.4.1-1.7.7-.3.6-3 6-7.4 9.4a12 12 0 0 1-4.4 2.1 7 7 0 1 0-7.8 2.2c1.5.6 3.4 1 5.5 1 2.8-.2 5.8-1 8.4-3.2 1.3-1 2.4-2.1 3.4-3.4l-4.4 15.8c-.5 1-3.7 7-7.7 10.2a11.8 11.8 0 0 1-4.5 2.2 7 7 0 1 0-7.8 2.1 13.8 13.8 0 0 0 14-2.1c1.2-1 2.3-2.2 3.4-3.5l-10.2 36.2 2.7.8 18.5-65.7.9-3.1c.2-.8-.1-1.4-1-1.7m1505-99.2c-.8-.3-1.4 0-1.8.7-.3.6-3.4 6.5-7.8 9.7-1.4 1-3 1.6-4.5 2a7 7 0 1 0-8 1.9 14.5 14.5 0 0 0 14-1.6 29 29 0 0 0 3.6-3.4l-11.3 35.3 2.6.9 14-43.8c.2-.7 0-1.4-.8-1.7m92.4 36.9-.2-.3-.6-.7-11.4-14.1c-.3-.3-.2-1 0-1.5l10-15.3.3-.7v-.8c0-.3 0-.6-.3-.8l-16-21.8s-1-1.2-1.8-.3c-1 .8-.2 2.1-.2 2.1l7.5 10.3c.4.6.4 1.8 0 2.4l-10 15.3-.2.8v.9c0 .3 0 .6.3.8l11 13.8c-.3-.1-1.2-.3-2.4-.3a8 8 0 0 0-5.6 2 10 10 0 0 0-3.4 7.2c0 1.4.3 2.8 1 3.9 2.2 3.1 9.6 12.6 9.6 12.6s.9 1 1.8.4c.9-.7.7-1.6.4-2.1l-3.5-6.3s-.7-1.4-.7-3.1c0-1.3.4-3 1.7-4.2a5.3 5.3 0 0 1 3.9-1.6 6 6 0 0 1 3 .9l4 2.5s1.2.6 1.8-.3c.5-.8.3-1.2 0-1.7M320.8 720.2a3.9 3.9 0 1 0 5.5-5.5 3.9 3.9 0 0 0-5.5 5.5m263.5-31a3.9 3.9 0 1 0 5.5-5.5 3.9 3.9 0 0 0-5.5 5.5m263.5 6.2a3.9 3.9 0 1 0 5.4-5.5 3.9 3.9 0 0 0-5.4 5.5M2059.6 13.7c-2.7 0-6 1.4-6 4.4 0 2.9 1.9 4.5 4 4.5 2.3 0 2.8-1.5 4.9-1.5 2 0 3 1.5 3 4.3 0 2.5-2 4.5-4.4 4.5-2.8 0-4.4-.8-7-3l-8.2-7.8-2.1-2a12 12 0 0 0-8.6-3.4c-5.6 0-12 3.8-12 11.3 0 7 4 11.7 9 11.7 2.7 0 5.8-1.5 5.8-4.5 0-2.9-1.8-4.5-4-4.5s-2.7 1.5-4.8 1.5c-2 0-3-1.5-3-4.2v-.1c0-2.5 2-4.5 4.5-4.5 2.9 0 4.3.8 7 3l8.2 7.8 2 2c2.6 2.3 5.2 3.5 8.6 3.5 5.6 0 12-3.9 12-11.3 0-7-4-11.7-9-11.7M1168.7 723.1c-2 0-4 1.9-4 4 0 4 2.8 6.1 6.2 6.1a8 8 0 0 0 6.2-2.7c3.3-3.3 7-14.7 8.8-21.1l2-6.6v-.2h5.4c.5 0 .8-.3.8-.8v-1.6c0-.4-.3-.8-.8-.8h-4.5v-.3c2.2-7.8 2.8-9.1 4-10a2 2 0 0 1 1.5-.6h.3c.4 0 .7.4.8.7v.4c0 .4-.1.7-.4.9-.7.6-1.1 1.5-1.1 2.5v1.2a3 3 0 0 0 1.7 1.7c.3.1.8.3 1.3.3.6 0 1.2-.2 2-.6.8-.4 1.4-1.2 1.7-2.2l.2-1.2c0-1-.3-2-.8-3-.6-1-2.4-2.4-5-2.8l-1.1-.1c-2 0-4.3.6-6.8 2.9-2 1.8-3.7 5-5.4 10v.2h-5.8c-.4 0-.7.4-.7.8v1.6c0 .5.3.8.7.8h4.8v.3l-2 8.2-2.2 9.2-.2.9c-1.6 6.2-2 8.5-4 9.7-.3.3-.8.4-1.2.4-.4 0-.8-.1-1-.3-.2-.2-.6-.5-.5-1 0-.2.3-.5.7-.6 1.4-.6 1.9-2 1.9-3.3 0-1-.7-3-3.5-3m2.3-21.8a2.2 2.2 0 0 0-1.3 2c0 .9.8 2 2.2 2 1.4 0 2-1 2-1.7l.2-.6c0-1.7-1.4-4.4-5.8-4.4-5.1 0-7.4 3.4-7.4 6.3 0 1.6.5 3.3 2.6 4.5l3.4 1.9c1.4.7 1.6 1.8 1.6 2.5 0 .8-.8 3.4-3.6 3.4-2.2 0-2.8-.7-2.8-1v-.2c.3-.2 1.3-.8 1.3-2.6 0-2-1.3-2.8-2.4-2.8-1.1 0-2.7.9-2.7 3.1 0 3.5 2.6 5.2 6.5 5.2 4 0 8.4-1.7 8.4-6.2s-4-5.7-6-6.7-2.1-1.5-2.1-2.8c0-1.3 1.5-2.9 3.4-2.9 2 0 2.5 1 2.5 1m65.9 29.7h17v-1.6h-5.6l4.4-12.2.2.5s.8 1.8 3.4 2.4l1.4.2c4.2 0 8.5-4.3 10-10.5.5-1.6.6-3 .6-4.2 0-5.1-3.2-6.4-4.3-6.7l-1-.1c-2.4 0-4.8 2-6 3.2l-.3.2v-.2s-1.7-2.9-4.3-3.3h-1c-2.4 0-5.1 1.7-7.2 8l1.4.6c.3-1 1-3.4 2-4.6.4-.7 1.3-1.3 2-1.4.3-.1.6 0 .9.1.3.2.4.6.4 1.2a19 19 0 0 1-1.7 5.9l-7.6 20.9h-4.7v1.6m19.2-13.3-.5-.1c-1.2-.4-1.5-1.8-1.5-3.2 0-2.4.9-5.2 1-5.4a13 13 0 0 1 4.8-7.2c.5-.3 1-.4 1.5-.4h.5c.4.2.6.4.8.8.2.4.3 1 .3 1.7 0 2-.8 4.8-1.3 6.1-1 3-2.8 6.6-4.7 7.5l-1 .2M322.7 288.3h17v-1.6h-5.7l4.5-12.2.2.5s.8 1.8 3.3 2.4l1.5.2c4 0 8.4-4.3 10-10.5.4-1.6.6-3 .6-4.2 0-5.1-3.2-6.4-4.4-6.7l-1-.1c-2.3 0-4.7 2-6 3.2l-.2.2-.1-.2s-1.6-2.9-4.3-3.3h-.8c-2.6 0-5.2 1.7-7.4 8l1.4.6c.3-1 1.2-3.4 2-4.6.5-.7 1.3-1.3 2-1.4.4-.1.7 0 1 .1.2.2.3.6.3 1.2a19 19 0 0 1-1.7 5.9l-7.5 20.9h-4.7v1.6m19.2-13.3-.6-.1c-1.1-.4-1.4-1.8-1.4-3.2 0-2.4.8-5.2.9-5.4a13 13 0 0 1 4.8-7.2c.5-.3 1-.4 1.5-.4h.6c.3.2.6.4.7.8.3.4.3 1 .3 1.7 0 2-.8 4.8-1.2 6.1-1 3-2.8 6.6-4.8 7.5l-.8.2m812.8-235.3c-2 0-4 2-4 4 0 4 2.8 6.2 6.3 6.2a8 8 0 0 0 6-2.7c3.4-3.3 7-14.7 9-21.2l1.8-6.6v-.1h5.6c.4 0 .8-.3.8-.8v-1.6c0-.5-.4-.8-.8-.8h-4.6v-.3c2.2-7.8 2.8-9.2 4-10 .6-.5 1-.6 1.5-.6h.3c.4 0 .7.4.8.6v.5c0 .3 0 .7-.4.9-.7.6-1.1 1.5-1.1 2.5v1.1c.3.8.9 1.4 1.7 1.8l1.3.2c.6 0 1.2 0 2-.5s1.5-1.2 1.7-2.2l.2-1.3c0-1-.3-2-.8-2.8-.6-1.2-2.4-2.5-4.8-3h-1.3c-2 0-4.3.6-6.8 2.9-2 1.8-3.7 5-5.4 10v.2h-5.8c-.4 0-.7.3-.7.8v1.6c0 .5.3.8.8.8h4.7v.3l-2 8.2-2.2 9.2-.1.9c-1.7 6.2-2.2 8.5-4 9.7l-1.3.4c-.4 0-.8-.1-1-.4-.2-.1-.6-.4-.5-.8 0-.4.3-.6.7-.8 1.5-.6 1.9-2 1.9-3.2 0-1-.7-3-3.5-3m2.3-21.8a2.2 2.2 0 0 0-1.3 2c0 .9.8 2 2.2 2 1.4 0 2-1 2-1.7l.2-.6c0-1.7-1.4-4.4-5.8-4.4-5.1 0-7.4 3.3-7.4 6.3 0 1.6.5 3.3 2.6 4.5l3.5 1.9c1.3.7 1.5 1.8 1.5 2.5 0 .8-.8 3.4-3.6 3.4-2.2 0-2.8-.7-2.8-1.1v-.2c.3-.1 1.3-.7 1.3-2.5 0-2-1.3-2.8-2.4-2.8-1.1 0-2.6.9-2.6 3 0 3.5 2.5 5.3 6.4 5.3 4 0 8.4-1.7 8.4-6.2 0-4.6-4-5.7-6-6.8-2-1-2.1-1.4-2.1-2.7 0-1.3 1.5-3 3.4-3 2 0 2.5 1 2.5 1"/>
  <path fill-rule="evenodd" d="m322 680.2 134.6-6.3v12.4l-134.4 6.4v-12.5m-.1-18.5 134.5-6.4v12.4l-134.4 6.4v-12.5m263.4-12.4 134.5 6.5v12.4l-134.5-6.4v-12.5m0-18.5L720 637v12.4L585.6 643v-12.3M849 655.4l134.5 19v12.5l-134.5-19v-12.5m0-18.7 134.5 19v12.6l-134.5-19v-12.5m314.3-12.4 408.4-37.4v12.4l-408.4 37.5v-12.5m523.5-18.8 88.5 25.6v12.9l-88.5-25.6v-13M878.6 407.7l200.4-19v12.5l-200.4 18.9v-12.5m200.4-.2-32.3 3v12.5l32.3-3v-12.5m438.5.2 83.8-6.4v12.4l-83.8 6.4v-12.3m198.9-25h431.3V395h-431.3v-12.3m559.7 74.6 158.5-19v12.6L2276 469.7v-12.5m95.9 7.3 62.6-7.5v12.5l-62.6 7.4v-12.4M1163.4 279.7l408.4-6.2v12.4l-408.4 6.3v-12.5M878.6 75.4 1079 50.3v12.4L878.6 87.8V75.3m200.4-6.4-32.3 4v12.5l32.3-4V68.9m438.5-.2 83.8 6.4v12.4l-83.8-6.4V68.7m198.9 24.8 88.5 6.4v12.4l-88.5-6.4V93.5m871.4 6.7 194.5-25.1v12.5l-194.5 25.1v-12.5"/>
  <path d="m2495.3 438.7-1-3.9c0-.4-.7-.7-1.2-.7-.7 0-1.3.6-1.3 1.3v22.4c0 .5.4 1 .8 1.1a39.7 39.7 0 0 1 19.3 17.8c1.8 3 4.7 7.2 4.7 15.6a84 84 0 0 1-3 21.6c-.2 1-.5 2 .6 2.5 1 .4 1.5-.4 1.9-1.4a65.3 65.3 0 0 0 4.4-24v-2c-.5-12.7-7.8-22.1-7.8-22.1.3 0-9.1-12.2-11.8-16.4a50.2 50.2 0 0 1-5.6-11.7m0-329.2-1-4c0-.4-.7-.7-1.2-.7-.7 0-1.3.6-1.3 1.3v22.5c0 .5.4 1 .8 1.1a39.7 39.7 0 0 1 19.3 17.8c1.8 3 4.7 7.2 4.7 15.6 0 7.1-1.1 14.7-3 21.6-.2 1-.5 2 .6 2.5 1 .4 1.5-.4 1.9-1.4a65.3 65.3 0 0 0 4.4-24V160c-.5-12.8-7.8-22.2-7.8-22.2.3 0-9.1-12.2-11.8-16.4a50.2 50.2 0 0 1-5.6-11.7M334.4 7.5c-5.2 0-9 3.2-9 7.6 0 2.1 1.2 4 3.4 5 .8.5 1.8 1 4 1.8 2.8 1.1 3.5 1.8 3.5 3.6 0 2.7-2.3 4.4-5.7 4.4-2.6 0-4.4-.7-4.4-1.7 0-.3.2-.6.4-.8 1-1 1-1.2 1-2.1 0-1.4-1-2.5-2.5-2.5-1.7 0-3 1.4-3 3.3 0 3.5 3.2 5.7 8.2 5.7 5.8 0 9.7-3.2 9.7-7.7 0-2-1-3.7-2.5-4.8a16 16 0 0 0-4.3-2c-3.3-1.1-4.1-2-4.1-3.9 0-2.3 2.2-4 5-4 2 0 3.3.6 3.3 1.4 0 .2 0 .4-.2.7-.7 1-.8 1.2-.8 2 0 1.3 1 2.3 2.6 2.3 1.7 0 2.8-1.3 2.8-3 0-3.1-3-5.3-7.4-5.3M357 0h-4.3l-2.5 8.3h-4.7l-.7 2.3h4.7l-3.7 12.6c-.8 2.6-1 3.6-1 4.8 0 2.1 1.6 3.8 3.6 3.8 2.4 0 5.2-1.6 7-4l2.4-3.8-1.5-1c-3.1 4.8-4.5 6.1-6.2 6.1-.7 0-1.1-.5-1.1-1.4v-1.1l4.9-16h5.4l.7-2.3h-5.4L357 0m23.6 8.3-1.3 4.5a5.9 5.9 0 0 0-6.1-5.3c-3.1 0-6 1.6-8.3 4.6-2.5 3.3-4 7.5-4 11.5 0 5 3 8.2 7.4 8.2 3 0 5-1.3 7.6-4.9l-.3 1.6c0 2 1.3 3.3 3 3.3 2.3 0 4.2-1.2 5.9-3.7 1-1.4 1.9-2.8 2.5-4.1l-1.6-.9c-2 3.9-3.6 6-5 6-.5 0-1-.6-1-1.3 0-.6.2-1.4.6-2.7l5-16.8h-4.4m-6.6 2c2.4 0 3.8 1.6 3.8 4.4 0 3-1 6.9-2.5 10-1.6 3.1-3.4 4.5-6 4.5-2.4 0-4-1.8-4-4.9 0-4.4 2-9.5 4.7-12.3a5.5 5.5 0 0 1 4-1.7m32.6 14.1c-2.5 3.3-5.2 5-7.6 5-3 0-4.6-2.2-4.6-6 0-3.6 1-7.5 3-10.3 1.8-2.5 3.6-3.7 5.8-3.7 1.6 0 3.2.8 3.2 1.7 0 .3-.2.5-.8.7-1.3.6-1.8 1.2-1.8 2.4 0 1.5 1 2.5 2.6 2.5 1.8 0 3.2-1.6 3.2-3.8 0-3-3-5.4-6.5-5.4-7 0-13.3 7.2-13.3 15.3 0 5.4 3.3 9 8.6 9 3.7 0 7-2.1 9.6-6.3l-1.4-1m21.7 0c-2.5 3.2-5.2 4.9-7.6 4.9-3 0-4.6-2.2-4.6-6 0-3.6 1-7.5 3-10.3 1.8-2.5 3.6-3.7 5.8-3.7 1.6 0 3.2.8 3.2 1.7 0 .3-.2.5-.8.7-1.3.6-1.8 1.2-1.8 2.4 0 1.5 1 2.5 2.6 2.5 1.8 0 3.2-1.6 3.2-3.8 0-3-3-5.4-6.5-5.4-7 0-13.3 7.2-13.3 15.3 0 5.4 3.3 9 8.6 9 3.7 0 7-2.1 9.6-6.3l-1.4-1m24.5-16.2-1.3 4.5a5.9 5.9 0 0 0-6.1-5.3c-3.1 0-6 1.6-8.3 4.6-2.5 3.3-4 7.5-4 11.5 0 5 2.9 8.2 7.4 8.2 3 0 5-1.3 7.6-4.9l-.3 1.6c0 2 1.3 3.3 3 3.3 2.3 0 4.2-1.2 5.9-3.7 1-1.4 1.9-2.8 2.5-4.1l-1.6-.9c-2 3.9-3.6 6-5 6-.5 0-1-.6-1-1.3 0-.6.2-1.4.6-2.7l5-16.8h-4.4m-6.6 2c2.4 0 3.8 1.6 3.8 4.4 0 3-1 6.9-2.5 10-1.6 3.1-3.4 4.5-6 4.5-2.4 0-4-1.8-4-4.9 0-4.4 2-9.5 4.7-12.3a5.5 5.5 0 0 1 4-1.7m28-10.3h-4.2l-2.5 8.3h-4.7l-.7 2.3h4.7l-3.7 12.6c-.8 2.6-1 3.6-1 4.8 0 2.1 1.6 3.8 3.6 3.8 2.4 0 5.2-1.6 7-4l2.4-3.8-1.5-1c-3.1 4.8-4.5 6.1-6.2 6.1-.7 0-1.1-.5-1.1-1.4v-1.1l4.9-16h5.4l.7-2.3H472l2.4-8.3m17.3 7.5a13 13 0 0 0-9.2 4.3 14.6 14.6 0 0 0-4.2 10.6c0 5.8 3.5 9.4 9 9.4 3.6 0 6.6-1.4 9-4.1 2.7-3 4.3-7 4.3-10.7 0-5.2-4-9.5-9-9.5m-.1 2c2.7 0 4.3 2.2 4.3 6 0 2.7-1 6.7-2.3 9.4-1.7 3.5-3.6 5-6.2 5-3 0-4.5-1.9-4.5-5.3a24 24 0 0 1 3.8-12.5c1.4-1.8 3-2.7 4.9-2.7m37.7-1.9c-5.3 0-9 3.2-9 7.6 0 2.1 1.2 4 3.4 5 .8.5 1.8 1 3.9 1.8 2.8 1.1 3.5 1.8 3.5 3.6 0 2.7-2.2 4.4-5.7 4.4-2.5 0-4.3-.7-4.3-1.7 0-.3 0-.6.3-.8 1-1 1-1.2 1-2.1 0-1.4-1-2.5-2.5-2.5-1.6 0-3 1.4-3 3.3 0 3.5 3.2 5.7 8.3 5.7 5.7 0 9.7-3.2 9.7-7.7 0-2-1-3.7-2.5-4.8a16 16 0 0 0-4.4-2c-3.2-1.1-4-2-4-3.9 0-2.3 2-4 5-4 2 0 3.3.6 3.3 1.4l-.3.7c-.7 1-.8 1.2-.8 2 0 1.3 1 2.3 2.6 2.3 1.7 0 2.9-1.3 2.9-3 0-3.1-3-5.3-7.4-5.3m27 17.7c-3 3-5.2 4.2-7.8 4.2-3 0-5-2-5-5.2l.2-1.7c6-1.4 6.8-1.7 9-2.7 4-1.7 6-4.2 6-7.1 0-3-2.3-5.2-6-5.2-7.1 0-13.7 7.4-13.7 15.6 0 5.4 3.2 8.7 8.6 8.7a12 12 0 0 0 9.8-5.2l-1.2-1.4M544 20.6c1-6.8 4.2-11 7.9-11 1.6 0 2.7 1 2.7 2.8 0 2.4-1.5 4.5-4.3 6-1.8 1-3 1.5-6.3 2.2m29-13-9.1.7-.2 1.8h1.2c2 0 2.8.4 2.8 1.6 0 .4-.1 1.2-.4 2.1L562.2 31h4.4l2-7c2.3-7.7 6.8-13.5 10.6-13.5 1.3 0 2 .7 2 2 0 1-.3 3-1 5l-4 13.5h4.4l2.2-7.2a29 29 0 0 1 4-9.1c1.9-2.5 4.4-4.2 6.3-4.2 1.3 0 2 .7 2 1.9 0 .7-.3 1.8-.7 3.2l-2.3 7c-1.4 4-1.4 4.3-1.4 5.7 0 2 1.5 3.5 3.9 3.5 1.6 0 3.2-.8 4.9-2.4 1-1 1.8-2 3.8-5l-1.5-1c-2.6 4-4.5 5.8-5.8 5.8-.5 0-1-.5-1-1.2 0-.5 0-1 .6-2.5l3-9.7c.5-1 .7-2.6.7-3.7 0-2.7-2-4.6-4.6-4.6-3.6 0-6.8 2.3-9.7 7l.3-2.3c0-2.7-2.1-4.7-4.8-4.7-3.2 0-5.5 1.8-9 6.8l1.5-6.8m43.3 0-9 .8-.3 1.8h1.2c2 0 2.9.4 2.9 1.5a9 9 0 0 1-.5 2.2l-6.4 21.7c-1 3.6-1 3.7-4.4 3.8l-.2 1.8h12l.2-1.8h-.6c-2.4 0-3.2-.3-3.2-1.3l.5-2.5 2.5-8.1c1.3 3.4 2.6 4.4 6 4.4a11 11 0 0 0 9-4.7c2.5-3.2 4-7.3 4-11.4 0-2.5-.6-4.1-1.7-5.6a7 7 0 0 0-5.3-2.6c-2.5 0-5.2 1.5-7.4 4.3l.7-4.3m5.2 2.7c2.2 0 3.7 1.7 3.7 4.4s-.8 6.1-2.3 9.2c-1.8 3.8-3.8 5.5-6.4 5.5-2.5 0-4.2-2-4.2-4.6 0-3 1.5-7.7 3.4-10.6 1.7-2.5 3.7-4 5.8-4m23-2.6-9 .8-.2 1.8h1.2c2 0 2.9.4 2.9 1.4 0 .3-.2 1.4-.5 2.3L633.8 31h4.3l2.4-7.9c1.8-6.2 6-12.5 8.3-12.5.7 0 .9.3.9 1.7 0 1.3.8 2.1 2.3 2.1 1.7 0 3-1.3 3-3.2 0-2.1-1.7-3.7-4-3.7-2.8 0-5 1.7-7.6 5.8l1-5.8M672 25.2c-3 3-5 4.2-7.7 4.2-3 0-5-2-5-5.2l.2-1.7c6-1.4 6.8-1.7 9-2.7 4-1.7 6-4.2 6-7.1 0-3-2.3-5.2-6-5.2-7.1 0-13.7 7.4-13.7 15.6 0 5.4 3.2 8.7 8.6 8.7a12 12 0 0 0 9.8-5.2l-1.2-1.4m-12.2-4.6c1-6.8 4.2-11 7.9-11 1.6 0 2.7 1 2.7 2.8 0 2.4-1.5 4.5-4.3 6-1.8 1-3 1.5-6.3 2.2"/>
  <path fill="none" stroke="#000" stroke-linecap="square" stroke-linejoin="bevel" stroke-width="3" d="m849 314.8 244 14m-244-14 244-14m67.6 135.6 461 14m-461-14 461-14m933.8-395.2 267 14m-267-14 267-14"/>
  <path d="M2291 599.7a5 5 0 1 0 10 0 5 5 0 0 0-10 0M893.9 500.4a5 5 0 1 0 9.9 0 5 5 0 0 0-10 0m0-282.7a5 5 0 1 0 10 0 5 5 0 0 0-10 0m0-49.6a5 5 0 1 0 10 0 5 5 0 0 0-10 0M3.5 321.9c6.4-9 19-28 19-62.6 0-43.7-14.1-88.1-14.1-115.3a155 155 0 0 1 13.2-57.9c.4-.7.4-1.8 0-2.2-.4-.3-1.2 0-1.6.7-.5.7-19.8 26.8-19.8 66 0 42.6 12.6 72.3 12.6 127.6 0 10.5-3.4 27.5-12.2 42a3 3 0 0 0-.2 3.1l.2.2a87.3 87.3 0 0 1 12.2 42C12.8 421 .2 450.6.2 493.2c0 39.2 19.3 65.4 19.8 66 .4.7 1 1.2 1.6.7.5-.4.5-1.2 0-2.2-.4-1-13.2-28.6-13.2-57.9 0-27.1 14-71.6 14-115.4a99.8 99.8 0 0 0-19-62.5"/>
</svg>
